<?xml version="1.0" standalone="no"?>
<!DOCTYPE svg PUBLIC "-//W3C//DTD SVG 1.1//EN" "http://www.w3.org/Graphics/SVG/1.1/DTD/svg11.dtd" >
<svg xmlns="http://www.w3.org/2000/svg">
<metadata></metadata>
<defs>
<font id="fooregular" horiz-adv-x="1030" >
<font-face units-per-em="2048" ascent="1460" descent="-588" />
<missing-glyph horiz-adv-x="532" />
<glyph unicode="&#x28;C&#x29;" horiz-adv-x="1572" d="M72 684q0 150 56 281t152.5 227t226.5 152.5t277 56.5q150 0 280 -56.5t227.5 -152.5t153.5 -227t56 -281q0 -147 -56 -276t-153.5 -225.5t-227.5 -153t-280 -56.5q-147 0 -277 56.5t-226.5 153t-152.5 225.5t-56 276zM266 684q0 -104 41 -198.5t111.5 -165t165 -111.5 t200.5 -41q109 0 203 41t165 111.5t111 165t40 198.5q0 109 -40 203t-111 163.5t-165 109.5t-203 40q-106 0 -200.5 -40t-165 -109.5t-111.5 -163.5t-41 -203zM471 674q0 70 25.5 131t70.5 107t108.5 73t141.5 27q66 0 96.5 -4t53.5 -13q6 -4 12 -28.5t9 -59.5t5 -77.5 t2 -81.5q0 -23 -22 -23q-12 0 -21.5 5t-48.5 5q-70 0 -108.5 -40t-38.5 -99q0 -55 37.5 -98t103.5 -43q29 0 39 5t20 5q18 0 19 -19v-26.5t-4 -46.5q-2 -16 -46 -29.5t-98 -13.5q-68 0 -132 18.5t-113.5 60.5t-80 107.5t-30.5 157.5z" />
<glyph unicode="&#x28;R&#x29;" horiz-adv-x="1007" d="M72 963q0 88 33.5 166.5t93 138t137.5 93.5t168 34q88 0 167 -34t138 -93.5t93 -138t34 -166.5q0 -90 -34 -168t-93 -137.5t-138 -93.5t-167 -34q-90 0 -168 34t-137.5 93.5t-93 137t-33.5 168.5zM190 963q0 -66 25 -123.5t67 -99.5t99 -66.5t123 -24.5t122 24.5t98 66.5 t66.5 99.5t24.5 123.5t-24.5 122t-66.5 98t-98.5 66.5t-121.5 24.5q-66 0 -123 -24.5t-99 -66.5t-67 -98.5t-25 -121.5zM365 786v353q0 29 11 46t50 17h102q53 0 89 -30.5t36 -84.5q0 -74 -43 -96q27 -6 38 -24.5t11 -55.5v-131q0 -10 -10 -10h-78q-10 0 -10 14v113 q0 23 -12 32t-31 9h-16q-31 0 -37 25v-177q0 -12 -14 -12h-74q-12 0 -12 12zM465 997q6 27 37 27h14q20 0 30.5 13.5t10.5 35.5q0 45 -51 45h-41v-121z" />
<glyph horiz-adv-x="2048" />
<glyph horiz-adv-x="2048" />
<glyph unicode="&#xd;" horiz-adv-x="532" />
<glyph horiz-adv-x="532" />
<glyph unicode=" "  horiz-adv-x="532" />
<glyph unicode="&#x09;" horiz-adv-x="532" />
<glyph unicode="&#xa0;" horiz-adv-x="532" />
<glyph unicode="!" horiz-adv-x="763" d="M72 1341q0 14 18 19q76 4 152.5 6t152.5 2q72 0 140.5 -2t138.5 -6q18 -1 18 -17q-12 -176 -21 -319t-14.5 -261t-7.5 -213t-2 -175q0 -16 -18 -17q-66 -4 -127.5 -4h-126.5h-126t-126 4q-18 0 -19 17q0 147 -5 261t-11 221.5t-11 222t-5 261.5zM90 127q0 18 31 33 q76 35 151.5 71.5t145.5 81.5q8 4 21.5 10.5t21.5 6.5q18 0 47 -42t55.5 -95.5t46 -101.5t19.5 -58q0 -12 -17.5 -26.5t-27.5 -18.5q-80 -47 -160 -83t-166 -69q-16 -6 -22 -6q-16 0 -41 36t-48.5 85t-40 98t-16.5 78z" />
<glyph unicode="&#x22;" horiz-adv-x="1228" d="M72 1364q0 16 33.5 18t111.5 2h58t74 -3t62.5 -8t26.5 -15q-4 -59 -11 -135t-15.5 -156t-13.5 -155.5t-5 -135.5q0 -14 -13 -17t-30 -3q-59 0 -115.5 1t-111.5 7q-18 2 -19 20q0 59 -5 138t-11 160t-11 156t-5 126zM789 1364q0 16 33.5 18t111.5 2h58t74 -3t62.5 -8 t26.5 -15q-4 -59 -11 -135t-15.5 -156t-13.5 -155.5t-5 -135.5q0 -14 -13 -17t-30 -3q-59 0 -115.5 1t-111.5 7q-18 2 -19 20q0 59 -5 138t-11 160t-11 156t-5 126z" />
<glyph unicode="#" horiz-adv-x="995" d="M25 918q0 18 14 18h119q-2 143 -3 238.5t-1 177.5q0 14 6 14h241q6 0 7 -14l-5 -416h162q0 129 -4 226.5t-4 189.5q0 14 10 14h240q8 0 8 -14q-2 -104 -3 -169t-2 -108t-1 -72.5v-66.5h143q16 0 17 -16v-13l-43 -196q-2 -16 -15 -17h-104v-23.5v-39t-1 -39t-1 -23.5h113 q16 0 16 -12q0 -14 -4 -16l-39 -199q-6 -14 -17 -14h-71v-314q0 -16 -8 -16h-207q-4 0 -7 39t-4.5 93t-1.5 109.5v88.5h-178v-109.5t-1 -108t-3 -81t-4 -31.5h-211q-2 0 -4 39t-3 93t-2 109.5t-1 88.5h-53q-8 0 -13 16l-22 205q0 20 14 20h70v23.5v39t-1 39t-1 23.5h-96 q-12 0 -17 17zM401 569h170l-2 125h-168v-125z" />
<glyph unicode="$" horiz-adv-x="798" d="M57 844q0 129 51.5 223t143.5 145l-64 48q-10 6 -10 14q0 6 8 14q35 35 66 72t57 78q6 6 10 6q47 -20 87 -51t75 -66q4 -4 7.5 -6t3.5 -6q0 -8 -5 -12l-26 -43q39 4 66.5 5t52.5 1q61 0 82.5 -6.5t33.5 -16.5q23 -100 35 -204.5t17 -211.5q0 -20 -23 -20q-12 2 -19.5 3 t-15.5 1q-66 0 -92.5 -25.5t-26.5 -64.5q0 -29 23 -57q49 -66 74.5 -128.5t25.5 -148.5q0 -74 -29.5 -136.5t-95.5 -103.5q55 -31 66.5 -39t11.5 -12q0 -10 -15.5 -37.5t-37 -57.5t-44 -52.5t-36.5 -22.5q-2 0 -10 4q-63 41 -97 65.5t-50.5 37t-19.5 16.5t-3 6q0 8 10 21 q-16 -2 -29.5 -2h-19.5q-59 0 -115 12q-10 37 -16 74t-6 78q0 12 2 20t12 8h27q10 0 36.5 4t54 14.5t49 28t21.5 41.5q0 27 -26.5 65t-81.5 81q-104 82 -149.5 168t-45.5 176z" />
<glyph unicode="%" horiz-adv-x="1587" d="M65 1065q0 74 20.5 137.5t60.5 109.5t97.5 72.5t129.5 26.5q74 0 129 -26.5t93 -72.5t57.5 -107.5t19.5 -131.5q0 -74 -19.5 -144.5t-57.5 -125.5t-94.5 -89t-129.5 -34q-139 0 -222.5 103.5t-83.5 281.5zM98 -16q0 8 7 18q131 164 276 354.5t287.5 384t273.5 378 t234 337.5q12 23 34 23q8 0 34 -7.5t59.5 -21.5t71.5 -36.5t75 -51.5q6 -6 6 -14q0 -27 -33 -70q-92 -121 -192 -252t-202.5 -261t-202 -255t-186.5 -232.5t-158.5 -192.5t-118.5 -136q-31 -35 -49.5 -48.5t-34.5 -13.5q-12 0 -42 11.5t-60.5 27t-54.5 31.5t-24 27zM299 983 q0 -57 19.5 -94t48.5 -37t47 37t18 94q0 53 -14.5 73.5t-46.5 20.5q-41 0 -56.5 -21.5t-15.5 -72.5zM915 340q0 74 20.5 137.5t60.5 109.5t97.5 72.5t129.5 26.5q74 0 129 -26.5t93 -72.5t57.5 -107.5t19.5 -131.5q0 -74 -19.5 -144.5t-57.5 -125.5t-94.5 -89t-129.5 -34 q-139 0 -222.5 103.5t-83.5 281.5zM1149 258q0 -57 19.5 -94t48.5 -37t47 37t18 94q0 53 -14.5 73.5t-46.5 20.5q-41 0 -56.5 -21.5t-15.5 -72.5z" />
<glyph unicode="&#x26;" horiz-adv-x="1126" d="M49 817q0 156 56.5 266.5t151.5 181t217 103.5t255 33q37 0 82 -3t85 -11.5t66.5 -21.5t26.5 -34q0 -18 -5 -73.5t-13 -127t-20.5 -151.5t-29 -146.5t-34 -109.5t-37.5 -43q-10 0 -47 5t-98 5q-74 0 -131.5 -25.5t-57.5 -80.5q0 -51 60.5 -85t158.5 -38v94q0 4 11.5 7 t28 4t31.5 1h25q12 0 35 -1t45.5 -2t39 -4t16.5 -9l-2 -105q72 4 92 8.5t24 4.5q12 0 19.5 -24.5t7.5 -94.5q0 -10 -27.5 -14t-58.5 -4q-20 0 -35.5 1t-25.5 1q-2 -70 -2.5 -115t-4.5 -90q33 2 49.5 4t24.5 3t11 2t8 1q12 0 23 -18.5t19.5 -45t13.5 -54t5 -46.5 q0 -10 -34 -14t-78 -7t-86 -3h-60q-150 0 -275.5 11t-217 42t-142.5 85t-51 140q0 72 37 114t112 66q-117 53 -190.5 162t-73.5 256zM598 225q0 -41 43 -70.5t109 -31.5q-4 47 -6.5 94t-4.5 96h-12q-25 -2 -48.5 -4t-40.5 -11t-28.5 -25.5t-11.5 -47.5z" />
<glyph unicode="'" horiz-adv-x="512" d="M72 1364q0 16 33.5 18t111.5 2h58t74 -3t62.5 -8t26.5 -15q-4 -59 -11 -135t-15.5 -156t-13.5 -155.5t-5 -135.5q0 -14 -13 -17t-30 -3q-59 0 -115.5 1t-111.5 7q-18 2 -19 20q0 59 -5 138t-11 160t-11 156t-5 126z" />
<glyph unicode="(" horiz-adv-x="729" d="M205 571q0 123 15.5 251t53 249t100 226.5t156.5 179.5q8 8 19 8q6 0 27.5 -13.5t45 -32t41 -39t17.5 -34.5q0 -10 -8 -16q-104 -129 -153.5 -328t-49.5 -459q0 -115 11.5 -214t39 -191t72.5 -184.5t113 -190.5q6 -6 6 -16q0 -4 -3.5 -12.5t-9.5 -12.5 q-31 -39 -72.5 -69.5t-76.5 -30.5q-10 0 -25 14q-82 76 -142 182.5t-99 229t-58.5 252t-19.5 251.5z" />
<glyph unicode=")" horiz-adv-x="735" d="M18 -233q0 4 2.5 8t4.5 8q68 98 113.5 190.5t72.5 184.5t38 191.5t11 213.5q0 260 -49 459t-154 328q-6 6 -6 16q0 12 16.5 31.5t38 39t43 34t31.5 14.5t19 -8q94 -74 157.5 -179.5t101.5 -226.5t53 -249t15 -251t-19.5 -252t-59 -251.5t-99 -229t-141.5 -182.5 q-8 -6 -13.5 -10t-13.5 -4q-12 0 -38.5 15t-54.5 36.5t-48.5 42t-20.5 31.5z" />
<glyph unicode="*" horiz-adv-x="1050" d="M72 907q0 14 34 19l318 28l84 357q6 20 18 20t23 -22l119 -346l276 28q35 0 35 -18q0 -14 -16 -27l-209 -176l131 -348q4 -12 4 -16q0 -18 -15 -19q-14 0 -26 12l-285 219l-221 -229q-14 -10 -20 -10q-16 0 -17 24l57 328l-266 150q-25 14 -24 26z" />
<glyph unicode="+" d="M72 725q0 14 12 14h313q-6 57 -7 115.5t-1 122.5q0 41 1 71.5t9 30.5h256q8 0 9 -12q0 -168 -13 -328h291q14 0 14 -12q0 -6 -2 -8l-36 -162q-4 -12 -15 -12h-252v-262q0 -35 -3 -52.5t-19 -17.5h-191q-10 0 -17 12.5t-10 49t-4 101t-1 169.5h-300q-10 0 -14 14z" />
<glyph unicode="," horiz-adv-x="632" d="M72 145q0 8 14 19.5t18 15.5q33 27 75 55.5t87 53t91 40t87 15.5q20 -4 41 -45t38.5 -92t27.5 -99.5t10 -66.5q0 -6 -5 -16.5t-9 -16.5q-47 -74 -107.5 -141.5t-126.5 -132.5q-10 -10 -22 -16.5t-23 -6.5q-8 0 -19 6.5t-22.5 16.5t-18.5 21.5t-7 21.5q0 2 6 12 q47 47 68.5 73.5t21.5 43.5q0 16 -21 16q-23 0 -46 -18.5t-33 -18.5t-31 34t-42.5 79t-36.5 87t-15 60z" />
<glyph unicode="-" horiz-adv-x="651" d="M25 694q0 16 18 17q74 4 146.5 6t144.5 2q68 0 135.5 -2t134.5 -6q21 -1 21 -15q0 -12 -5.5 -41.5t-14.5 -61.5t-22.5 -57.5t-27.5 -29.5q-55 4 -108.5 6t-106.5 2q-68 0 -135.5 -2t-134.5 -6q-12 0 -20.5 20.5t-13.5 50t-8 62.5t-3 55z" />
<glyph unicode="." horiz-adv-x="681" d="M72 127q0 18 30 33q76 35 152 71.5t145 81.5q8 4 22.5 10.5t20.5 6.5q18 0 47 -42t55.5 -95.5t46 -101.5t19.5 -58q0 -12 -17.5 -26.5t-27.5 -18.5q-80 -47 -159.5 -83t-165.5 -69q-16 -6 -23 -6q-16 0 -40.5 36t-47.5 85t-40 98t-17 78z" />
<glyph unicode="/" horiz-adv-x="1134" d="M8 -164q98 188 204.5 407.5t209 440.5t195 430t161.5 379q10 27 35 35t96 8q16 0 43 -1t55.5 -4t56.5 -6t46 -7q14 -2 14 -25q0 -25 -18 -57q-66 -137 -140.5 -288t-149.5 -301.5t-148.5 -294.5t-139 -268t-121 -224.5t-92.5 -161.5q-18 -33 -31.5 -50.5t-26.5 -25.5 t-28.5 -10t-38.5 -2q-57 0 -93 1t-55 4t-26.5 8t-7.5 13z" />
<glyph unicode="0" horiz-adv-x="1343" d="M66 723q0 150 42 275.5t121.5 218t193.5 144.5t259 52t257 -54t186.5 -146.5t113.5 -215.5t39 -260q0 -150 -38 -291t-113.5 -251.5t-187.5 -177t-261 -66.5q-139 0 -252 54t-192.5 154.5t-123.5 244t-44 319.5zM535 557q0 -115 38 -188.5t95 -73.5q59 0 96 74.5 t37 187.5q0 104 -30 146t-95 42q-82 0 -111.5 -41.5t-29.5 -146.5z" />
<glyph unicode="1" horiz-adv-x="800" d="M90 1327q0 16 7 25.5t36 13.5q33 4 89.5 6t113.5 2q90 0 177 -3t167 -13q20 -4 25.5 -7.5t5.5 -17.5v-39.5t-1 -58.5t-3 -95.5t-4.5 -148.5t-6.5 -218t-8 -306q-4 -164 -6 -285t-2 -190q0 -27 -11.5 -31t-25.5 -4q-41 -2 -81 -2h-81q-76 0 -157.5 4t-141.5 8 q-23 2 -31 15.5t-12 48.5q-18 293 -33.5 623.5t-15.5 672.5z" />
<glyph unicode="2" horiz-adv-x="1003" d="M66 209q0 82 36.5 170t133.5 149q43 27 69.5 50.5t41.5 47t21.5 47t6.5 52.5q0 70 -53.5 109.5t-176.5 39.5q-23 0 -32 -2t-21 -2t-18 21.5t-6 38.5q10 256 65 481q4 14 20.5 16.5t49.5 2.5q764 0 764 -580q0 -53 -12.5 -110.5t-44 -113t-84 -107.5t-132.5 -97 q-117 -66 -174 -110t-57 -91q0 -18 6 -37q86 -6 160 -6t131 5t86 5q16 0 16 -14q0 -25 -4 -54.5t-9 -57t-10 -50t-10 -35.5q-4 -10 -23.5 -17t-58 -11t-99 -6t-148.5 -2q-74 0 -158 3t-158 3q-12 0 -26.5 3t-20.5 13q-35 68 -53 127.5t-18 118.5z" />
<glyph unicode="3" horiz-adv-x="1026" d="M20 1290q0 27 25 49.5t67 38t97 23.5t119 8q135 0 251.5 -35t203.5 -108.5t137.5 -188t50.5 -274.5q0 -86 -17.5 -152.5t-47 -114t-70.5 -80t-88 -50.5q78 -23 118.5 -81.5t40.5 -125.5q0 -135 -141 -202t-401 -67q-92 0 -118 4.5t-26 18.5q0 20 2 50t7.5 57.5t13.5 47 t18 19.5q12 0 21.5 -4t44.5 -4q94 0 134 33.5t40 68.5q0 23 -7.5 41.5t-29 31.5t-63.5 20.5t-109 7.5q-20 0 -23.5 27.5t-3.5 74.5q0 14 1 23.5t12 9.5q14 0 33.5 -1t54.5 -1q92 0 126.5 34.5t34.5 90.5q0 49 -38.5 83.5t-139.5 34.5q-35 0 -55.5 -3t-32.5 -6t-18 -6t-13 -3 q-14 0 -35.5 38t-45 96t-47 130t-42 139.5t-30 124t-11.5 82.5z" />
<glyph unicode="4" horiz-adv-x="1288" d="M90 1298q0 16 11.5 24.5t48 12.5t105.5 5t183 1q47 0 95.5 -1t97.5 -3q18 0 18 -16q0 -27 -2 -85t-6 -136t-9 -168t-10.5 -179t-11.5 -170t-10 -141q49 0 94 4.5t90 12.5q-4 109 -6 219t-2 223q0 104 2 210t6 222q2 16 53.5 21.5t180.5 5.5q57 0 93 -1t55.5 -4t25.5 -7.5 t6 -10.5q0 -127 -12 -300t-26.5 -362.5t-27 -375.5t-12.5 -338q0 -8 -25.5 -13t-64.5 -7t-86 -2h-90q-23 0 -35 24.5t-20 68.5t-10.5 105.5t-2.5 132.5q-78 -6 -144.5 -11t-129.5 -8t-130 -5t-144 -2q-33 0 -45 47q-8 37 -18.5 111.5t-22 170t-22.5 201t-20.5 205.5 t-14.5 184t-5 135z" />
<glyph unicode="5" horiz-adv-x="1058" d="M74 1352q0 20 36.5 35.5t119.5 25.5t219.5 14.5t334.5 4.5q61 0 85 -5t28 -28q23 -117 28 -246t9 -262v-4q0 -16 -25 -17q-113 0 -225.5 -6t-241.5 -20q-2 -12 -2 -25.5v-25.5v-33t2 -35q35 4 68 6t63 2q205 0 320 -83t115 -238q0 -139 -59.5 -227.5t-161 -137.5 t-236.5 -67.5t-285 -18.5q-12 0 -21 4t-14 19q-10 47 -20 92t-14 90q0 14 16 18q94 8 158.5 23.5t102.5 37t54.5 48t16.5 59.5q0 20 -5 39t-20.5 32t-45.5 20.5t-81 7.5q-41 0 -77.5 -4.5t-84.5 -18.5q-10 -4 -20 -6t-21 -2q-14 0 -14 18q-23 113 -42 237t-32.5 245.5 t-20.5 233.5t-7 198z" />
<glyph unicode="6" horiz-adv-x="1112" d="M57 586q0 201 57.5 360.5t159 272t240.5 172t303 59.5q88 0 124 -2t36 -18q0 -123 -4 -233t-11.5 -192.5t-19.5 -132t-29 -49.5q-16 0 -32.5 3t-63.5 3q-37 0 -83 -12t-87 -39.5t-71.5 -70.5t-38.5 -105q27 33 59.5 51.5t65 27.5t62.5 11t52 2q55 0 105.5 -19.5 t87.5 -59.5t59.5 -102t22.5 -146q0 -92 -30 -171t-84 -138.5t-132 -93.5t-176 -34q-117 0 -220.5 45t-182.5 129t-124 206t-45 276zM555 389q0 -47 13.5 -76.5t45.5 -29.5q29 0 49.5 13t35 34.5t20.5 45t6 46.5q0 35 -10 45t-21 10q-10 0 -26.5 -2t-36 -11t-39 -26.5 t-37.5 -48.5z" />
<glyph unicode="7" horiz-adv-x="1099" d="M49 1214v67t4 65q2 10 43 19t149.5 16.5t298 11.5t488.5 4q17 -1 17 -19q-4 -139 -10.5 -243.5t-12.5 -178t-13 -121t-14 -71.5q-158 -199 -303 -400.5t-268 -420.5q-6 -6 -16 -9q-29 2 -76 8.5t-93 15.5t-80 20.5t-34 21.5q0 8 4 14q106 186 219 371.5t242 368.5 q-139 -12 -281 -13q-55 0 -111.5 2t-107.5 7q-10 0 -18 23.5t-14.5 77.5t-9.5 143t-3 220z" />
<glyph unicode="8" horiz-adv-x="1089" d="M47 995q0 94 32 172t94.5 133.5t155.5 86t214 30.5q119 0 212 -30.5t157.5 -83t98 -124t33.5 -151.5q0 -102 -15 -173t-44 -120t-67.5 -81.5t-83.5 -59.5q96 -41 135 -108.5t39 -172.5q0 -70 -29 -138.5t-86 -122.5t-145.5 -88t-204.5 -34q-102 0 -186.5 36t-143.5 92.5 t-92 124t-33 130.5q0 100 31 166t121 101q-88 63 -140.5 164.5t-52.5 250.5zM489 324q1 -134 64 -134q29 0 44 36t15 96q0 55 -15 76.5t-44 21.5q-63 0 -64 -96zM489 711q0 -63 16.5 -105.5t51.5 -42.5t48 44t13 104q0 53 -13 82.5t-48 29.5q-41 0 -54.5 -32.5t-13.5 -79.5z " />
<glyph unicode="9" horiz-adv-x="1091" d="M59 893q0 158 40 263.5t107.5 167.5t156 88t184.5 26q254 0 372.5 -183.5t118.5 -552.5q0 -164 -38.5 -307t-113.5 -250.5t-186.5 -170t-259.5 -62.5q-72 0 -116.5 4t-70.5 10t-36 14.5t-10 16.5q0 63 3 129t8 117t12.5 83.5t15.5 32.5q14 0 34.5 -7t81.5 -7 q109 0 186 57.5t95 178.5q-45 -51 -100.5 -70.5t-134.5 -19.5q-80 0 -144.5 32.5t-109.5 91t-70 139.5t-25 179zM438 731q0 -49 19.5 -74.5t38.5 -25.5q35 0 62.5 29t35.5 90q-2 14 -7 30.5t-14.5 31.5t-25 25.5t-35.5 10.5q-27 0 -50.5 -32t-23.5 -85z" />
<glyph unicode=":" horiz-adv-x="700" d="M82 127q0 10 6 17.5t25 15.5q74 35 149.5 71.5t145.5 81.5q10 4 23.5 10.5t19.5 6.5q18 0 46.5 -42t55.5 -95.5t46 -101.5t19 -58q0 -12 -17 -26.5t-28 -18.5q-80 -47 -159.5 -83t-163.5 -69q-18 -6 -25 -6q-16 0 -39.5 36t-47 85t-40 98t-16.5 78zM82 758q0 10 6 18 t25 17q74 33 149.5 70.5t145.5 80.5q10 6 23.5 12.5t19.5 6.5q18 0 46.5 -42t55.5 -95.5t46 -101.5t19 -60q0 -10 -17 -24.5t-28 -21.5q-80 -47 -159.5 -81.5t-163.5 -69.5q-10 -2 -15.5 -3t-9.5 -1q-16 0 -39.5 36t-47 84t-40 97t-16.5 78z" />
<glyph unicode=";" horiz-adv-x="698" d="M80 758q0 10 6 18t25 17q74 33 149.5 70.5t145.5 80.5q10 6 23.5 12.5t21.5 6.5q18 0 45.5 -42t55.5 -95.5t47 -101.5t19 -60q0 -10 -18 -24.5t-29 -21.5q-80 -47 -159.5 -81.5t-163.5 -69.5q-20 -4 -25 -4q-16 0 -39.5 36t-47 84t-40 97t-16.5 78zM84 145q0 8 13.5 19.5 t17.5 15.5q33 27 74.5 55.5t87 53t91.5 40t87 15.5q20 -4 41.5 -45t38 -92t26.5 -99.5t10 -66.5q0 -6 -5 -16.5t-9 -16.5q-47 -74 -107.5 -141.5t-125.5 -132.5q-23 -23 -43 -23q-18 0 -44 22.5t-26 43.5q0 4 8 12q47 47 67.5 73.5t20.5 43.5q0 16 -20 16q-23 0 -46.5 -18.5 t-33.5 -18.5t-30.5 34t-41 79t-36 87t-15.5 60z" />
<glyph unicode="&#x3c;" horiz-adv-x="1009" d="M72 739q0 14 10 21l760 422q12 4 18 4q18 0 21 -15l57 -176q0 -12 -14 -18l-596 -311l587 -308q8 -2 9 -14q0 -8 -4 -12l-103 -99q-8 -8 -14 -8q-4 0 -12 6l-680 361q-10 6 -15 18z" />
<glyph unicode="=" d="M72 924q0 16 12 16h858q14 0 14 -14q0 -6 -2 -8l-36 -179q-2 -14 -15 -14h-797q-10 0 -14 16zM111 537q0 12 10 12h786q12 0 13 -10q0 -8 -2 -11l-35 -141q-4 -12 -13 -12h-729q-12 0 -12 14z" />
<glyph unicode="&#x3e;" horiz-adv-x="1009" d="M72 995l57 176q0 14 21 15q2 0 18 -4l760 -422q10 -6 10 -21l-25 -129q-4 -12 -14 -18l-680 -361q-10 -6 -12 -6q-4 0 -17 8l-100 99q-6 6 -6 12q0 10 10 14l586 308l-596 311q-12 8 -12 18z" />
<glyph unicode="?" horiz-adv-x="978" d="M63 918q0 117 10.5 242.5t55.5 250.5q4 12 20.5 15.5t47.5 3.5q160 0 295 -25t233 -85t153.5 -160.5t55.5 -250.5q0 -135 -57.5 -222t-165.5 -159q-90 -59 -116 -106t-26 -80q0 -16 7.5 -28.5t14.5 -20.5t14 -15.5t7 -15.5q0 -10 -6 -16t-24 -15q-121 -53 -189.5 -75.5 t-109.5 -22.5q-12 0 -20.5 4t-10.5 8q-63 57 -92 123t-29 152q0 72 28.5 128t65.5 99q33 37 45.5 63.5t12.5 49.5q0 63 -41 88.5t-101 25.5q-16 0 -31.5 -2t-25.5 -2t-15.5 7.5t-5.5 40.5zM205 0q0 10 6 17.5t25 17.5q74 33 149.5 70.5t144.5 80.5q10 4 23.5 11.5t19.5 7.5 q18 0 47 -43t55.5 -96.5t46 -101.5t19.5 -58q0 -18 -42 -46t-101 -56.5t-121.5 -54t-103.5 -40.5q-18 -6 -25 -6q-16 0 -39.5 36t-47 85t-40 98t-16.5 78z" />
<glyph unicode="@" horiz-adv-x="1368" d="M53 670q0 182 53.5 308t142.5 204t205.5 112.5t241.5 34.5q152 0 267.5 -28.5t193.5 -95t118 -175t40 -270.5q0 -78 -13.5 -163t-47 -154.5t-91 -114.5t-143.5 -45q-137 0 -193 67q-29 -35 -67.5 -51t-93.5 -16q-35 0 -77 17t-78 55t-60.5 98.5t-24.5 144.5 q0 141 60.5 218t170.5 77q41 0 69 -7t50 -24q0 37 23 37q59 0 107 -9t48 -22q-6 -51 -7 -96t-1 -86q0 -47 2 -87t9.5 -69.5t22.5 -47t42 -17.5q47 0 64.5 48t17.5 157q0 111 -39 181.5t-100.5 109t-137 53t-147.5 14.5t-141.5 -18.5t-123 -65.5t-86 -131t-32.5 -215 q0 -102 22.5 -191.5t66.5 -159t110.5 -116.5t152.5 -65q8 -2 11.5 -8.5t3.5 -12.5q0 -66 -6.5 -108.5t-39.5 -45.5q-143 20 -248.5 85t-176 166.5t-105.5 235.5t-35 292zM621 604q0 -57 26.5 -97t59.5 -40t51 40t18 99q0 39 -16.5 61.5t-52.5 22.5q-47 0 -66.5 -25.5 t-19.5 -60.5z" />
<glyph unicode="A" horiz-adv-x="1271" d="M10 -14q0 8 4 20q82 338 169 669t192 660q4 10 14 16.5t37 9.5t73 4t122 1q106 0 174.5 -2t108.5 -6t55.5 -11.5t17.5 -15.5q80 -348 148.5 -686t134.5 -682v-6q0 -14 -17 -14q-117 0 -232.5 2t-232.5 12q-10 2 -16 7t-8 28l-13 133q-29 -27 -69.5 -48.5t-50.5 -21.5 q-18 0 -36 29t-24 49l-18 -119q-4 -16 -10.5 -26.5t-28 -15.5t-66.5 -7t-125 -2q-166 0 -234.5 4t-68.5 19zM559 328q57 41 81 55t40 14q12 0 26.5 -10t45.5 -51q-20 98 -41 194.5t-49 194.5q-35 -98 -58.5 -196.5t-44.5 -200.5z" />
<glyph unicode="B" horiz-adv-x="1280" d="M57 1243q0 55 8.5 81t18.5 34q47 35 147.5 49t268.5 14q117 0 229.5 -22.5t216.5 -81.5q131 -78 203 -210t72 -314q0 -121 -42 -223.5t-149 -166.5q72 -23 122 -73.5t50 -141.5q0 -88 -45 -137t-110.5 -72.5t-140.5 -28.5t-136 -5q-84 -2 -163 -4t-165 -2q-94 0 -204 6 q-59 2 -79 32.5t-22 83.5q-4 125 -12 284t-19.5 320.5t-23.5 313t-25 264.5zM621 160.5q0 -23.5 2 -45.5q10 -2 20.5 -3t26.5 -1q18 0 41.5 6t45 19.5t37 35t15.5 51.5q0 37 -20.5 57.5t-49 32t-59.5 13.5t-53 2q-6 -59 -6 -119v-48.5zM627 408q8 -2 26 -2q31 0 61.5 8 t57.5 26.5t44.5 48t17.5 72.5q0 68 -34 116t-106 48q-14 0 -28.5 -2t-28.5 -8q-6 -76 -8 -153t-2 -154z" />
<glyph unicode="C" horiz-adv-x="1234" d="M72 688q0 152 53 284t148.5 230t229.5 155.5t294 57.5q70 0 119 -3t84.5 -7t61 -11.5t48.5 -15.5q14 -6 26.5 -58t19.5 -131t11 -176.5t4 -195.5q0 -16 -18 -16q-16 0 -52 9t-120 9q-74 0 -131 -22.5t-97 -62.5t-60.5 -94t-20.5 -118q0 -59 20.5 -114.5t58 -96.5 t93 -65.5t125.5 -24.5q37 0 59.5 4t37.5 8.5t23.5 8.5t16.5 4q10 0 17 -9.5t7 -25.5q0 -10 -1 -55t-7 -115q0 -16 -26.5 -31.5t-68.5 -28t-96 -19.5t-112 -7q-141 0 -275 40t-239.5 128t-169 227t-63.5 338z" />
<glyph unicode="D" horiz-adv-x="1257" d="M84 934q0 98 1 200.5t7 200.5q2 29 11.5 39t25.5 15q37 6 102.5 9t180.5 3q180 0 325.5 -50.5t246.5 -141.5t156.5 -218t55.5 -282q0 -203 -66.5 -347.5t-177 -238.5t-252 -138t-290.5 -44q-37 0 -85.5 6t-92.5 18t-76.5 27.5t-38.5 34.5q-14 223 -23.5 446t-9.5 461z M560 299q0 -41 1 -82q31 0 70 17.5t73.5 49t58 78t23.5 101.5q0 98 -55 159.5t-162 65.5q-6 -80 -8 -156.5t-1 -150.5v-82z" />
<glyph unicode="E" horiz-adv-x="1124" d="M80 1292q0 18 28.5 31.5t103.5 23t205 14.5t335 5h295q16 0 16 -16q0 -113 -6 -219.5t-15.5 -190.5t-21.5 -135t-23 -51q-20 0 -96 6t-237 6q-4 -35 -4.5 -74t-0.5 -74q82 0 166 8.5t131 8.5q35 0 47.5 -7t12.5 -22q-8 -47 -19.5 -88t-27.5 -88q-10 -22 -173 -22h-14 h-60.5t-66.5 2q-4 -29 -6 -73t-2 -85q76 -6 158 -6q43 0 87 3t87 3q16 0 16 -29q0 -72 -2 -123t-8 -104q-2 -8 -20.5 -15.5t-66.5 -13.5t-130 -9t-211 -3q-117 0 -191.5 1t-117.5 6t-60.5 17.5t-19.5 34.5q-12 78 -23.5 198t-20.5 255t-17.5 274.5t-14.5 255t-9 196.5t-3 99 z" />
<glyph unicode="F" horiz-adv-x="1103" d="M84 1317q2 14 55.5 23.5t143.5 15.5t211.5 8t261.5 2h295q16 0 16 -18q-14 -276 -27.5 -434t-40.5 -158q-66 0 -137 5t-155 7q-4 -33 -5.5 -65.5t-1.5 -65.5q170 0 244 -6t74 -23q-6 -113 -47 -209q-4 -10 -37 -15t-86 -5q-35 0 -73 2t-81 8q-2 -23 -3 -47.5t-1 -48.5 q0 -74 4 -148.5t8 -140.5q0 -16 -42 -24.5t-103 -12.5t-128 -5t-112 -1q-57 0 -98 2t-43 14q-12 88 -23.5 218.5t-21.5 274.5t-19.5 290.5t-15.5 266.5t-9 199t-3 91z" />
<glyph unicode="G" horiz-adv-x="1318" d="M61 717q0 133 47.5 260t141.5 225t231 157.5t320 59.5q102 0 165.5 -6t110.5 -16q10 -2 20.5 -40t17.5 -95.5t12.5 -126t8.5 -133t5 -116.5t2 -77q0 -18 -19 -18q-6 0 -23.5 3t-43 7t-55 7t-60.5 3q-86 0 -141.5 -31.5t-88 -78t-45 -98.5t-12.5 -95q0 -39 10.5 -79 t34 -75t60.5 -63.5t90 -42.5q4 63 6 109t2 87q0 59 -5 83t-5 44q0 10 21.5 16.5t55 9.5t76.5 4t86 1h156q23 0 27 -9t4 -28q0 -18 -3 -84.5t-8.5 -147.5t-12.5 -164t-13 -136q-2 -12 -31.5 -24.5t-81 -23t-117 -17.5t-139.5 -7q-168 0 -315 43t-256 134t-172.5 234.5 t-63.5 344.5z" />
<glyph unicode="H" horiz-adv-x="1501" d="M90 1339q0 14 24.5 21.5t59.5 11.5t73 5t66 1q16 0 47 -1t66 -1t66.5 -1t50.5 -1q53 0 82.5 2t56.5 4q18 0 18 -18q0 -80 -1 -179.5t-4 -204t-8 -207.5t-13 -193q41 41 63.5 56t32.5 15q8 0 21.5 -20.5t39.5 -75.5v809q0 12 25 19.5t60.5 10.5t72.5 4t62 1q20 0 79.5 -1 t122 -5.5t110.5 -10.5t48 -18v-309q0 -141 -2 -265t-8 -247t-18.5 -257t-32.5 -296q-2 -14 -19 -15q-41 0 -98 1t-119.5 2t-127 4.5t-116.5 7.5q-16 0 -16 18q0 -2 -2 19.5t-4 55.5t-5 76t-5 80.5t-4.5 68.5t-2.5 40q-66 -72 -87 -89t-23 -17q-6 0 -14.5 14t-16.5 32.5 l-16 37t-10 24.5q-2 -86 -7.5 -159.5t-15.5 -170.5q-4 -16 -41 -20t-78 -4q-137 0 -215 1t-116.5 4t-48 8t-9.5 13l-31 791q-8 199 -10 325t-2 203z" />
<glyph unicode="I" horiz-adv-x="800" d="M96 1327q0 16 6.5 25.5t36.5 13.5q31 4 88.5 6t114.5 2q90 0 177 -3t167 -13q18 -4 24.5 -7.5t6.5 -17.5q0 -18 -1 -39.5t-2 -58.5t-3 -95.5t-4.5 -148.5t-5.5 -218t-7 -306q-4 -164 -6 -285t-2 -190q0 -27 -12 -31t-25 -4q-41 -2 -82 -2h-82q-74 0 -155.5 4t-141.5 8 q-23 2 -32 15.5t-11 48.5q-20 293 -34.5 623.5t-14.5 672.5z" />
<glyph unicode="J" horiz-adv-x="1120" d="M0 135q0 8 22.5 35t53 55.5t60.5 50t44 21.5q10 0 13 -6q27 -53 54 -73.5t68 -20.5q66 0 107 78.5t41 228.5q0 162 -3 279.5t-7 210.5t-7.5 171t-3.5 158q0 23 7.5 33t31.5 10q180 0 294 -2t177.5 -6t86 -10.5t22.5 -16.5q0 -252 -9.5 -443.5t-25.5 -330.5t-39.5 -231.5 t-50.5 -143.5q-74 -135 -201 -200.5t-284 -65.5q-174 0 -275.5 41t-155.5 127q-8 10 -14 22.5t-6 28.5z" />
<glyph unicode="K" horiz-adv-x="1378" d="M63 1348q0 12 29 19t94.5 10t172 4t259.5 1q18 0 19 -18q0 -23 -1 -42t-1 -38q0 -129 5 -260t15 -254q59 137 120 288.5t110 311.5q2 12 18 12q27 0 72 -2t97 -5t104.5 -8t95.5 -11t70.5 -13.5t27.5 -15.5q0 -16 -8 -39q-33 -96 -65.5 -178t-71.5 -155.5t-84 -142.5 t-101 -140q84 -160 157 -326t130 -356q0 -23 -54 -37t-130 -22.5t-156 -11.5t-131 -3q-14 0 -18 10q-35 119 -80 240t-99 231q-2 -41 -2 -77.5v-77.5q0 -121 7 -244q0 -12 -9.5 -20.5t-35 -11.5t-73.5 -4t-128 -1h-141.5t-100.5 4q-16 2 -25.5 15.5t-15.5 53.5t-11 111.5 t-11 188.5q-10 174 -19.5 321.5t-15.5 272.5t-10.5 228.5t-4.5 191.5z" />
<glyph unicode="L" horiz-adv-x="1013" d="M82 1317q0 10 36 19.5t92 16.5t126 12t136.5 9t122.5 6t87 2q18 0 18 -16q-8 -213 -11 -412.5t-3 -394.5v-148.5t2 -148.5q18 -2 37.5 -2h40.5q98 0 147.5 6t71.5 6q19 0 19 -18q-4 -145 -19 -258q-2 -14 -105.5 -27.5t-320.5 -13.5h-121.5t-125 2t-97.5 7t-39 13 q-12 88 -24.5 219.5t-23.5 276.5t-19.5 291.5t-14.5 265.5t-9 198t-3 89z" />
<glyph unicode="M" horiz-adv-x="1538" d="M98 813q0 139 2 275.5t11 271.5q0 10 14 16t34.5 9.5t45 4.5t47.5 1q33 0 69.5 -2.5t96.5 -8.5q23 -4 34 -11t21 -23q55 -113 120.5 -224.5t137.5 -214.5q72 98 137.5 213t116.5 232q6 23 37 28q49 6 106.5 10.5t110.5 4.5q117 0 162 -7.5t45 -27.5q6 -125 8 -249t2 -249 q0 -209 -5 -421t-11 -418q-2 -35 -22.5 -41.5t-61.5 -6.5q-109 0 -175.5 1t-108.5 3.5t-67.5 6.5t-52.5 8q-27 6 -32 14t-5 39q0 117 2.5 196t6.5 152q-35 -109 -79 -210t-93 -187q-4 -8 -8.5 -12t-12.5 -6.5t-20.5 -3.5t-34.5 -1q-39 0 -50.5 4.5t-23.5 22.5 q-63 90 -116.5 189.5t-96.5 216.5q4 -43 6 -111t2 -188q0 -70 -6 -93.5t-16 -25.5q-16 -6 -60.5 -9.5t-146.5 -3.5q-35 0 -45 9.5t-10 31.5q-6 193 -10.5 393.5t-4.5 401.5z" />
<glyph unicode="N" horiz-adv-x="1269" d="M90 1071v234q0 37 14.5 47t55.5 14q84 4 138 6t87 2q49 0 72.5 -7t40.5 -24q49 -47 97 -104t92 -118.5t82 -122t69 -113.5q0 104 -3.5 210.5t-3.5 209.5q0 29 2.5 41t10.5 18q4 2 9 4t18.5 3t38 1h67.5q66 0 103.5 -1t56 -3t23.5 -7t7 -11q2 -10 4.5 -24.5t3.5 -46.5 t1 -89v-154q0 -123 2 -246.5t2 -263.5q0 -199 -1 -322.5t-5 -154.5q-4 -47 -8.5 -62.5t-12.5 -21.5q-6 -4 -13 -6t-25.5 -5t-52.5 -4t-91 -1q-80 0 -127 2t-75 11t-45 28.5t-40 56.5q-51 82 -125 182.5t-149 192.5q2 -76 4 -134.5t5 -105.5t5 -86t2 -78q0 -20 -4 -33.5 t-18.5 -20.5t-43 -10t-77.5 -3q-47 0 -78 1t-49.5 3t-27.5 7t-15 11q-12 10 -14.5 44t-2.5 71v110.5t-1 172t-2 215t-2 239.5t-1 246z" />
<glyph unicode="O" horiz-adv-x="1343" d="M66 723q0 150 42 275.5t121.5 218t193.5 144.5t259 52t257 -54t186.5 -146.5t113.5 -215.5t39 -260q0 -150 -38 -291t-113.5 -251.5t-187.5 -177t-261 -66.5q-139 0 -252 54t-192.5 154.5t-123.5 244t-44 319.5zM535 557q0 -115 38 -188.5t95 -73.5q59 0 96 74.5 t37 187.5q0 104 -30 146t-95 42q-82 0 -111.5 -41.5t-29.5 -146.5z" />
<glyph unicode="P" horiz-adv-x="1382" d="M63 1319q0 20 41 38.5t109 33t157 21.5t187 7q180 0 324.5 -52t246 -145.5t155.5 -223t54 -283.5q0 -139 -51 -238.5t-138 -165t-204 -100.5t-248 -43v-170q0 -12 -20.5 -20.5t-54 -11.5t-74.5 -4t-82 -1h-113h-74.5t-49 1t-38.5 3q-8 2 -21 79t-27.5 199t-29 273.5 t-24.5 302t-17.5 283.5t-7.5 217zM696 381q104 0 165 54t61 136q0 80 -53.5 116t-114.5 36q-33 0 -58 -8v-334z" />
<glyph unicode="Q" horiz-adv-x="1351" d="M66 723q0 150 42 275.5t121.5 218t193.5 144.5t259 52q162 0 274.5 -60.5t184 -156.5t104.5 -217t33 -240q0 -166 -50 -322.5t-151 -273.5q45 6 85 18.5t81 28.5q8 4 17 5q10 -1 18 -9q41 -59 70.5 -122.5t52.5 -135.5q2 -4 2 -12q0 -14 -14 -22q-98 -45 -203 -76 t-217 -51q-10 0 -24.5 3t-16.5 13q-6 51 -25.5 98t-52.5 96q-73 -28 -166 -28h-6q-139 0 -252 54t-192.5 155.5t-123.5 245t-44 319.5zM535 557q0 -115 38 -188.5t95 -73.5q59 0 96 74.5t37 187.5q0 104 -30 146t-95 42q-82 0 -111.5 -41.5t-29.5 -146.5z" />
<glyph unicode="R" horiz-adv-x="1441" d="M90 1319q0 20 38 37.5t101.5 30t147.5 18.5t176 6q190 0 342 -48t256 -130t160.5 -189.5t56.5 -226.5q0 -193 -77 -314.5t-212 -174.5q55 -59 116.5 -134t117.5 -163q4 -6 6 -11.5t2 -11.5q0 -14 -16 -16q-80 -37 -154 -64.5t-166 -50.5q-12 -4 -27 -4q-20 0 -32 21 q-70 129 -201 239v-135q0 -12 -20.5 -20.5t-54.5 -11.5t-74.5 -4t-81.5 -1h-154.5t-101.5 4q-23 2 -36.5 52.5t-25.5 170t-26.5 317t-36.5 494.5q-4 39 -7.5 87.5t-7.5 94.5t-6 82.5t-2 55.5zM725 381q104 8 163.5 62.5t59.5 144.5q0 68 -51 100.5t-117 32.5q-31 0 -55 -6 v-334z" />
<glyph unicode="S" horiz-adv-x="1003" d="M72 942q0 102 36.5 191.5t117.5 156t212 104.5t320 38q47 0 75.5 -5.5t32.5 -21.5q14 -66 26.5 -137.5t22 -142t13.5 -133t4 -105.5q0 -16 -25 -17q-8 0 -17 2t-26 2q-84 0 -118.5 -33.5t-34.5 -82.5q0 -23 6 -44.5t28 -49.5q59 -76 94 -151t35 -155q0 -106 -43 -182 t-118.5 -125t-181 -71.5t-228.5 -22.5q-37 0 -53.5 4t-22.5 27q-10 37 -17 84t-7 96q0 16 26.5 15t63.5 3q76 8 120 35t44 76q0 47 -32 87t-108 99q-123 98 -184 208t-61 251z" />
<glyph unicode="T" horiz-adv-x="1175" d="M37 1104q0 72 1 134t5 134q0 18 18 19q90 4 180.5 4h182.5q350 0 694 -19q19 0 19 -18q4 -70 5 -129.5t1 -126.5q0 -80 -2 -160l-4 -160q0 -18 -19 -18h-129.5t-130.5 -2q-4 -70 -10 -162t-15.5 -195.5t-19.5 -212t-22 -208.5q0 -29 -150 -29q-76 0 -133 3t-111 7 q-10 2 -14 11.5t-6 39.5q-6 199 -20.5 387.5t-30.5 362.5q-66 4 -132.5 4h-132.5q-18 0 -18 18q-6 156 -6 316z" />
<glyph unicode="U" horiz-adv-x="1243" d="M72 1274q0 35 9 50t38 19q84 14 147.5 17.5t122.5 3.5h102.5t131.5 -2q53 -2 72.5 -11.5t19.5 -60.5q0 -223 -6.5 -458.5t-6.5 -458.5q0 -35 13.5 -63.5t58.5 -28.5q31 0 47.5 14t23.5 37.5t9 50.5t2 51q0 209 -4 427t-4 454q0 39 23.5 49t109.5 10q57 0 94 -2t58.5 -5 t31 -8t13.5 -13q4 -10 4 -29q0 -70 -4 -179.5t-9.5 -228t-9.5 -233.5t-4 -195q0 -117 -21.5 -214t-81 -166.5t-163 -108.5t-266.5 -39q-289 0 -416 131t-127 395q0 106 -1 224t-3 227.5t-3 200t-1 143.5z" />
<glyph unicode="V" horiz-adv-x="1083" d="M16 1348q0 12 7.5 19t27 10t54 4t88.5 1h104h93t59.5 -1t37 -3t25.5 -4q27 -8 29 -14q6 -31 16 -80t24.5 -105.5t33 -119t40.5 -121.5q14 43 32 96t33 111.5t29.5 116t24.5 108.5q2 8 34 14t72 8.5t79.5 3.5t58.5 1h20q29 -1 29 -15q0 -6 -2 -19t-4 -24 q-53 -311 -139 -651t-191 -670q-4 -16 -54 -25t-183 -9q-39 0 -75 5t-44 25q-109 319 -195 641t-157 647q-2 10 -4.5 24.5t-2.5 25.5z" />
<glyph unicode="W" horiz-adv-x="1781" d="M16 1333q0 23 17 29q12 4 70.5 6t123.5 2h88q94 0 136.5 -3t66.5 -7q20 -6 23 -12q10 -59 32.5 -146.5t81.5 -216.5q14 41 29.5 89t30 94t25 89t16.5 74q4 33 63 35q45 4 103.5 5t111.5 1q61 0 117.5 -1t91.5 -5q29 -4 38 -7t9 -11q12 -63 38 -149.5t79 -213.5 q37 98 59.5 198.5t36.5 176.5q0 10 10.5 15t20.5 7q25 2 80 5.5t98 3.5h35q18 -1 18 -15q0 -4 -1 -17t-1 -24q-45 -344 -116.5 -674.5t-163.5 -658.5q0 -16 -52.5 -25.5t-187.5 -9.5q-35 0 -72.5 5t-44.5 26q-51 178 -102 351t-86 347q-37 -174 -90 -346t-117 -348 q0 -16 -52 -25.5t-185 -9.5q-37 0 -75 5t-44 26q-109 324 -200 650.5t-157 668.5q0 4 -1 7t-1 9z" />
<glyph unicode="X" horiz-adv-x="1236" d="M8 1317q0 25 33 31q86 10 196.5 14t213.5 4q20 0 37.5 -1t21.5 -11q20 -90 55 -176t76 -172q41 82 74 169t57 179q2 8 17.5 10t35.5 2h49q117 0 186.5 -2t106.5 -7t49.5 -12.5t12.5 -17.5v-4q0 -2 -1 -4t-1 -4q-72 -182 -160 -348t-188 -322q92 -156 163.5 -321.5 t133.5 -343.5q0 -12 -48.5 -22.5t-111 -18t-126 -11.5t-93.5 -4h-56q-14 0 -30.5 4t-20.5 25q-18 63 -41.5 137t-46.5 123q-25 -55 -46 -129t-38 -137q-6 -20 -22 -21q-23 0 -64 1t-90 4t-100.5 6.5t-92 9.5t-67.5 14t-27 19q61 180 134 346t165 319q-102 154 -184 313.5 t-154 325.5q-8 14 -8 33z" />
<glyph unicode="Y" horiz-adv-x="1220" d="M6 1317q0 29 25 33q33 2 87 6t117.5 7t128 5t115.5 2q12 0 24.5 -2t16.5 -8q25 -92 59.5 -178t71.5 -170q35 80 67 161.5t62 172.5q2 8 8.5 13t19.5 8t36.5 4t62.5 1q25 0 65 -1t83 -4t81.5 -8t61.5 -11q16 -6 16 -27q0 -16 -4 -23q-78 -170 -162.5 -330.5t-177.5 -320.5 q6 -78 8.5 -158.5t2.5 -158.5q0 -88 -2 -174t-9 -172q0 -18 -18 -19q-61 -4 -120.5 -6t-121.5 -2q-61 0 -121.5 2t-119.5 6q-18 2 -19 19q4 86 6 172t2 172q0 78 -2 159.5t-6 159.5q-96 154 -188 312.5t-152 330.5q-2 8 -3 14.5t-1 12.5z" />
<glyph unicode="Z" horiz-adv-x="1177" d="M66 1059q0 59 2 133t8 135q4 23 12 29t35 10q55 8 164.5 14t247 12t287 7.5t284.5 1.5q18 -1 18 -19q0 -92 -5 -190t-13 -185t-18.5 -153t-18.5 -90q-156 -117 -300 -242t-273 -270q31 0 61.5 -1t60.5 -1q184 0 286 11t130 11q14 0 17.5 -21.5t3.5 -43.5q0 -47 -4 -105.5 t-9 -105.5q0 -10 -27.5 -17.5t-70.5 -10.5t-96 -4t-109 -1q-39 0 -118.5 2t-167.5 5t-168 5t-117 2q-16 0 -19.5 24t-3.5 77v153q0 29 3.5 46.5t15.5 35.5q96 131 195.5 238.5t199.5 202.5q-41 4 -81 5t-103 1q-70 0 -138.5 -2t-138.5 -4q-16 0 -20 12t-6 27q-4 66 -5 132 t-1 134z" />
<glyph unicode="[" horiz-adv-x="677" d="M166 666q0 233 4 467.5t20 459.5q2 12 13.5 20.5t40 12.5t77 6t121.5 2q43 0 86 -2t88 -6q12 -2 21.5 -10t9.5 -23q0 -41 -3 -84t-7 -88q-2 -12 -9 -21t-22 -9q-16 2 -31.5 3t-31.5 1q-14 0 -29.5 -1t-32.5 -3q-12 -182 -16 -360.5t-4 -362.5q0 -211 5 -427t15 -448 q16 -2 33.5 -2h36.5q18 0 36.5 1t35.5 1q23 0 26.5 -11t3.5 -34q0 -25 -1 -56.5t-5 -61t-12.5 -51t-22.5 -23.5q-49 -6 -97 -8.5t-95 -2.5q-121 0 -175.5 16.5t-54.5 76.5q-6 231 -15 493t-9 535z" />
<glyph unicode="\" horiz-adv-x="1134" d="M6 1493q0 23 14 25q18 4 46 7t57 6t55.5 4t42.5 1q72 0 96.5 -8t34.5 -35q70 -170 162 -379t194.5 -430t209 -440t204.5 -408q0 -8 -7 -13t-27.5 -8t-56.5 -4t-93 -1q-23 0 -38 2t-27.5 10t-25.5 25.5t-32 50.5q-37 61 -92 161.5t-120.5 224.5t-139.5 268t-149.5 294.5 t-149.5 300t-141 289.5q-16 37 -17 57z" />
<glyph unicode="]" horiz-adv-x="673" d="M18 -252q0 23 4.5 34t26.5 11q16 0 34.5 -1t37.5 -1h35.5t33.5 2q10 231 15.5 447.5t5.5 427.5q0 184 -4 362t-17 361q-16 2 -31.5 3t-29.5 1q-16 0 -31.5 -1t-31.5 -3q-14 0 -21.5 9t-9.5 21q-4 45 -7 88t-3 84q0 14 9 22.5t21 10.5q45 4 88 6t86 2q74 0 122 -2t77 -6 t40 -12t13 -21q16 -225 20.5 -459.5t4.5 -467.5q0 -272 -9.5 -534.5t-15.5 -493.5q0 -59 -54 -76t-175 -17q-47 0 -95.5 2.5t-97.5 8.5q-14 2 -22 23.5t-12.5 51t-5.5 61.5t-1 56z" />
<glyph unicode="^" horiz-adv-x="776" d="M51 893q0 2 4 14q45 117 102.5 227.5t116.5 194.5q8 10 26.5 17.5t40 11.5t43.5 6t38 2q14 0 20 -8q78 -104 146.5 -226t130.5 -260q6 -12 6 -18q0 -16 -21.5 -29.5t-51 -25t-62.5 -17.5t-58 -6q-10 0 -18 12q-37 88 -78 169t-88 153q-90 -147 -164 -328q-4 -10 -14 -10 q2 0 -16.5 11.5t-41 27.5t-42 37.5t-19.5 44.5z" />
<glyph unicode="_" horiz-adv-x="966" d="M8 -123q0 16 10 17q47 4 167 6t288 2h160t138.5 -1t106.5 -3t66 -4q12 -1 12 -13t-3 -41.5t-9 -61.5t-14 -57.5t-19 -31.5q-35 4 -155.5 7t-278.5 3t-278.5 -3t-161.5 -7q-8 0 -13.5 21.5t-8.5 51t-5 61.5t-2 54z" />
<glyph unicode="`" horiz-adv-x="616" d="M72 1303q0 104 6 158.5t43 54.5q20 0 33.5 -8.5t56.5 -28.5q76 -35 152.5 -66t148.5 -53q31 -10 31 -35q0 -27 -2 -54.5t-8.5 -50t-15.5 -37t-21 -14.5q-18 0 -39 5q-98 16 -187.5 39.5t-173.5 60.5q-10 4 -17 11t-7 18z" />
<glyph unicode="a" horiz-adv-x="1052" d="M20 10v10.5t3 16.5q59 258 128.5 513t147.5 509q4 12 14.5 18t33 9.5t61 4.5t100.5 1q86 0 142.5 -2.5t88 -7.5t45 -12t17.5 -17q61 -270 115.5 -533.5t101.5 -531.5q0 -33 -31 -33q-92 0 -177 1t-177 11q-12 4 -20.5 10.5t-12.5 30.5q-4 18 -5 32.5t-3 41.5 q-25 -16 -51.5 -27.5t-32.5 -11.5q-10 0 -24.5 7t-20.5 18l-8 -43q-2 -18 -6.5 -28.5t-21.5 -16t-55 -6.5t-106 -1q-80 0 -128 1t-74.5 5.5t-35 11.5t-8.5 19zM467 276q47 29 62.5 35t33.5 6q12 0 35 -10q-10 63 -24.5 116.5t-36.5 133.5q-20 -66 -37 -136.5t-33 -144.5z " />
<glyph unicode="b" horiz-adv-x="1060" d="M53 979q0 49 9.5 72.5t21.5 31.5q37 29 117 41.5t213 12.5q115 0 219 -30t183 -92.5t126 -157.5t47 -226q0 -90 -27.5 -167t-99.5 -130q49 -23 81 -64t32 -108q0 -74 -37 -115t-92 -61.5t-119.5 -24.5t-120.5 -4q-55 -2 -117.5 -3t-119.5 -1h-72t-88 4q-57 4 -74.5 30.5 t-19.5 78.5q0 66 -5.5 151.5t-12.5 180t-15 188.5t-14.5 174t-10.5 138t-4 81zM524 123q3 -2 21 -2q12 0 26.5 3t28.5 11t23.5 21.5t9.5 33.5t-10.5 33t-25.5 19t-34.5 9t-36.5 3q0 -18 -1 -36.5t-1 -37.5v-57zM528 350q45 0 85 22t42 81q0 45 -22.5 76.5t-69.5 31.5h-14 t-14 -2q-4 -47 -5.5 -104.5t-1.5 -104.5z" />
<glyph unicode="c" horiz-adv-x="1024" d="M66 551q0 121 43 226.5t120.5 184t184 123.5t235.5 45q55 0 93 -2t66 -6t47 -9t38 -13q14 -6 25.5 -48t18.5 -105.5t10 -141.5t3 -156q0 -31 -30 -31q-12 0 -39 7.5t-95 7.5q-106 0 -163.5 -60.5t-57.5 -152.5q0 -43 14.5 -81t41 -67.5t66.5 -47t89 -17.5q27 0 44.5 3 t28.5 6t18 6t16 3q12 0 24.5 -12t12.5 -31q0 -10 -1 -52t-6 -83q-2 -16 -23.5 -30.5t-57 -25.5t-79.5 -18.5t-91 -7.5q-115 0 -221.5 32t-190.5 102.5t-134 182t-50 269.5z" />
<glyph unicode="d" horiz-adv-x="1042" d="M74 739q0 78 2 159t6 157q0 25 13.5 38t44 19t80.5 7t124 1q143 0 259 -40t197 -112.5t125 -175t44 -225.5q0 -162 -53.5 -277.5t-140.5 -190t-199.5 -109.5t-231.5 -35q-31 0 -71 5t-76.5 15.5t-64.5 24.5t-34 31q-10 172 -17 348t-7 360zM475 257.5q0 -26.5 2 -52.5 q20 2 46 16.5t46.5 36t34.5 51t14 66.5q0 139 -137 155q-6 -109 -6 -217v-55.5z" />
<glyph unicode="e" horiz-adv-x="935" d="M70 1018q0 18 22.5 31.5t83 23.5t163.5 15.5t267 5.5h230q30 0 30 -31q0 -90 -7 -176t-17.5 -153.5t-21.5 -108.5t-21 -41t-27.5 1t-46.5 3t-70 3t-100 1q-2 -16 -2 -43v-43q59 2 97 4t62.5 4t40 3t33.5 1q43 0 43 -43q-4 -31 -16 -72t-22 -57q-20 -27 -160 -27h-84 q-2 -18 -3 -42.5t-1 -47.5q29 -4 54.5 -4h51.5q33 0 64.5 3t70.5 3q20 0 25.5 -12t5.5 -29q0 -57 -2 -99t-8 -83q-2 -8 -17.5 -16t-54.5 -14.5t-105.5 -9.5t-170.5 -3q-96 0 -156.5 1t-95.5 6t-50.5 17.5t-17.5 35.5q-8 59 -16 152t-16.5 198.5t-14.5 214t-10 199t-7 153 t-3 76.5z" />
<glyph unicode="f" horiz-adv-x="919" d="M72 1038q2 14 45 25.5t114.5 17.5t169 9.5t207.5 3.5h232q30 0 30 -33q-10 -223 -24.5 -349t-44.5 -126q-53 0 -104.5 3t-108.5 5q0 -16 -1 -36.5t-1 -37.5q127 -2 186 -11t59 -28q-4 -47 -12 -84t-26 -78q-4 -16 -35 -20t-78 -4h-48.5t-53.5 2q0 -74 2 -114t4 -72 q2 -23 3 -46.5t1 -41.5t-36 -28.5t-86 -17t-103.5 -7.5t-90.5 -1q-51 0 -86.5 4t-40.5 25q-10 70 -19 172t-17.5 215t-14.5 225.5t-11 204.5t-8 153.5t-3 69.5z" />
<glyph unicode="g" horiz-adv-x="1091" d="M55 573q0 106 38 207t113 179.5t185.5 127t255.5 48.5q80 0 130 -6.5t87 -12.5q10 -2 19.5 -32.5t16.5 -76.5t12.5 -101.5t8.5 -108t5 -94t2 -60.5q0 -31 -31 -31q-23 0 -53.5 8.5t-87.5 8.5q-61 0 -101.5 -22.5t-63 -56.5t-31.5 -72t-9 -68q0 -49 25.5 -100.5 t93.5 -73.5q4 39 4 69.5v54.5q0 49 -4 69t-4 32t17 20t47 13.5t65.5 6.5t72.5 1h64t57 -2q31 -4 36 -12.5t5 -32.5q0 -14 -2 -65.5t-6 -116t-9 -129t-12 -105.5q0 -10 -25.5 -22.5t-66.5 -22.5t-96 -17.5t-115 -7.5q-133 0 -250.5 34t-204.5 107.5t-137.5 188.5t-50.5 274z " />
<glyph unicode="h" horiz-adv-x="1236" d="M80 1057q0 16 20.5 25.5t50 13.5t62.5 5t57 1q98 0 174 1t111 1q33 0 33 -33q0 -125 -2 -273.5t-17 -287.5q23 16 36 21.5t20 5.5q10 0 28 -23v557q0 16 21.5 25.5t52.5 13.5t62.5 5t52.5 1q18 0 66 -1t98.5 -6t90.5 -14.5t40 -23.5v-240q0 -111 -1 -201.5t-5.5 -184 t-12.5 -199t-24 -244.5q-4 -25 -31 -25q-61 0 -152.5 2.5t-171.5 8.5q-14 2 -23 5t-14 17q-4 16 -9 45t-11 63t-11 67.5t-9 60.5q-41 -41 -56.5 -50.5t-19.5 -9.5q-16 0 -29 25q-4 -45 -6 -88t-8 -96q-4 -23 -39 -27t-72 -4q-113 0 -176 1t-95 5t-39 11t-7 20l-25 612 q-4 147 -7 249.5t-3 162.5z" />
<glyph unicode="i" horiz-adv-x="677" d="M80 1047q0 16 7 28t42 17q23 4 68 6t90 2q72 0 140.5 -3t129.5 -10q23 -4 31 -11t8 -27q0 -8 -5 -172t-13 -498q-4 -119 -5.5 -216t-2.5 -151q0 -29 -15.5 -37t-28.5 -8q-29 -2 -64.5 -2h-62.5q-59 0 -122.5 3t-110.5 7q-23 2 -34 15.5t-15 48.5q-16 227 -26.5 484 t-10.5 524z" />
<glyph unicode="j" horiz-adv-x="931" d="M8 117q0 8 19.5 32.5t46 51t52.5 46t38 19.5q8 0 15 -2t11 -12q29 -63 78 -64q43 0 71 55.5t28 164.5q0 125 -3.5 215t-6.5 161.5t-5 132t-2 125.5q0 25 8.5 38.5t38.5 13.5q145 0 236.5 -2t141.5 -8.5t68.5 -14.5t18.5 -20q0 -197 -7 -346.5t-20.5 -259t-32 -181.5 t-38.5 -112q-59 -106 -160.5 -161t-230.5 -55q-139 0 -222 33t-128 103q-10 16 -12.5 26t-2.5 21z" />
<glyph unicode="k" horiz-adv-x="1140" d="M59 1061q0 16 23.5 25.5t77 13.5t138.5 5t210 1q33 0 33 -33q0 -8 -1 -19.5t-1 -41.5v-89t1 -77t3 -76t4 -88q39 90 78 193.5t71 207.5q8 23 31 23q33 0 97.5 -5t127 -12.5t109.5 -18.5t47 -23q0 -21 -8 -39q-27 -76 -52.5 -138.5t-54 -118t-61.5 -107.5t-76 -107 q63 -123 118.5 -250t100.5 -273q0 -25 -44 -41t-105.5 -24t-127 -12.5t-106.5 -4.5q-27 0 -33 23q-20 84 -46.5 155.5t-57.5 141.5v-47q0 -47 1 -94.5t3 -94.5q0 -16 -7 -25t-29.5 -14.5t-62.5 -6.5t-108 -1q-61 0 -110 1t-80 3q-16 2 -26.5 14.5t-16.5 44t-10.5 90 t-8.5 152.5q-6 152 -13 254.5t-13 186.5t-10.5 162.5t-4.5 183.5z" />
<glyph unicode="l" horiz-adv-x="847" d="M70 1036q0 16 61.5 28.5t143 22t161.5 14.5t117 5q33 0 33 -31q-12 -330 -13 -624v-106.5t2 -106.5q80 0 118 1t61 5q10 2 17 2h17q31 0 31 -31q-2 -55 -5 -107.5t-9 -95.5q-4 -16 -88 -31.5t-258 -15.5h-98.5t-100.5 3t-80 9.5t-35 18.5q-10 72 -20 174t-18.5 215 t-15.5 226.5t-12 204.5t-7 151.5t-2 68.5z" />
<glyph unicode="m" horiz-adv-x="1267" d="M84 647q0 109 2 213.5t10 208.5q0 14 13.5 22.5t32 13.5t41 6t40.5 1q23 0 55.5 -2t75.5 -6q43 -6 54 -29q39 -88 87 -170t99 -155q53 74 99 153.5t81 167.5q4 10 14.5 19.5t28.5 13.5q39 4 84 8t86 4q102 0 141 -10t39 -37q6 -190 7 -385q0 -162 -2.5 -325.5 t-10.5 -323.5q-2 -41 -22.5 -48t-61.5 -7q-76 0 -126 1t-86 3t-59.5 5t-43.5 7t-31.5 13t-11.5 44v26.5v45.5t1 47.5t1 30.5q-23 -51 -47.5 -101.5t-46.5 -93.5q-8 -16 -20.5 -22t-55.5 -6q-35 0 -46 4t-26 24q-35 53 -66.5 106.5t-60.5 118.5q2 -29 2 -57.5v-75.5 q0 -59 -7 -81.5t-23 -26.5t-52 -7t-114 -3q-35 0 -47.5 13t-12.5 36q-6 147 -10 306t-4 310z" />
<glyph unicode="n" horiz-adv-x="1050" d="M80 754.5v273.5q0 41 12 51.5t53 12.5q68 4 111 6t68 2q45 0 64.5 -7.5t35.5 -23.5q66 -63 126 -144t107 -155q0 59 -3 126t-3 132q0 29 5.5 41t13.5 18l9 4.5t16.5 4.5t33 2h55.5q55 0 86 -1t47.5 -4t21.5 -9.5t9 -14.5q2 -8 3 -19.5t2 -38t1 -71.5v-121v-710v-61.5 t-2 -36t-7 -20.5t-13 -14q-6 -4 -12.5 -7t-21.5 -5t-43 -3t-77 -1q-68 0 -104.5 1t-58 6t-32 15.5t-22.5 30.5q-47 76 -97 145.5t-104 137.5q4 -90 9.5 -149.5t5.5 -116.5q0 -20 -4 -33.5t-17.5 -22t-39 -11.5t-68.5 -3q-76 0 -102.5 5t-41.5 16q-16 12 -18 42.5t-2 59.5 v144.5t-1 241.5t-1 284.5z" />
<glyph unicode="o" horiz-adv-x="1110" d="M59 575q0 119 34 220.5t98.5 175t156.5 115.5t207 42q117 0 206 -43t149.5 -116.5t91 -172t30.5 -208.5q0 -119 -30.5 -231.5t-90 -200.5t-150.5 -141.5t-210 -53.5q-111 0 -202 43t-155.5 123t-99.5 193.5t-35 254.5zM459 449q0 -80 24.5 -133.5t59.5 -53.5 q39 0 62.5 54.5t23.5 132.5q0 72 -19.5 99t-60.5 27q-53 0 -71.5 -27.5t-18.5 -98.5z" />
<glyph unicode="p" horiz-adv-x="1140" d="M57 1038q0 20 33 38t88 31t128 20.5t151 7.5q143 0 258.5 -42t197.5 -117t125 -178.5t43 -226.5q0 -111 -40 -189.5t-107.5 -130.5t-157.5 -81t-190 -39v-115q0 -16 -17.5 -25t-46 -14.5t-64.5 -6.5t-71 -1h-86h-58.5t-40 1t-30.5 3q-8 10 -20.5 75t-24.5 162t-24.5 215 t-22.5 232.5t-16.5 215t-6.5 165.5zM586 330q63 6 100 42t37 89q0 51 -36 74.5t-77 23.5h-13t-11 -2v-227z" />
<glyph unicode="q" horiz-adv-x="1116" d="M61 575q0 119 34 220.5t98.5 175t155.5 115.5t208 42q129 0 220 -48t147.5 -124.5t83 -173t26.5 -194.5q0 -121 -30.5 -231.5t-98.5 -202.5q55 14 69.5 23t26.5 9q16 0 22.5 -7t23.5 -34q23 -37 42 -79.5t39 -92.5q4 -8 5 -22q0 -20 -25 -33q-78 -35 -160 -58.5 t-168 -39.5q-16 0 -32.5 5t-20.5 21q-4 37 -14.5 69t-32.5 65q-29 -8 -60.5 -13.5t-66.5 -5.5q-111 0 -202 44t-155.5 124t-99.5 193.5t-35 252.5zM459 449q0 -80 24.5 -133.5t61.5 -53.5q39 0 61.5 54.5t22.5 132.5q0 72 -18.5 99t-59.5 27q-53 0 -72.5 -27.5t-19.5 -98.5z " />
<glyph unicode="r" horiz-adv-x="1187" d="M80 1038q0 20 30.5 37t82 29t119 18t143.5 6q152 0 272.5 -35.5t205.5 -100t130 -153t45 -190.5q0 -143 -58.5 -240.5t-156.5 -142.5q39 -45 81 -97t87 -124q4 -8 5 -12t1 -8q0 -18 -20 -31q-59 -25 -123 -47.5t-123 -38.5q-4 -2 -15.5 -4t-15.5 -2q-27 0 -43 24 q-41 82 -121 156v-66q0 -16 -18.5 -25t-47 -14.5t-63.5 -6.5t-69 -1h-117t-80 4q-12 2 -22.5 11.5t-18.5 37t-15.5 81t-15.5 143.5t-18 222t-23 320q-2 31 -5 69t-6 74t-5 64.5t-2 42.5zM606 332q66 10 101.5 46t35.5 95q0 41 -32.5 62.5t-77.5 21.5h-27v-225z" />
<glyph unicode="s" horiz-adv-x="839" d="M63 748q0 82 30 154.5t94.5 125.5t169 84t255.5 31q41 0 69 -6t32 -29q12 -49 21 -105.5t15.5 -111.5t10.5 -103.5t4 -82.5q0 -29 -29 -29q-16 0 -24.5 1t-16.5 1q-55 0 -78.5 -21.5t-23.5 -52.5q0 -29 24 -61q43 -61 73 -122t30 -126q0 -86 -34 -148.5t-95.5 -102.5 t-146.5 -58.5t-185 -18.5q-35 0 -52.5 6.5t-21.5 28.5q-8 29 -14 66.5t-6 76.5q0 33 29 33q6 0 20 -1t31 -1q16 0 35.5 2t37 10.5t29.5 21.5t12 38q0 33 -21.5 59.5t-76.5 69.5q-98 78 -147.5 166t-49.5 205z" />
<glyph unicode="t" horiz-adv-x="978" d="M45 872q0 55 1 104.5t5 102.5q0 14 9.5 23.5t21.5 9.5q63 4 138 4h142q135 0 271.5 -2t265.5 -12q27 -2 31 -31q4 -53 5 -100t1 -101q0 -123 -6 -247q-2 -14 -8.5 -23.5t-22.5 -9.5h-184q-2 -53 -7.5 -123t-11.5 -147.5t-15 -158.5t-17 -157q-4 -23 -39 -31t-95 -8 q-61 0 -106 2t-86 6q-14 4 -20.5 13.5t-8.5 40.5q-10 154 -18 294t-23 273q-45 4 -91 4h-95q-31 0 -31 31q-4 59 -5 121.5t-1 121.5z" />
<glyph unicode="u" d="M66 1004q0 37 10 51t39 20q84 12 149.5 14.5t128.5 2.5h61t89 -5q31 -4 43 -14t12 -57q0 -174 -5 -355.5t-5 -355.5q0 -16 7 -34.5t30 -18.5q33 0 40 33.5t7 68.5q0 160 -3 331t-3 349q0 43 20.5 54.5t99.5 11.5q47 0 78 -1t49.5 -5t27.5 -10.5t13 -16.5q2 -6 2 -14.5 v-16.5q0 -55 -3 -139t-6 -176t-6 -180t-3 -150q0 -96 -17.5 -174t-65.5 -135t-131 -88t-214 -31q-233 0 -336.5 105.5t-103.5 320.5q0 82 -1 170t-1 171t-1 153.5t-1 120.5z" />
<glyph unicode="v" horiz-adv-x="903" d="M20 1061q0 16 6.5 25.5t24 13.5t48 5t77.5 1h80h73.5t47 -1t29 -2t18.5 -3q16 -4 24.5 -8.5t12.5 -18.5q8 -43 25.5 -123t45.5 -159q23 66 42.5 145.5t33.5 148.5q4 10 15.5 15.5t37 8.5t66.5 4t102 1q16 0 27.5 -4t11.5 -20q0 -10 -2 -21.5t-4 -21.5 q-41 -240 -108.5 -506.5t-145.5 -517.5q-6 -14 -50 -26.5t-152 -12.5q-31 0 -64 8t-43 31q-86 252 -153.5 499.5t-116.5 476.5q-8 41 -9 62z" />
<glyph unicode="w" horiz-adv-x="1462" d="M23 1061q0 27 28 37q14 4 59.5 6t96.5 2h67q74 0 106 -1t54 -7q29 -10 31 -23q6 -41 21.5 -99t48.5 -140q20 59 37.5 121.5t23.5 103.5q4 20 18.5 29.5t49.5 13.5q23 2 73.5 2h93.5h91.5t72.5 -4q29 -4 38 -9.5t14 -17.5q8 -45 23 -103.5t46 -135.5q23 66 37 131t23 118 q2 16 14 20.5t24 8.5q20 4 62.5 6t77.5 2h28h2q29 0 29 -30q0 -14 -1 -29.5t-3 -32.5q-41 -256 -93 -509t-120 -498q-6 -23 -51 -32t-152 -9q-33 0 -66.5 6t-41.5 30q-27 80 -46.5 143.5t-33.5 117t-26.5 102.5t-22.5 102q-55 -229 -142 -458q-4 -10 -16 -18.5t-34.5 -13.5 t-60.5 -8t-93 -3q-31 0 -64 6t-43 28q-82 248 -153.5 504t-118.5 498q-4 16 -6 25.5t-2 17.5z" />
<glyph unicode="x" horiz-adv-x="1026" d="M14 1036q0 16 8.5 27.5t30.5 13.5q68 10 155 13.5t167 3.5q20 0 38.5 -3.5t22.5 -17.5q29 -119 86 -237q25 53 46.5 115.5t37.5 119.5q4 14 20.5 17.5t39.5 3.5q111 0 175 -3.5t99 -9.5t45 -15.5t10 -21.5q0 -10 -8 -26q-53 -133 -118.5 -256t-141.5 -242 q68 -117 123 -246t104 -270q0 -14 -31.5 -25.5t-78.5 -19.5t-101.5 -12t-99.5 -4h-41q-18 0 -35.5 6t-23.5 30q-12 61 -23.5 94t-25.5 66q-14 -37 -25.5 -81t-22.5 -85q-4 -16 -16 -22t-22 -6q-27 0 -85.5 3t-119 10t-105.5 18.5t-45 27.5q47 141 103.5 270t124.5 246 q-76 113 -139.5 231.5t-118.5 245.5q-4 10 -6.5 20.5t-2.5 20.5z" />
<glyph unicode="y" horiz-adv-x="1013" d="M12 1044q0 23 8.5 30t28.5 11q25 2 67 5.5t91 6.5t99 5t91 2q16 0 31.5 -5t20.5 -22q16 -63 36.5 -118.5t42.5 -108.5q27 55 46.5 107.5t41.5 115.5q4 16 25 24.5t86 8.5q20 0 51 -2t65 -5t64.5 -7.5t48.5 -8.5q29 -8 29 -36q0 -8 -5 -21.5t-11 -30.5 q-59 -129 -122 -245.5t-128 -229.5q4 -59 5 -123.5t1 -124.5q0 -68 -1 -135t-5 -133q-2 -27 -31 -31q-92 -6 -190 -6q-49 0 -100.5 1t-92.5 5q-12 2 -18 6.5t-6 26.5q2 66 3 132.5t1 131.5v126t-4 126q-72 115 -139.5 235t-118.5 242q-4 10 -7.5 20.5t-3.5 24.5z" />
<glyph unicode="z" horiz-adv-x="978" d="M59 838q0 47 2 104t7 105q4 29 12 34.5t37 10.5q43 8 128 13t191.5 8t224 5t222.5 2h2q28 0 28 -30q0 -74 -4 -152t-11 -147.5t-15.5 -122t-14.5 -72.5q-117 -86 -223 -176t-199 -191q16 -2 28.5 -2h29.5q76 0 129 3t90 6.5t61.5 6.5t42.5 3q23 0 28 -21.5t5 -46.5 q0 -39 -2 -80t-8 -86q0 -12 -22.5 -20t-58.5 -12.5t-81 -5.5t-90 -1q-111 0 -220.5 2t-221.5 7q-25 2 -31 22.5t-6 73.5v117q0 27 5 42t15 31q66 94 137.5 172t143.5 148h-105q-86 0 -133 -2t-82 -2q-23 0 -27.5 14t-6.5 31q-4 53 -5.5 105t-1.5 104z" />
<glyph unicode="{" horiz-adv-x="708" d="M127 641q0 33 33 33q59 0 85.5 30.5t26.5 104.5v49t-1 99.5t-2 126t-2 126t-1 101.5v53q0 72 12.5 125t46 88t95 52.5t160.5 17.5h79q20 0 25.5 -15.5t5.5 -25.5q0 -100 -13 -141.5t-30 -41.5q-35 0 -69.5 -7t-34.5 -27q0 -27 1 -79.5t2 -119t3 -139t3 -139t2 -119 t1 -78.5q0 -53 -31.5 -93t-83.5 -65q47 -25 81 -66.5t34 -93.5q0 -39 -2 -119.5t-4 -169t-4 -168t-2 -116.5q0 -23 18.5 -30t52.5 -7h37q12 0 21.5 -9t9.5 -24q0 -23 -1 -55.5t-6 -62t-14.5 -51t-25.5 -21.5h-55q-98 0 -160 16.5t-95.5 52t-46 89t-12.5 126.5v46t1 84.5 t2 103.5t2 103t1 82v42q0 72 -17 102.5t-77 30.5q-29 0 -40 54.5t-11 144.5z" />
<glyph unicode="|" horiz-adv-x="593" d="M143 1419q0 16 23 21q41 4 104.5 8t122.5 4q23 0 40.5 -3t17.5 -17q0 -197 -7.5 -395.5t-15.5 -398.5t-15 -401.5t-7 -406.5v-158q0 -18 -17 -18q-111 0 -162 4t-51 25q0 215 -5 427t-11 427t-11.5 434t-5.5 448z" />
<glyph unicode="}" horiz-adv-x="708" d="M18 1606q0 10 5.5 25.5t25.5 15.5h80q98 0 159.5 -17.5t95.5 -52.5t46 -88t12 -125q0 -10 -1 -53t-1 -101.5t-2 -126t-2 -126t-1 -99.5t-1 -49q0 -74 27.5 -104.5t87.5 -30.5q33 0 33 -33q0 -90 -12.5 -144.5t-41.5 -54.5q-59 0 -76.5 -30.5t-17.5 -102.5q0 -8 1 -42 t1 -82t2 -103t2 -103.5t1 -84t1 -46.5q0 -74 -12 -127t-46 -88.5t-95.5 -52t-159.5 -16.5h-57q-16 0 -25.5 21.5t-14.5 51t-6 62.5t-1 55q0 14 9 23.5t21 9.5h39q35 0 52.5 7t17.5 30q0 37 -2 116.5t-3 168t-3 169t-2 119.5q0 51 32.5 93t79.5 67q-49 25 -80.5 65t-31.5 93 q0 27 1 79t2 118.5t2 139t2 139t2 119t1 79.5q0 20 -34 27t-69 7q-16 0 -29.5 41t-13.5 142z" />
<glyph unicode="~" horiz-adv-x="1046" d="M72 541q0 33 1 66.5t11 62.5q43 39 98.5 67.5t143.5 28.5q61 0 114.5 -10.5t98.5 -22.5t84 -22.5t71 -10.5q63 0 119.5 18.5t99.5 63.5q6 4 12.5 7.5t14.5 3.5q10 0 21.5 -7.5t11.5 -17.5q0 -88 -15 -158q-59 -49 -124.5 -70.5t-151.5 -21.5q-53 0 -100 10.5t-91.5 21.5 t-83 21.5t-75.5 10.5q-59 0 -105.5 -20.5t-93.5 -65.5q-12 -8 -24 -9q-23 0 -30 15.5t-7 38.5z" />
<glyph unicode="&#xa1;" horiz-adv-x="763" d="M72 23q12 176 21 319t14.5 261t7.5 213t2 175q0 16 18 17q66 4 127.5 4h126.5h126t126 -4q18 0 19 -17q0 -147 5 -261t11 -221.5t11 -222t5 -261.5q0 -14 -18 -19q-76 -4 -152.5 -6t-152.5 -2q-72 0 -140.5 2t-138.5 6q-18 1 -18 17zM135 1333q0 12 17.5 26.5t27.5 18.5 q80 47 160 83t166 69q16 6 22 6q16 0 41 -36t48.5 -85t40 -98t16.5 -78q0 -18 -31 -33q-76 -35 -151.5 -71.5t-145.5 -81.5q-8 -4 -21.5 -10.5t-21.5 -6.5q-18 0 -47 42t-55.5 95.5t-46 101.5t-19.5 58z" />
<glyph unicode="&#xa2;" horiz-adv-x="753" d="M57 696q0 84 22.5 160t63.5 138.5t95.5 107.5t119.5 69q-16 16 -34.5 39t-34 47.5t-24.5 47t-9 41.5q0 6 2 6q2 4 25.5 19t52.5 31.5t57.5 29t42.5 12.5q10 0 17.5 -7t11.5 -18q23 -43 48.5 -85t53.5 -81q4 -6 6 -10t2 -8q0 -10 -40 -41q53 -4 80.5 -9t50.5 -16 q8 -4 15 -39.5t11 -90t7 -121t3 -132.5q0 -12 -10 -12t-31.5 6t-68.5 6q-84 0 -130 -58t-46 -144q0 -82 45 -144.5t123 -62.5q41 0 55 8t25 8q4 0 10 -6t6 -16q0 -8 -1 -38t-5 -77q-2 -20 -41 -36.5t-92 -22.5q20 -37 43.5 -71t46.5 -69q4 -12 4 -18q0 -12 -22.5 -30.5 t-52.5 -36t-57.5 -30t-39.5 -12.5q-14 0 -38 30t-47.5 66.5t-41 70.5t-17.5 44q0 16 19.5 29.5t60.5 36.5q-68 14 -129 49t-108 95.5t-76 145.5t-29 199z" />
<glyph unicode="&#xa3;" horiz-adv-x="1210" d="M23 207q31 43 75.5 77.5t98.5 49.5q23 29 36 59.5t23 61.5q-14 -2 -25.5 -2h-21.5q-35 0 -42 4t-9 8q-8 35 -11.5 71.5t-3.5 65.5q0 12 4.5 19.5t19.5 11.5t42 5t74 1q-12 66 -17.5 126t-5.5 120q0 111 25.5 203t83 158.5t148.5 102t222 35.5q197 0 312.5 -91t115.5 -273 q0 -27 -5 -70t-14 -85t-22.5 -73.5t-29.5 -37.5q-37 -12 -94.5 -20.5t-106.5 -8.5q-53 0 -81 2t-28 14q0 16 7.5 36t7.5 34q0 12 -7.5 28.5t-37.5 16.5q-68 0 -83.5 -56.5t-15.5 -152.5h121t121 -2q6 0 12.5 -4t6.5 -8q0 -25 -3.5 -54.5t-9.5 -55t-16 -44t-23 -18.5 q-63 4 -119.5 6t-121.5 2q-2 -18 -13.5 -39.5t-27 -42t-31.5 -37t-29 -22.5q39 -6 77 -19.5t75 -27t76 -24.5t79 -11q57 0 103.5 22.5t71.5 69.5q6 8 16 8q14 0 33.5 -26.5t38 -63.5t31 -76t12.5 -63q0 -18 -9 -33q-27 -35 -66.5 -58.5t-83.5 -38t-91 -21.5t-90 -7 q-63 0 -117.5 15.5t-105 35t-101.5 34.5t-106 15q-70 0 -130.5 -30.5t-107.5 -73.5q-6 -6 -14 -6t-15 8q-35 53 -55 114.5t-22 135.5z" />
<glyph unicode="&#xa4;" horiz-adv-x="933" d="M72 317q0 4 2 9.5t12 17.5t30.5 37t57.5 65q-35 80 -35 168q0 82 35 168q-37 39 -56.5 60.5t-29.5 34t-12 17.5t-2 9q0 12 18.5 37t43 49.5t51 42t42.5 17.5q2 0 6.5 -2.5t13.5 -11.5t25.5 -28.5t44.5 -56.5q74 39 154 39q76 0 150 -39q35 39 55 60.5t30.5 33t14.5 13.5 t8 2q2 0 23.5 -17.5t44 -44t42 -55.5t19.5 -53q0 -4 -2 -9.5t-10 -15.5t-25.5 -29.5t-48.5 -52.5q16 -41 25.5 -83t9.5 -85q0 -47 -9 -89t-26 -81q10 -12 25.5 -26.5t29 -28.5t23.5 -28.5t10 -22.5q0 -16 -15.5 -45t-35.5 -56.5t-41.5 -49t-36.5 -21.5q-4 0 -8 2t-15.5 13.5 t-31.5 32.5t-55 62q-37 -18 -73 -28t-77 -10t-77 10t-72 28q-31 -37 -48.5 -57t-26.5 -29.5t-13.5 -11.5t-6.5 -2q-12 0 -38.5 16.5t-53 40t-46 47t-19.5 37.5zM299 602q0 -82 50 -139t124 -57t125 57t51 139t-51 138.5t-125 56.5t-124 -56.5t-50 -138.5z" />
<glyph unicode="&#xa5;" horiz-adv-x="1046" d="M31 1321q0 27 20 27q27 2 71 5t95 6t103.5 5t95.5 2q27 0 35 -10q18 -74 45.5 -144.5t60.5 -138.5q27 66 53.5 132.5t51.5 140.5q4 14 21 17t81 3q20 0 53 -1t68 -2t65.5 -5t48.5 -10q16 -6 17 -25q0 -10 -6 -16q-59 -129 -122 -251t-132 -241h211q14 0 14 -14 q0 -8 -2 -10l-39 -177q-2 -14 -14 -14h-187q2 -47 2 -92v-86h189q12 0 12 -10q0 -6 -2 -9l-33 -143q-2 -10 -14 -10h-154q0 -68 -1 -132.5t-5 -105.5q0 -14 -14 -14q-49 -4 -98.5 -5t-98.5 -1t-99 1t-97 5q-14 2 -15 14q2 41 2 105.5v132.5h-149q-10 0 -12 12l-19 148 q0 12 12 12h170v178h-186q-12 0 -14 16l-19 183q0 16 13 16h178q-72 117 -139.5 235.5t-112.5 249.5q-4 12 -4 21z" />
<glyph unicode="&#xa6;" horiz-adv-x="593" d="M143 1419q0 16 23 21q41 4 104.5 8t122.5 4q23 0 40.5 -3t17.5 -17q0 -160 -4.5 -324t-12.5 -324q0 -8 -6 -17t-18 -9q-59 0 -119 4t-119 8q-10 0 -15 9t-5 14q-4 154 -6.5 309t-2.5 317zM164 356q0 25 24.5 29t55.5 4q23 0 52.5 -1t56 -4t45 -12.5t18.5 -23.5 q0 -129 -5 -256t-5 -262v-158q0 -18 -17 -18q-111 0 -162 4.5t-51 24.5q0 336 -12 673z" />
<glyph unicode="&#xa7;" horiz-adv-x="968" d="M49 383q0 74 38 149.5t122 135.5q-59 53 -99 135t-40 164q0 111 84 219t280 205q20 10 37.5 16t30.5 6q10 0 16 -6q33 -41 66.5 -87t63.5 -91t53.5 -85t37.5 -69q6 -18 6 -22q0 -10 -10 -12.5t-33 -12.5q-43 -20 -61 -47t-18 -51q0 -23 12 -48.5t55 -47.5 q51 -25 95 -54.5t76 -68.5t49.5 -87.5t17.5 -111.5q0 -94 -61.5 -172t-186.5 -133q25 -37 35 -69t10 -72q0 -109 -85 -198t-222 -155q-29 -14 -45 -14t-47 38t-50 77q-2 4 -4 10t-2 10q0 10 17.5 17.5t40.5 21.5q41 27 64.5 53.5t23.5 53.5q0 72 -131 104 q-104 29 -170 100.5t-66 198.5zM420 469q0 -27 11 -45t29.5 -31.5t40 -25t42.5 -23.5q73 47 73 98q0 25 -12 43.5t-32.5 30.5t-45 20.5t-49.5 14.5q-57 -35 -57 -82z" />
<glyph unicode="&#xa8;" horiz-adv-x="868" d="M72 1497q0 29 30.5 35t100.5 6q55 0 87 -1t48 -8t20 -22.5t4 -46.5q0 -53 -3 -113.5t-9 -95.5q-4 -18 -22.5 -23t-73.5 -5q-31 0 -62.5 1t-58.5 6t-43 12t-16 20q0 33 2 66.5t2 68.5q0 25 -3 50t-3 50zM506 1497q0 29 29.5 35t99.5 6q55 0 88 -1t49 -8t20.5 -22.5 t4.5 -46.5q0 -53 -3 -113.5t-10 -95.5q-4 -18 -23.5 -23t-72.5 -5q-31 0 -63.5 1t-58 6t-42 12t-16.5 20q0 33 2 66.5t2 68.5q0 25 -3 50t-3 50z" />
<glyph unicode="&#xaa;" horiz-adv-x="702" d="M72 621q0 8 2 14q35 141 71.5 281.5t79.5 279.5q6 14 26.5 16t88.5 2q49 0 80 -1t48 -4t24.5 -6t9.5 -9q66 -293 119 -586q0 -18 -17 -18q-49 0 -97 1t-97 5q-10 4 -16.5 17.5t-6.5 45.5q-14 -10 -28.5 -15t-18.5 -5q-12 0 -25 12l-4 -22q-2 -10 -4 -15.5t-12 -8.5 t-30.5 -4t-57.5 -1q-43 0 -69.5 1t-41 3t-19.5 6t-5 11zM317 766q27 16 35.5 19t18.5 3q4 0 8 -1t12 -5q-6 37 -14 66t-21 74q-10 -35 -19 -75t-20 -81z" />
<glyph unicode="&#xab;" horiz-adv-x="1073" d="M25 676q0 14 20 33q80 59 163 111t167 81q18 6 26.5 8t12.5 2q14 0 28.5 -23.5t25.5 -56t17.5 -64.5t6.5 -46t-13 -19q-55 -16 -105 -40.5t-91 -59.5q43 -49 100 -82t117 -61q10 -4 10 -15q0 -4 -15.5 -22.5t-35 -40t-40 -38.5t-30.5 -17q-23 0 -68 21.5t-96 52t-98 65.5 t-70 61q-18 23 -25 52.5t-7 97.5zM562 676q0 14 20 33q80 59 163 111t167 81q18 6 26.5 8t12.5 2q14 0 28.5 -23.5t25.5 -56t17.5 -64.5t6.5 -46t-13 -19q-55 -16 -105 -40.5t-91 -59.5q43 -49 100 -82t117 -61q10 -4 10 -15q0 -4 -15.5 -22.5t-35 -40t-40 -38.5t-30.5 -17 q-23 0 -68 21.5t-96 52t-98 65.5t-70 61q-18 23 -25 52.5t-7 97.5z" />
<glyph unicode="&#xac;" horiz-adv-x="1034" d="M72 682v25.5t3 29t7 23.5t14 10q43 4 111.5 8t150.5 8.5t169 8.5t166 8t142.5 6t98.5 2q16 0 16 -16q4 -127 6 -236.5t4.5 -196t2.5 -144.5v-79l-15 -18q-23 -4 -47 -5t-51 -1q-23 0 -44.5 1t-39.5 5q-16 4 -21.5 55t-5.5 117v59t1 79t1 74v46q-45 -2 -110.5 -7 t-147.5 -11.5t-175 -10.5t-193 -4q-12 0 -20.5 18.5t-13.5 45t-7 54.5t-2 46z" />
<glyph unicode="&#xad;" horiz-adv-x="651" d="M25 694q0 16 18 17q74 4 146.5 6t144.5 2q68 0 135.5 -2t134.5 -6q21 -1 21 -15q0 -12 -5.5 -41.5t-14.5 -61.5t-22.5 -57.5t-27.5 -29.5q-55 4 -108.5 6t-106.5 2q-68 0 -135.5 -2t-134.5 -6q-12 0 -20.5 20.5t-13.5 50t-8 62.5t-3 55z" />
<glyph unicode="&#xaf;" horiz-adv-x="796" d="M72 1427q0 14 18 15q74 4 159 7t157 3q68 0 144.5 -3t143.5 -7q21 0 21 -12t-5 -42t-14.5 -62t-23 -57.5t-27.5 -29.5q-55 4 -117.5 6t-115.5 2q-68 0 -148 -2t-147 -6q-12 0 -20.5 20.5t-13.5 50t-8 62.5t-3 55z" />
<glyph unicode="&#xb0;" horiz-adv-x="602" d="M72 1124q0 59 13 111.5t41 90.5t71 60.5t102 22.5q61 0 104 -22.5t71 -60.5t41 -90t13 -112q0 -59 -13 -111t-41 -90t-71 -60.5t-104 -22.5q-59 0 -102 22.5t-71 60.5t-41 90t-13 111zM229 1096q0 -43 16.5 -76t53.5 -33q39 0 55.5 33t16.5 76t-16.5 75.5t-55.5 32.5 q-37 0 -53.5 -32.5t-16.5 -75.5z" />
<glyph unicode="&#xb1;" d="M72 113q0 14 12 14h858q14 0 14 -12q0 -6 -2 -8l-36 -162q-4 -12 -15 -12h-797q-10 0 -14 14zM72 725q0 14 12 14h313q-6 57 -7 115.5t-1 122.5q0 41 1 71.5t9 30.5h256q8 0 9 -12q0 -168 -13 -328h291q14 0 14 -12q0 -6 -2 -8l-36 -162q-4 -12 -15 -12h-252v-262 q0 -35 -3 -52.5t-19 -17.5h-191q-10 0 -17 12.5t-10 49t-4 101t-1 169.5h-300q-10 0 -14 14z" />
<glyph unicode="&#xb2;" horiz-adv-x="563" d="M63 809q0 41 18.5 85t65.5 75q43 29 56.5 49t13.5 49q0 35 -26.5 54.5t-88.5 19.5q-10 0 -15 -1t-11 -1t-9.5 10t-3.5 20q4 63 11.5 124t21.5 116q4 10 35 10q383 0 383 -291q0 -53 -28.5 -110t-108.5 -103q-59 -35 -87 -56t-28 -44q0 -10 9.5 -15t22.5 -7t27.5 -1 t22.5 1q37 0 65.5 3t43.5 3q8 0 8 -8q0 -25 -6 -55.5t-11 -43.5q-4 -10 -39.5 -14t-123.5 -4q-37 0 -79 2t-79 2q-16 0 -27.5 16.5t-18.5 38t-10.5 43t-3.5 33.5z" />
<glyph unicode="&#xb3;" horiz-adv-x="573" d="M41 1350q0 29 45 44t109 15q68 0 126 -17.5t101 -54.5t68.5 -94t25.5 -137q0 -88 -32.5 -134t-80.5 -65q39 -10 59.5 -39.5t20.5 -64.5q0 -68 -70.5 -100.5t-199.5 -32.5q-47 0 -59.5 2t-12.5 8q0 10 1 25.5t4.5 29t6.5 23.5t9 10t10 -2t23 -2q47 0 66.5 17.5t19.5 33.5 q0 23 -17.5 36t-87.5 13q-10 0 -11 14.5t-1 36.5q0 16 6 17q72 0 98.5 11t26.5 50q0 25 -19.5 42.5t-70.5 17.5q-35 0 -44 -4.5t-16 -4.5q-10 0 -28.5 40t-34.5 92.5t-28.5 102.5t-12.5 71z" />
<glyph unicode="&#xb4;" horiz-adv-x="616" d="M72 1325q0 23 32 35q72 23 149 53.5t153 65.5q20 10 33.5 17t22.5 11t16 6.5t18 2.5q35 0 41 -54.5t6 -158.5q0 -20 -23 -29q-86 -37 -174 -60.5t-186 -39.5q-10 -2 -21.5 -3.5t-19.5 -1.5q-12 0 -21.5 14.5t-15.5 37t-8 50t-2 54.5z" />
<glyph unicode="&#xb6;" horiz-adv-x="1095" d="M57 991q0 113 31 186.5t83 117.5t124 62.5t151 18.5q106 0 187.5 1t150 2t128.5 2t126 1q14 0 18.5 -17t4.5 -77v-82t-3 -73.5t-9.5 -54t-18.5 -21.5l-106 -6q0 -305 -2 -591t-9 -571q0 -6 -4 -12t-12 -6l-158 -14q-20 0 -20 18q2 236 4 410t3 309t2 241.5t1 211.5h-129 q0 -301 -2 -587t-6 -571q0 -6 -4 -12t-13 -6l-159 -14q-20 0 -21 18q2 63 4 160.5t3 202t1 204v166.5q-84 6 -148.5 28.5t-108.5 67t-66.5 115t-22.5 172.5z" />
<glyph unicode="&#xb7;" horiz-adv-x="681" d="M72 639q0 18 30 33q76 35 152 71.5t145 81.5q8 4 22.5 10.5t20.5 6.5q18 0 47 -42t55.5 -95.5t46 -101.5t19.5 -58q0 -12 -17.5 -26.5t-27.5 -18.5q-80 -47 -159.5 -83t-165.5 -69q-16 -6 -23 -6q-16 0 -40.5 36t-47.5 85t-40 98t-17 78z" />
<glyph unicode="&#xb8;" horiz-adv-x="518" d="M61 -248q0 6 12.5 15.5t16.5 13.5q53 47 117.5 85t136.5 38q18 -2 35.5 -37t32 -80t23.5 -87t9 -58q0 -12 -12 -29q-20 -31 -35.5 -52.5t-33 -41t-37 -39l-47.5 -47.5q-10 -8 -20.5 -14.5t-18.5 -6.5q-16 0 -37 19.5t-21 36.5q0 6 6 12q76 76 76 100q0 14 -16 14 q-23 0 -50.5 -14t-35.5 -14t-24.5 23.5t-34 54t-30 61.5t-12.5 47z" />
<glyph unicode="&#xb9;" horiz-adv-x="460" d="M76 1368q0 18 38 20.5t85 2.5h52t61.5 -2t51 -6.5t21.5 -12.5q0 -14 -1 -32.5t-1 -63.5t-2 -124t-6 -212q-2 -51 -1 -97t-1 -82t-6.5 -56.5t-14.5 -20.5h-119.5t-111.5 6q-18 0 -21 31q-10 147 -17 312t-7 337z" />
<glyph unicode="&#xba;" horiz-adv-x="733" d="M94 932q0 131 73 217t200 86q63 0 112 -23.5t83 -64.5t50.5 -94.5t16.5 -114.5q0 -66 -16.5 -127t-49.5 -109.5t-83 -78t-115 -29.5q-123 0 -197 91t-74 247zM313 860q0 -43 13.5 -72.5t33.5 -29.5t34 29.5t14 72.5q0 41 -11.5 56.5t-34.5 15.5q-29 0 -39 -15.5 t-10 -56.5z" />
<glyph unicode="&#xbb;" horiz-adv-x="1073" d="M25 793q0 2 14 21.5t34.5 41t41 38.5t30.5 17q20 0 66.5 -21.5t97.5 -52t98.5 -65.5t69.5 -61q18 -23 25.5 -52.5t7.5 -97.5q0 -14 -21 -33q-80 -59 -162.5 -111t-166.5 -81q-18 -6 -26.5 -8t-12.5 -2q-16 0 -29.5 23.5t-25 56t-17.5 63.5t-6 47q0 14 12 19 q55 16 105.5 40.5t91.5 59.5q-43 49 -100.5 82t-116.5 61q-10 4 -10 15zM562 793q0 2 14 21.5t34.5 41t41 38.5t30.5 17q20 0 66.5 -21.5t97.5 -52t98.5 -65.5t69.5 -61q18 -23 25.5 -52.5t7.5 -97.5q0 -14 -21 -33q-80 -59 -162.5 -111t-166.5 -81q-18 -6 -26.5 -8 t-12.5 -2q-16 0 -29.5 23.5t-25 56t-17.5 63.5t-6 47q0 14 12 19q55 16 105.5 40.5t91.5 59.5q-43 49 -100.5 82t-116.5 61q-10 4 -10 15z" />
<glyph unicode="&#xbc;" horiz-adv-x="1585" d="M65 -16q0 8 7 18q131 164 276 354.5t287.5 384t273.5 378t234 337.5q12 23 34 23q8 0 34 -7.5t59.5 -21.5t71.5 -36.5t75 -51.5q6 -6 6 -14q0 -27 -33 -70q-92 -121 -192 -252t-202.5 -261t-202 -255t-186.5 -232.5t-158.5 -192.5t-118.5 -136q-31 -35 -49.5 -48.5 t-34.5 -13.5q-12 0 -42 11.5t-60.5 27t-54.5 31.5t-24 27zM215 1368q0 18 38 20.5t85 2.5h52t61.5 -2t51 -6.5t21.5 -12.5q0 -14 -1 -32.5t-1 -63.5t-2 -124t-6 -212q-2 -51 -1 -97t-1 -82t-6.5 -56.5t-14.5 -20.5h-119.5t-111.5 6q-18 0 -21 31q-10 147 -17 312t-7 337z M967 629q0 8 6 12t24.5 6t52.5 2h91h26.5h35t29.5 -2t13 -8q0 -18 -2 -72.5t-6 -121l-8 -133t-8 -111.5q53 0 92 8q-2 53 -3 108.5t-1 112.5q0 51 1 103.5t3 111.5q2 8 27.5 11t89.5 3q59 0 74.5 -3t15.5 -9q0 -63 -6.5 -150t-13.5 -181.5t-13 -187.5t-6 -169q0 -4 -12.5 -6 t-33 -3t-44 -1h-43.5q-23 0 -28 47t-5 119q-78 -8 -137.5 -11.5t-136.5 -3.5q-16 0 -23 25q-6 27 -14.5 94.5t-16.5 146t-14 151.5t-6 112z" />
<glyph unicode="&#xbd;" horiz-adv-x="1490" d="M65 -16q0 8 7 18q131 164 276 354.5t287.5 384t273.5 378t234 337.5q12 23 34 23q8 0 34 -7.5t59.5 -21.5t71.5 -36.5t75 -51.5q6 -6 6 -14q0 -27 -33 -70q-92 -121 -192 -252t-202.5 -261t-202 -255t-186.5 -232.5t-158.5 -192.5t-118.5 -136q-31 -35 -49.5 -48.5 t-34.5 -13.5q-12 0 -42 11.5t-60.5 27t-54.5 31.5t-24 27zM215 1368q0 18 38 20.5t85 2.5h52t61.5 -2t51 -6.5t21.5 -12.5q0 -14 -1 -32.5t-1 -63.5t-2 -124t-6 -212q-2 -51 -1 -97t-1 -82t-6.5 -56.5t-14.5 -20.5h-119.5t-111.5 6q-18 0 -21 31q-10 147 -17 312t-7 337z M974 84q0 41 18.5 85t65.5 75q43 29 56.5 49t13.5 49q0 35 -26.5 54.5t-88.5 19.5q-10 0 -15 -1t-11 -1t-9.5 10t-3.5 20q4 63 11.5 124t21.5 116q4 10 35 10q383 0 383 -291q0 -53 -28.5 -110t-108.5 -103q-59 -35 -87 -56t-28 -44q0 -10 9.5 -15t22.5 -7t27.5 -1t22.5 1 q37 0 65.5 3t43.5 3q8 0 8 -8q0 -25 -6 -55.5t-11 -43.5q-4 -10 -39.5 -14t-123.5 -4q-37 0 -79 2t-79 2q-16 0 -27.5 16.5t-18.5 38t-10.5 43t-3.5 33.5z" />
<glyph unicode="&#xbe;" horiz-adv-x="1564" d="M65 -16q0 8 7 18q131 164 276 354.5t287.5 384t273.5 378t234 337.5q12 23 34 23q8 0 34 -7.5t59.5 -21.5t71.5 -36.5t75 -51.5q6 -6 6 -14q0 -27 -33 -70q-92 -121 -192 -252t-202.5 -261t-202 -255t-186.5 -232.5t-158.5 -192.5t-118.5 -136q-31 -35 -49.5 -48.5 t-34.5 -13.5q-12 0 -42 11.5t-60.5 27t-54.5 31.5t-24 27zM150 1350q0 29 45 44t109 15q68 0 126 -17.5t101 -54.5t68.5 -94t25.5 -137q0 -88 -32.5 -134t-80.5 -65q39 -10 59.5 -39.5t20.5 -64.5q0 -68 -70.5 -100.5t-199.5 -32.5q-47 0 -59.5 2t-12.5 8q0 10 1 25.5 t4.5 29t6.5 23.5t9 10t10 -2t23 -2q47 0 66.5 17.5t19.5 33.5q0 23 -17.5 36t-87.5 13q-10 0 -11 14.5t-1 36.5q0 16 6 17q72 0 98.5 11t26.5 50q0 25 -19.5 42.5t-70.5 17.5q-35 0 -44 -4.5t-16 -4.5q-10 0 -28.5 40t-34.5 92.5t-28.5 102.5t-12.5 71zM946 629q0 8 6 12 t24.5 6t52.5 2h91h26.5h35t29.5 -2t13 -8q0 -18 -2 -72.5t-6 -121l-8 -133t-8 -111.5q53 0 92 8q-2 53 -3 108.5t-1 112.5q0 51 1 103.5t3 111.5q2 8 27.5 11t89.5 3q59 0 74.5 -3t15.5 -9q0 -63 -6.5 -150t-13.5 -181.5t-13 -187.5t-6 -169q0 -4 -12.5 -6t-33 -3t-44 -1 h-43.5q-23 0 -28 47t-5 119q-78 -8 -137.5 -11.5t-136.5 -3.5q-16 0 -23 25q-6 27 -14.5 94.5t-16.5 146t-14 151.5t-6 112z" />
<glyph unicode="&#xbf;" horiz-adv-x="978" d="M63 428q0 135 57.5 222t165.5 159q90 59 116 106t26 80q0 16 -7.5 28.5t-14.5 20.5t-14 15.5t-7 15.5q0 10 6 16t24 15q121 53 189.5 75.5t109.5 22.5q12 0 20.5 -4t10.5 -8q63 -57 92 -123t29 -152q0 -72 -28.5 -128t-65.5 -99q-33 -37 -45.5 -63.5t-12.5 -49.5 q0 -63 41 -88.5t101 -25.5q16 0 31.5 2t25.5 2t15.5 -7.5t5.5 -40.5q0 -117 -10.5 -242.5t-55.5 -250.5q-4 -12 -20.5 -15.5t-47.5 -3.5q-160 0 -295 25t-233 85t-153.5 160.5t-55.5 250.5zM256 1431q0 18 42 46t101 56.5t121.5 54t103.5 40.5q18 6 25 6q16 0 39.5 -36 t47 -85t40 -98t16.5 -78q0 -10 -6 -17.5t-25 -17.5q-74 -33 -149.5 -70.5t-144.5 -80.5q-10 -4 -23.5 -11.5t-19.5 -7.5q-18 0 -47 43t-55.5 96.5t-46 101.5t-19.5 58z" />
<glyph unicode="&#xc0;" horiz-adv-x="1271" d="M10 -14q0 8 4 20q82 338 169 669t192 660q4 10 14 16.5t37 9.5t73 4t122 1q106 0 174.5 -2t108.5 -6t55.5 -11.5t17.5 -15.5q80 -348 148.5 -686t134.5 -682v-6q0 -14 -17 -14q-117 0 -232.5 2t-232.5 12q-10 2 -16 7t-8 28l-13 133q-29 -27 -69.5 -48.5t-50.5 -21.5 q-18 0 -36 29t-24 49l-18 -119q-4 -16 -10.5 -26.5t-28 -15.5t-66.5 -7t-125 -2q-166 0 -234.5 4t-68.5 19zM359 1575q0 104 6 158.5t43 54.5q20 0 33.5 -8.5t56.5 -28.5q76 -35 152.5 -66t148.5 -53q31 -10 31 -35q0 -27 -2 -54.5t-8.5 -50t-15.5 -37t-21 -14.5 q-18 0 -39 5q-98 16 -187.5 39.5t-173.5 60.5q-10 4 -17 11t-7 18zM559 328q57 41 81 55t40 14q12 0 26.5 -10t45.5 -51q-20 98 -41 194.5t-49 194.5q-35 -98 -58.5 -196.5t-44.5 -200.5z" />
<glyph unicode="&#xc1;" horiz-adv-x="1271" d="M10 -14q0 8 4 20q82 338 169 669t192 660q4 10 14 16.5t37 9.5t73 4t122 1q106 0 174.5 -2t108.5 -6t55.5 -11.5t17.5 -15.5q80 -348 148.5 -686t134.5 -682v-6q0 -14 -17 -14q-117 0 -232.5 2t-232.5 12q-10 2 -16 7t-8 28l-13 133q-29 -27 -69.5 -48.5t-50.5 -21.5 q-18 0 -36 29t-24 49l-18 -119q-4 -16 -10.5 -26.5t-28 -15.5t-66.5 -7t-125 -2q-166 0 -234.5 4t-68.5 19zM482 1597q0 23 32 35q72 23 149 53.5t153 65.5q20 10 33.5 17t22.5 11t16 6.5t18 2.5q35 0 41 -54.5t6 -158.5q0 -20 -23 -29q-86 -37 -174 -60.5t-186 -39.5 q-10 -2 -21.5 -3.5t-19.5 -1.5q-12 0 -21.5 14.5t-15.5 37t-8 50t-2 54.5zM559 328q57 41 81 55t40 14q12 0 26.5 -10t45.5 -51q-20 98 -41 194.5t-49 194.5q-35 -98 -58.5 -196.5t-44.5 -200.5z" />
<glyph unicode="&#xc2;" horiz-adv-x="1271" d="M10 -14q0 8 4 20q82 338 169 669t192 660q4 10 14 16.5t37 9.5t73 4t122 1q106 0 174.5 -2t108.5 -6t55.5 -11.5t17.5 -15.5q80 -348 148.5 -686t134.5 -682v-6q0 -14 -17 -14q-117 0 -232.5 2t-232.5 12q-10 2 -16 7t-8 28l-13 133q-29 -27 -69.5 -48.5t-50.5 -21.5 q-18 0 -36 29t-24 49l-18 -119q-4 -16 -10.5 -26.5t-28 -15.5t-66.5 -7t-125 -2q-166 0 -234.5 4t-68.5 19zM336 1595q0 8 5 16.5t11 18.5q45 63 93 111.5t112 95.5q4 2 13 7t28 5q12 0 37.5 -1t54.5 -4t54.5 -9.5t35.5 -16.5q41 -57 92 -106t107 -94q10 -10 10 -23 q0 -8 -13.5 -28.5t-31.5 -42t-38.5 -38t-35.5 -16.5h-12t-14 4q-51 31 -97.5 69t-85.5 91q-53 -23 -99 -64t-89 -94q-4 -4 -10 -5t-11 -1q-6 0 -25.5 11.5t-40 29.5t-35.5 41t-15 43zM559 328q57 41 81 55t40 14q12 0 26.5 -10t45.5 -51q-20 98 -41 194.5t-49 194.5 q-35 -98 -58.5 -196.5t-44.5 -200.5z" />
<glyph unicode="&#xc3;" horiz-adv-x="1271" d="M10 -14q0 8 4 20q82 338 169 669t192 660q4 10 14 16.5t37 9.5t73 4t122 1q106 0 174.5 -2t108.5 -6t55.5 -11.5t17.5 -15.5q80 -348 148.5 -686t134.5 -682v-6q0 -14 -17 -14q-117 0 -232.5 2t-232.5 12q-10 2 -16 7t-8 28l-13 133q-29 -27 -69.5 -48.5t-50.5 -21.5 q-18 0 -36 29t-24 49l-18 -119q-4 -16 -10.5 -26.5t-28 -15.5t-66.5 -7t-125 -2q-166 0 -234.5 4t-68.5 19zM330 1532q0 31 1 78.5t9 76.5q29 37 70 65.5t102 28.5q45 0 84 -10t71.5 -21.5t61.5 -21.5t53 -10q45 0 85 17.5t71 60.5q10 10 20 10q8 0 16.5 -7.5t8.5 -17.5 q0 -41 -3 -94t-9 -88q-43 -47 -90.5 -68.5t-108.5 -21.5q-39 0 -73.5 9t-65.5 21.5t-59.5 21.5t-55.5 9q-41 0 -74.5 -19t-68.5 -62q-8 -8 -19 -9q-16 0 -21 15.5t-5 36.5zM559 328q57 41 81 55t40 14q12 0 26.5 -10t45.5 -51q-20 98 -41 194.5t-49 194.5 q-35 -98 -58.5 -196.5t-44.5 -200.5z" />
<glyph unicode="&#xc4;" horiz-adv-x="1271" d="M10 -14q0 8 4 20q82 338 169 669t192 660q4 10 14 16.5t37 9.5t73 4t122 1q106 0 174.5 -2t108.5 -6t55.5 -11.5t17.5 -15.5q80 -348 148.5 -686t134.5 -682v-6q0 -14 -17 -14q-117 0 -232.5 2t-232.5 12q-10 2 -16 7t-8 28l-13 133q-29 -27 -69.5 -48.5t-50.5 -21.5 q-18 0 -36 29t-24 49l-18 -119q-4 -16 -10.5 -26.5t-28 -15.5t-66.5 -7t-125 -2q-166 0 -234.5 4t-68.5 19zM314 1769q0 29 30.5 35t100.5 6q55 0 87 -1t48 -8t20 -22.5t4 -46.5q0 -53 -3 -113.5t-9 -95.5q-4 -18 -22.5 -23t-73.5 -5q-31 0 -62.5 1t-58.5 6t-43 12t-16 20 q0 33 2 66.5t2 68.5q0 25 -3 50t-3 50zM559 328q57 41 81 55t40 14q12 0 26.5 -10t45.5 -51q-20 98 -41 194.5t-49 194.5q-35 -98 -58.5 -196.5t-44.5 -200.5zM748 1769q0 29 29.5 35t99.5 6q55 0 88 -1t49 -8t20.5 -22.5t4.5 -46.5q0 -53 -3 -113.5t-10 -95.5 q-4 -18 -23.5 -23t-72.5 -5q-31 0 -63.5 1t-58 6t-42 12t-16.5 20q0 33 2 66.5t2 68.5q0 25 -3 50t-3 50z" />
<glyph unicode="&#xc5;" horiz-adv-x="1271" d="M10 -14q0 8 4 20q82 338 169 669t192 660q4 10 14 16.5t37 9.5t73 4t122 1q106 0 174.5 -2t108.5 -6t55.5 -11.5t17.5 -15.5q80 -348 148.5 -686t134.5 -682v-6q0 -14 -17 -14q-117 0 -232.5 2t-232.5 12q-10 2 -16 7t-8 28l-13 133q-29 -27 -69.5 -48.5t-50.5 -21.5 q-18 0 -36 29t-24 49l-18 -119q-4 -16 -10.5 -26.5t-28 -15.5t-66.5 -7t-125 -2q-166 0 -234.5 4t-68.5 19zM469 1644q0 86 49 142.5t160 56.5q109 0 156.5 -56.5t47.5 -142.5q0 -49 -17 -90t-46 -69.5t-65.5 -45t-75.5 -16.5t-77 15.5t-66.5 45t-47 70.5t-18.5 90zM559 328 q57 41 81 55t40 14q12 0 26.5 -10t45.5 -51q-20 98 -41 194.5t-49 194.5q-35 -98 -58.5 -196.5t-44.5 -200.5zM600 1609q0 -41 22.5 -69.5t57.5 -28.5q31 0 53 28.5t22 69.5t-14 71t-61 30t-63.5 -30t-16.5 -71z" />
<glyph unicode="&#xc6;" horiz-adv-x="1728" d="M16 -25l7 19q127 338 258 670.5t286 660.5q6 12 46 19.5t129 12.5t235.5 7t365.5 2h297q17 0 17 -16q0 -113 -6 -219.5t-16.5 -190.5t-23 -135t-22.5 -51q-18 0 -94 6t-238 6q-4 -35 -5 -74t-1 -74q82 0 167 8.5t130 8.5q35 0 47.5 -7t12.5 -22q-8 -47 -19.5 -88 t-27.5 -88q-10 -23 -187 -22h-60.5t-66.5 2q-4 -29 -6 -73t-2 -85q76 -6 158 -6q45 0 88 3t86 3q16 0 16 -29q0 -72 -2 -123t-8 -104q-2 -6 -22.5 -14.5t-67.5 -14.5t-127 -10t-199 -4q-78 0 -134 1t-99 3t-76 5t-64 5q-4 0 -8 4t-7 18.5t-5 43t-2 82.5q-16 -12 -36.5 -25.5 t-40 -23t-34 -15.5t-20.5 -6q-18 0 -31.5 28.5t-15.5 49.5l-37 -119q-6 -16 -13.5 -26.5t-31 -15.5t-68.5 -7t-125 -2q-164 0 -231.5 4t-65.5 18zM612 317q61 41 87 55.5t42 14.5q12 0 24.5 -11t37.5 -50q-4 98 -11.5 193t-23.5 194q-47 -96 -85 -195.5t-71 -200.5z" />
<glyph unicode="&#xc7;" horiz-adv-x="1234" d="M72 688q0 152 53 284t148.5 230t229.5 155.5t294 57.5q70 0 119 -3t84.5 -7t61 -11.5t48.5 -15.5q14 -6 26.5 -58t19.5 -131t11 -176.5t4 -195.5q0 -16 -18 -16q-16 0 -52 9t-120 9q-74 0 -131 -22.5t-97 -62.5t-60.5 -94t-20.5 -118q0 -59 20.5 -114.5t58 -96.5 t93 -65.5t125.5 -24.5q37 0 59.5 4t37.5 8.5t23.5 8.5t16.5 4q10 0 17 -9.5t7 -25.5q0 -10 -1 -55t-7 -115q0 -16 -26.5 -31.5t-68.5 -28t-96 -19.5t-112 -7q-141 0 -275 40t-239.5 128t-169 227t-63.5 338zM467 -248q0 6 12.5 15.5t16.5 13.5q53 47 117.5 85t136.5 38 q18 -2 35.5 -37t32 -80t23.5 -87t9 -58q0 -12 -12 -29q-20 -31 -35.5 -52.5t-33 -41t-37 -39l-47.5 -47.5q-10 -8 -20.5 -14.5t-18.5 -6.5q-16 0 -37 19.5t-21 36.5q0 6 6 12q76 76 76 100q0 14 -16 14q-23 0 -50.5 -14t-35.5 -14t-24.5 23.5t-34 54t-30 61.5t-12.5 47z" />
<glyph unicode="&#xc8;" horiz-adv-x="1124" d="M80 1292q0 18 28.5 31.5t103.5 23t205 14.5t335 5h295q16 0 16 -16q0 -113 -6 -219.5t-15.5 -190.5t-21.5 -135t-23 -51q-20 0 -96 6t-237 6q-4 -35 -4.5 -74t-0.5 -74q82 0 166 8.5t131 8.5q35 0 47.5 -7t12.5 -22q-8 -47 -19.5 -88t-27.5 -88q-10 -23 -187 -22h-60.5 t-66.5 2q-4 -29 -6 -73t-2 -85q76 -6 158 -6q43 0 87 3t87 3q16 0 16 -29q0 -72 -2 -123t-8 -104q-2 -8 -20.5 -15.5t-66.5 -13.5t-130 -9t-211 -3q-117 0 -191.5 1t-117.5 6t-60.5 17.5t-19.5 34.5q-12 78 -23.5 198t-20.5 255t-17.5 274.5t-14.5 255t-9 196.5t-3 99z M265 1575q0 104 6 158.5t43 54.5q20 0 33.5 -8.5t56.5 -28.5q76 -35 152.5 -66t148.5 -53q31 -10 31 -35q0 -27 -2 -54.5t-8.5 -50t-15.5 -37t-21 -14.5q-18 0 -39 5q-98 16 -187.5 39.5t-173.5 60.5q-10 4 -17 11t-7 18z" />
<glyph unicode="&#xc9;" horiz-adv-x="1124" d="M80 1292q0 18 28.5 31.5t103.5 23t205 14.5t335 5h295q16 0 16 -16q0 -113 -6 -219.5t-15.5 -190.5t-21.5 -135t-23 -51q-20 0 -96 6t-237 6q-4 -35 -4.5 -74t-0.5 -74q82 0 166 8.5t131 8.5q35 0 47.5 -7t12.5 -22q-8 -47 -19.5 -88t-27.5 -88q-10 -23 -187 -22h-60.5 t-66.5 2q-4 -29 -6 -73t-2 -85q76 -6 158 -6q43 0 87 3t87 3q16 0 16 -29q0 -72 -2 -123t-8 -104q-2 -8 -20.5 -15.5t-66.5 -13.5t-130 -9t-211 -3q-117 0 -191.5 1t-117.5 6t-60.5 17.5t-19.5 34.5q-12 78 -23.5 198t-20.5 255t-17.5 274.5t-14.5 255t-9 196.5t-3 99z M387 1597q0 23 32 35q72 23 149 53.5t153 65.5q20 10 33.5 17t22.5 11t16 6.5t18 2.5q35 0 41 -54.5t6 -158.5q0 -20 -23 -29q-86 -37 -174 -60.5t-186 -39.5q-10 -2 -21.5 -3.5t-19.5 -1.5q-12 0 -21.5 14.5t-15.5 37t-8 50t-2 54.5z" />
<glyph unicode="&#xca;" horiz-adv-x="1124" d="M80 1292q0 18 28.5 31.5t103.5 23t205 14.5t335 5h295q16 0 16 -16q0 -113 -6 -219.5t-15.5 -190.5t-21.5 -135t-23 -51q-20 0 -96 6t-237 6q-4 -35 -4.5 -74t-0.5 -74q82 0 166 8.5t131 8.5q35 0 47.5 -7t12.5 -22q-8 -47 -19.5 -88t-27.5 -88q-10 -23 -187 -22h-60.5 t-66.5 2q-4 -29 -6 -73t-2 -85q76 -6 158 -6q43 0 87 3t87 3q16 0 16 -29q0 -72 -2 -123t-8 -104q-2 -8 -20.5 -15.5t-66.5 -13.5t-130 -9t-211 -3q-117 0 -191.5 1t-117.5 6t-60.5 17.5t-19.5 34.5q-12 78 -23.5 198t-20.5 255t-17.5 274.5t-14.5 255t-9 196.5t-3 99z M256 1595q0 8 5 16.5t11 18.5q45 63 93 111.5t112 95.5q4 2 13 7t28 5q12 0 37.5 -1t54.5 -4t54.5 -9.5t35.5 -16.5q41 -57 92 -106t107 -94q10 -10 10 -23q0 -8 -13.5 -28.5t-31.5 -42t-38.5 -38t-35.5 -16.5h-12t-14 4q-51 31 -97.5 69t-85.5 91q-53 -23 -99 -64t-89 -94 q-4 -4 -10 -5t-11 -1q-6 0 -25.5 11.5t-40 29.5t-35.5 41t-15 43z" />
<glyph unicode="&#xcb;" horiz-adv-x="1124" d="M80 1292q0 18 28.5 31.5t103.5 23t205 14.5t335 5h295q16 0 16 -16q0 -113 -6 -219.5t-15.5 -190.5t-21.5 -135t-23 -51q-20 0 -96 6t-237 6q-4 -35 -4.5 -74t-0.5 -74q82 0 166 8.5t131 8.5q35 0 47.5 -7t12.5 -22q-8 -47 -19.5 -88t-27.5 -88q-10 -23 -187 -22h-60.5 t-66.5 2q-4 -29 -6 -73t-2 -85q76 -6 158 -6q43 0 87 3t87 3q16 0 16 -29q0 -72 -2 -123t-8 -104q-2 -8 -20.5 -15.5t-66.5 -13.5t-130 -9t-211 -3q-117 0 -191.5 1t-117.5 6t-60.5 17.5t-19.5 34.5q-12 78 -23.5 198t-20.5 255t-17.5 274.5t-14.5 255t-9 196.5t-3 99z M199 1769q0 29 30.5 35t100.5 6q55 0 87 -1t48 -8t20 -22.5t4 -46.5q0 -53 -3 -113.5t-9 -95.5q-4 -18 -22.5 -23t-73.5 -5q-31 0 -62.5 1t-58.5 6t-43 12t-16 20q0 33 2 66.5t2 68.5q0 25 -3 50t-3 50zM633 1769q0 29 29.5 35t99.5 6q55 0 88 -1t49 -8t20.5 -22.5 t4.5 -46.5q0 -53 -3 -113.5t-10 -95.5q-4 -18 -23.5 -23t-72.5 -5q-31 0 -63.5 1t-58 6t-42 12t-16.5 20q0 33 2 66.5t2 68.5q0 25 -3 50t-3 50z" />
<glyph unicode="&#xcc;" horiz-adv-x="800" d="M96 1327q0 16 6.5 25.5t36.5 13.5q31 4 88.5 6t114.5 2q90 0 177 -3t167 -13q18 -4 24.5 -7.5t6.5 -17.5q0 -18 -1 -39.5t-2 -58.5t-3 -95.5t-4 -148.5t-5.5 -218t-7.5 -306q-4 -164 -6 -285t-2 -190q0 -27 -12 -31t-25 -4q-41 -2 -82 -2h-82q-74 0 -155.5 4t-141.5 8 q-23 2 -32 15.5t-11 48.5q-20 293 -34.5 623.5t-14.5 672.5zM103 1575q0 104 6 158.5t43 54.5q20 0 33.5 -8.5t56.5 -28.5q76 -35 152.5 -66t148.5 -53q31 -10 31 -35q0 -27 -2 -54.5t-8.5 -50t-15.5 -37t-21 -14.5q-18 0 -39 5q-98 16 -187.5 39.5t-173.5 60.5 q-10 4 -17 11t-7 18z" />
<glyph unicode="&#xcd;" horiz-adv-x="800" d="M96 1327q0 16 6.5 25.5t36.5 13.5q31 4 88.5 6t114.5 2q90 0 177 -3t167 -13q18 -4 24.5 -7.5t6.5 -17.5q0 -18 -1 -39.5t-2 -58.5t-3 -95.5t-4 -148.5t-5.5 -218t-7.5 -306q-4 -164 -6 -285t-2 -190q0 -27 -12 -31t-25 -4q-41 -2 -82 -2h-82q-74 0 -155.5 4t-141.5 8 q-23 2 -32 15.5t-11 48.5q-20 293 -34.5 623.5t-14.5 672.5zM226 1597q0 23 32 35q72 23 149 53.5t153 65.5q20 10 33.5 17t22.5 11t16 6.5t18 2.5q35 0 41 -54.5t6 -158.5q0 -20 -23 -29q-86 -37 -174 -60.5t-186 -39.5q-10 -2 -21.5 -3.5t-19.5 -1.5q-12 0 -21.5 14.5 t-15.5 37t-8 50t-2 54.5z" />
<glyph unicode="&#xce;" horiz-adv-x="800" d="M95 1595q0 8 5 16.5t11 18.5q45 63 93 111.5t112 95.5q4 2 13 7t28 5q12 0 37.5 -1t54.5 -4t54.5 -9.5t35.5 -16.5q41 -57 92 -106t107 -94q10 -10 10 -23q0 -8 -13.5 -28.5t-31.5 -42t-38.5 -38t-35.5 -16.5h-12t-14 4q-51 31 -97.5 69t-85.5 91q-53 -23 -99 -64 t-89 -94q-4 -4 -10 -5t-11 -1q-6 0 -25.5 11.5t-40 29.5t-35.5 41t-15 43zM96 1327q0 16 6.5 25.5t36.5 13.5q31 4 88.5 6t114.5 2q90 0 177 -3t167 -13q18 -4 24.5 -7.5t6.5 -17.5q0 -18 -1 -39.5t-2 -58.5t-3 -95.5t-4 -148.5t-5.5 -218t-7.5 -306q-4 -164 -6 -285 t-2 -190q0 -27 -12 -31t-25 -4q-41 -2 -82 -2h-82q-74 0 -155.5 4t-141.5 8q-23 2 -32 15.5t-11 48.5q-20 293 -34.5 623.5t-14.5 672.5z" />
<glyph unicode="&#xcf;" horiz-adv-x="800" d="M41 1769q0 29 30.5 35t100.5 6q55 0 87 -1t48 -8t20 -22.5t4 -46.5q0 -53 -3 -113.5t-9 -95.5q-4 -18 -22.5 -23t-73.5 -5q-31 0 -62.5 1t-58.5 6t-43 12t-16 20q0 33 2 66.5t2 68.5q0 25 -3 50t-3 50zM96 1327q0 16 6.5 25.5t36.5 13.5q31 4 88.5 6t114.5 2q90 0 177 -3 t167 -13q18 -4 24.5 -7.5t6.5 -17.5q0 -18 -1 -39.5t-2 -58.5t-3 -95.5t-4 -148.5t-5.5 -218t-7.5 -306q-4 -164 -6 -285t-2 -190q0 -27 -12 -31t-25 -4q-41 -2 -82 -2h-82q-74 0 -155.5 4t-141.5 8q-23 2 -32 15.5t-11 48.5q-20 293 -34.5 623.5t-14.5 672.5zM475 1769 q0 29 29.5 35t99.5 6q55 0 88 -1t49 -8t20.5 -22.5t4.5 -46.5q0 -53 -3 -113.5t-10 -95.5q-4 -18 -23.5 -23t-72.5 -5q-31 0 -63.5 1t-58 6t-42 12t-16.5 20q0 33 2 66.5t2 68.5q0 25 -3 50t-3 50z" />
<glyph unicode="&#xd0;" horiz-adv-x="1296" d="M0 436q6 47 18.5 89t28.5 89q6 12 80 19q-4 74 -4 148.5v152.5q0 98 2 200.5t6 200.5q2 29 11.5 39t25.5 15q39 6 103.5 9t179.5 3q180 0 325.5 -50.5t246.5 -141.5t156.5 -218t55.5 -282q0 -203 -66.5 -347.5t-176 -238.5t-251 -138t-290.5 -44q-37 0 -85.5 6t-92.5 18 t-76.5 27.5t-38.5 34.5q-8 96 -13.5 191t-9.5 194q-23 -4 -42 -4h-36q-35 0 -46 8t-11 20zM600 319.5q0 -51.5 2 -102.5q35 0 81 21.5t86 61.5t67.5 96t27.5 128q0 125 -65.5 201t-188.5 80q-4 -39 -6 -80t-2 -78q33 2 59.5 4t49.5 2q35 0 46 -7t11 -21q-8 -47 -19.5 -88 t-27.5 -88q-4 -10 -35 -14.5t-86 -8.5v-106.5z" />
<glyph unicode="&#xd1;" horiz-adv-x="1269" d="M90 1071v234q0 37 14.5 47t55.5 14q84 4 138 6t87 2q49 0 72.5 -7t40.5 -24q49 -47 97 -104t92 -118.5t82 -122t69 -113.5q0 104 -3.5 210.5t-3.5 209.5q0 29 2.5 41t10.5 18q4 2 9 4t18.5 3t38 1h67.5q66 0 103.5 -1t56 -3t23.5 -7t7 -11q2 -10 4.5 -24.5t3.5 -46.5 t1 -89v-154q0 -123 2 -246.5t2 -263.5q0 -199 -1 -322.5t-5 -154.5q-4 -47 -8.5 -62.5t-12.5 -21.5q-6 -4 -13 -6t-25.5 -5t-52.5 -4t-91 -1q-80 0 -127 2t-75 11t-45 28.5t-40 56.5q-51 82 -125 182.5t-149 192.5q2 -76 4 -134.5t5 -105.5t5 -86t2 -78q0 -20 -4 -33.5 t-18.5 -20.5t-43 -10t-77.5 -3q-47 0 -78 1t-49.5 3t-27.5 7t-15 11q-12 10 -14.5 44t-2.5 71v110.5t-1 172t-2 215t-2 239.5t-1 246zM308 1532q0 31 1 78.5t9 76.5q29 37 70 65.5t102 28.5q45 0 84 -10t71.5 -21.5t61.5 -21.5t53 -10q45 0 85 17.5t71 60.5q10 10 20 10 q8 0 16.5 -7.5t8.5 -17.5q0 -41 -3 -94t-9 -88q-43 -47 -90.5 -68.5t-108.5 -21.5q-39 0 -73.5 9t-65.5 21.5t-59.5 21.5t-55.5 9q-41 0 -74.5 -19t-68.5 -62q-8 -8 -19 -9q-16 0 -21 15.5t-5 36.5z" />
<glyph unicode="&#xd2;" horiz-adv-x="1343" d="M66 723q0 150 42 275.5t121.5 218t193.5 144.5t259 52t257 -54t186.5 -146.5t113.5 -215.5t39 -260q0 -150 -38 -291t-113.5 -251.5t-187.5 -177t-261 -66.5q-139 0 -252 54t-192.5 154.5t-123.5 244t-44 319.5zM375 1575q0 104 6 158.5t43 54.5q20 0 33.5 -8.5 t56.5 -28.5q76 -35 152.5 -66t148.5 -53q31 -10 31 -35q0 -27 -2 -54.5t-8.5 -50t-15.5 -37t-21 -14.5q-18 0 -39 5q-98 16 -187.5 39.5t-173.5 60.5q-10 4 -17 11t-7 18zM535 557q0 -115 38 -188.5t95 -73.5q59 0 96 74.5t37 187.5q0 104 -30 146t-95 42 q-82 0 -111.5 -41.5t-29.5 -146.5z" />
<glyph unicode="&#xd3;" horiz-adv-x="1343" d="M66 723q0 150 42 275.5t121.5 218t193.5 144.5t259 52t257 -54t186.5 -146.5t113.5 -215.5t39 -260q0 -150 -38 -291t-113.5 -251.5t-187.5 -177t-261 -66.5q-139 0 -252 54t-192.5 154.5t-123.5 244t-44 319.5zM498 1597q0 23 32 35q72 23 149 53.5t153 65.5 q20 10 33.5 17t22.5 11t16 6.5t18 2.5q35 0 41 -54.5t6 -158.5q0 -20 -23 -29q-86 -37 -174 -60.5t-186 -39.5q-10 -2 -21.5 -3.5t-19.5 -1.5q-12 0 -21.5 14.5t-15.5 37t-8 50t-2 54.5zM535 557q0 -115 38 -188.5t95 -73.5q59 0 96 74.5t37 187.5q0 104 -30 146t-95 42 q-82 0 -111.5 -41.5t-29.5 -146.5z" />
<glyph unicode="&#xd4;" horiz-adv-x="1343" d="M66 723q0 150 42 275.5t121.5 218t193.5 144.5t259 52t257 -54t186.5 -146.5t113.5 -215.5t39 -260q0 -150 -38 -291t-113.5 -251.5t-187.5 -177t-261 -66.5q-139 0 -252 54t-192.5 154.5t-123.5 244t-44 319.5zM344 1595q0 8 5 16.5t11 18.5q45 63 93 111.5t112 95.5 q4 2 13 7t28 5q12 0 37.5 -1t54.5 -4t54.5 -9.5t35.5 -16.5q41 -57 92 -106t107 -94q10 -10 10 -23q0 -8 -13.5 -28.5t-31.5 -42t-38.5 -38t-35.5 -16.5h-12t-14 4q-51 31 -97.5 69t-85.5 91q-53 -23 -99 -64t-89 -94q-4 -4 -10 -5t-11 -1q-6 0 -25.5 11.5t-40 29.5 t-35.5 41t-15 43zM535 557q0 -115 38 -188.5t95 -73.5q59 0 96 74.5t37 187.5q0 104 -30 146t-95 42q-82 0 -111.5 -41.5t-29.5 -146.5z" />
<glyph unicode="&#xd5;" horiz-adv-x="1343" d="M66 723q0 150 42 275.5t121.5 218t193.5 144.5t259 52t257 -54t186.5 -146.5t113.5 -215.5t39 -260q0 -150 -38 -291t-113.5 -251.5t-187.5 -177t-261 -66.5q-139 0 -252 54t-192.5 154.5t-123.5 244t-44 319.5zM344 1532q0 31 1 78.5t9 76.5q29 37 70 65.5t102 28.5 q45 0 84 -10t71.5 -21.5t61.5 -21.5t53 -10q45 0 85 17.5t71 60.5q10 10 20 10q8 0 16.5 -7.5t8.5 -17.5q0 -41 -3 -94t-9 -88q-43 -47 -90.5 -68.5t-108.5 -21.5q-39 0 -73.5 9t-65.5 21.5t-59.5 21.5t-55.5 9q-41 0 -74.5 -19t-68.5 -62q-8 -8 -19 -9q-16 0 -21 15.5 t-5 36.5zM535 557q0 -115 38 -188.5t95 -73.5q59 0 96 74.5t37 187.5q0 104 -30 146t-95 42q-82 0 -111.5 -41.5t-29.5 -146.5z" />
<glyph unicode="&#xd6;" horiz-adv-x="1343" d="M66 723q0 150 42 275.5t121.5 218t193.5 144.5t259 52t257 -54t186.5 -146.5t113.5 -215.5t39 -260q0 -150 -38 -291t-113.5 -251.5t-187.5 -177t-261 -66.5q-139 0 -252 54t-192.5 154.5t-123.5 244t-44 319.5zM310 1769q0 29 30.5 35t100.5 6q55 0 87 -1t48 -8 t20 -22.5t4 -46.5q0 -53 -3 -113.5t-9 -95.5q-4 -18 -22.5 -23t-73.5 -5q-31 0 -62.5 1t-58.5 6t-43 12t-16 20q0 33 2 66.5t2 68.5q0 25 -3 50t-3 50zM535 557q0 -115 38 -188.5t95 -73.5q59 0 96 74.5t37 187.5q0 104 -30 146t-95 42q-82 0 -111.5 -41.5t-29.5 -146.5z M744 1769q0 29 29.5 35t99.5 6q55 0 88 -1t49 -8t20.5 -22.5t4.5 -46.5q0 -53 -3 -113.5t-10 -95.5q-4 -18 -23.5 -23t-72.5 -5q-31 0 -63.5 1t-58 6t-42 12t-16.5 20q0 33 2 66.5t2 68.5q0 25 -3 50t-3 50z" />
<glyph unicode="&#xd7;" horiz-adv-x="987" d="M115 399q0 4 6 9l235 235l-221 219q-4 2 -4 10q0 6 4 11l103 133q4 0 6 2t6 2l8 -4l236 -236l231 236q4 0 6 2t6 2q2 0 8.5 -4t6.5 -8l86 -142l4 -8q0 -8 -6 -10l-205 -205l233 -233q2 -4 4 -5.5t2 -5.5t-4 -9t-8 -5l-141 -88q-4 -2 -8 -2q-6 0 -11 4l-204 207l-222 -221 q-2 -2 -8 -2q-8 0 -12 2l-131 104q-6 2 -6 10z" />
<glyph unicode="&#xd8;" horiz-adv-x="1343" d="M66 723q0 150 42 275.5t121.5 218t193.5 144.5t259 52q117 0 212 -35t167 -98q111 147 123 147h8q8 -6 27.5 -26.5t38 -45t33 -50t14.5 -41.5q0 -8 -31 -47t-82 -105q86 -164 86 -375q0 -150 -38 -291t-113.5 -251.5t-187.5 -177t-261 -66.5q-170 0 -297 78 q-43 -59 -74 -108.5t-45 -49.5q-10 0 -38.5 11.5t-58.5 25.5t-52.5 29.5t-22.5 25.5q0 6 12.5 25.5t32 46t44 60.5t50.5 69q-78 100 -120.5 241.5t-42.5 317.5zM483 621q0 -55 6 -101q72 84 137.5 170t125.5 180q-31 12 -72 13q-57 0 -95 -14.5t-60.5 -45t-32 -80.5 t-9.5 -122zM580 297q43 -39 88 -39q41 0 74.5 27.5t57 77t37 115t13.5 143.5v19t-2 19q-72 -86 -138.5 -175t-129.5 -187z" />
<glyph unicode="&#xd9;" horiz-adv-x="1243" d="M72 1274q0 35 9 50t38 19q84 14 147.5 17.5t122.5 3.5h102.5t131.5 -2q53 -2 72.5 -11.5t19.5 -60.5q0 -223 -6.5 -458.5t-6.5 -458.5q0 -35 13.5 -63.5t58.5 -28.5q31 0 47.5 14t23.5 37.5t9 50.5t2 51q0 209 -4 427t-4 454q0 39 23.5 49t109.5 10q57 0 94 -2t58.5 -5 t31 -8t13.5 -13q4 -10 4 -29q0 -70 -4 -179.5t-9.5 -228t-9.5 -233.5t-4 -195q0 -117 -21.5 -214t-81 -166.5t-163 -108.5t-266.5 -39q-289 0 -416 131t-127 395q0 106 -1 224t-3 227.5t-3 200t-1 143.5zM344 1575q0 104 6 158.5t43 54.5q20 0 33.5 -8.5t56.5 -28.5 q76 -35 152.5 -66t148.5 -53q31 -10 31 -35q0 -27 -2 -54.5t-8.5 -50t-15.5 -37t-21 -14.5q-18 0 -39 5q-98 16 -187.5 39.5t-173.5 60.5q-10 4 -17 11t-7 18z" />
<glyph unicode="&#xda;" horiz-adv-x="1243" d="M72 1274q0 35 9 50t38 19q84 14 147.5 17.5t122.5 3.5h102.5t131.5 -2q53 -2 72.5 -11.5t19.5 -60.5q0 -223 -6.5 -458.5t-6.5 -458.5q0 -35 13.5 -63.5t58.5 -28.5q31 0 47.5 14t23.5 37.5t9 50.5t2 51q0 209 -4 427t-4 454q0 39 23.5 49t109.5 10q57 0 94 -2t58.5 -5 t31 -8t13.5 -13q4 -10 4 -29q0 -70 -4 -179.5t-9.5 -228t-9.5 -233.5t-4 -195q0 -117 -21.5 -214t-81 -166.5t-163 -108.5t-266.5 -39q-289 0 -416 131t-127 395q0 106 -1 224t-3 227.5t-3 200t-1 143.5zM447 1597q0 23 32 35q72 23 149 53.5t153 65.5q20 10 33.5 17 t22.5 11t16 6.5t18 2.5q35 0 41 -54.5t6 -158.5q0 -20 -23 -29q-86 -37 -174 -60.5t-186 -39.5q-10 -2 -21.5 -3.5t-19.5 -1.5q-12 0 -21.5 14.5t-15.5 37t-8 50t-2 54.5z" />
<glyph unicode="&#xdb;" horiz-adv-x="1243" d="M72 1274q0 35 9 50t38 19q84 14 147.5 17.5t122.5 3.5h102.5t131.5 -2q53 -2 72.5 -11.5t19.5 -60.5q0 -223 -6.5 -458.5t-6.5 -458.5q0 -35 13.5 -63.5t58.5 -28.5q31 0 47.5 14t23.5 37.5t9 50.5t2 51q0 209 -4 427t-4 454q0 39 23.5 49t109.5 10q57 0 94 -2t58.5 -5 t31 -8t13.5 -13q4 -10 4 -29q0 -70 -4 -179.5t-9.5 -228t-9.5 -233.5t-4 -195q0 -117 -21.5 -214t-81 -166.5t-163 -108.5t-266.5 -39q-289 0 -416 131t-127 395q0 106 -1 224t-3 227.5t-3 200t-1 143.5zM336 1595q0 8 5 16.5t11 18.5q45 63 93 111.5t112 95.5q4 2 13 7 t28 5q12 0 37.5 -1t54.5 -4t54.5 -9.5t35.5 -16.5q41 -57 92 -106t107 -94q10 -10 10 -23q0 -8 -13.5 -28.5t-31.5 -42t-38.5 -38t-35.5 -16.5h-12t-14 4q-51 31 -97.5 69t-85.5 91q-53 -23 -99 -64t-89 -94q-4 -4 -10 -5t-11 -1q-6 0 -25.5 11.5t-40 29.5t-35.5 41t-15 43z " />
<glyph unicode="&#xdc;" horiz-adv-x="1243" d="M72 1274q0 35 9 50t38 19q84 14 147.5 17.5t122.5 3.5h102.5t131.5 -2q53 -2 72.5 -11.5t19.5 -60.5q0 -223 -6.5 -458.5t-6.5 -458.5q0 -35 13.5 -63.5t58.5 -28.5q31 0 47.5 14t23.5 37.5t9 50.5t2 51q0 209 -4 427t-4 454q0 39 23.5 49t109.5 10q57 0 94 -2t58.5 -5 t31 -8t13.5 -13q4 -10 4 -29q0 -70 -4 -179.5t-9.5 -228t-9.5 -233.5t-4 -195q0 -117 -21.5 -214t-81 -166.5t-163 -108.5t-266.5 -39q-289 0 -416 131t-127 395q0 106 -1 224t-3 227.5t-3 200t-1 143.5zM299 1769q0 29 30.5 35t100.5 6q55 0 87 -1t48 -8t20 -22.5t4 -46.5 q0 -53 -3 -113.5t-9 -95.5q-4 -18 -22.5 -23t-73.5 -5q-31 0 -62.5 1t-58.5 6t-43 12t-16 20q0 33 2 66.5t2 68.5q0 25 -3 50t-3 50zM733 1769q0 29 29.5 35t99.5 6q55 0 88 -1t49 -8t20.5 -22.5t4.5 -46.5q0 -53 -3 -113.5t-10 -95.5q-4 -18 -23.5 -23t-72.5 -5 q-31 0 -63.5 1t-58 6t-42 12t-16.5 20q0 33 2 66.5t2 68.5q0 25 -3 50t-3 50z" />
<glyph unicode="&#xdd;" horiz-adv-x="1220" d="M6 1317q0 29 25 33q33 2 87 6t117.5 7t128 5t115.5 2q12 0 24.5 -2t16.5 -8q25 -92 59.5 -178t71.5 -170q35 80 67 161.5t62 172.5q2 8 8.5 13t19.5 8t36.5 4t62.5 1q25 0 65 -1t83 -4t81.5 -8t61.5 -11q16 -6 16 -27q0 -16 -4 -23q-78 -170 -162.5 -330.5t-177.5 -320.5 q6 -78 8.5 -158.5t2.5 -158.5q0 -88 -2 -174t-9 -172q0 -18 -18 -19q-61 -4 -120.5 -6t-121.5 -2q-61 0 -121.5 2t-119.5 6q-18 2 -19 19q4 86 6 172t2 172q0 78 -2 159.5t-6 159.5q-96 154 -188 312.5t-152 330.5q-2 8 -3 14.5t-1 12.5zM457 1597q0 23 32 35 q72 23 149 53.5t153 65.5q20 10 33.5 17t22.5 11t16 6.5t18 2.5q35 0 41 -54.5t6 -158.5q0 -20 -23 -29q-86 -37 -174 -60.5t-186 -39.5q-10 -2 -21.5 -3.5t-19.5 -1.5q-12 0 -21.5 14.5t-15.5 37t-8 50t-2 54.5z" />
<glyph unicode="&#xde;" horiz-adv-x="1452" d="M90 1280q0 41 8 58.5t35 21.5q45 4 134 6t177 2q61 0 122 -1t106 -5q16 -2 25.5 -8t13.5 -23v-76q0 -139 -13 -276q20 2 40 2h36q190 0 314 -43t197 -106.5t100.5 -138.5t27.5 -136q0 -123 -56.5 -210t-144.5 -142t-195.5 -81t-209.5 -26h-37.5t-38.5 2l-10 -77 q-6 -35 -26.5 -46.5t-82.5 -15.5q-49 -2 -99 -3t-103 -1q-121 0 -234 6q-25 2 -32 15.5t-7 46.5q0 154 -7 306t-16.5 308t-16.5 315.5t-7 325.5zM752 252q113 0 174 36.5t61 110.5q0 47 -43 71t-100 24q-16 0 -30.5 -2.5t-29.5 -6.5z" />
<glyph unicode="&#xdf;" horiz-adv-x="1679" d="M63 748q0 82 30 154.5t94.5 125.5t169 84t255.5 31q41 0 69 -6t32 -29q12 -49 21 -105.5t15.5 -111.5t10.5 -103.5t4 -82.5q0 -29 -29 -29q-16 0 -24.5 1t-16.5 1q-55 0 -78.5 -21.5t-23.5 -52.5q0 -29 24 -61q43 -61 73 -122t30 -126q0 -86 -34 -148.5t-95.5 -102.5 t-146.5 -58.5t-185 -18.5q-35 0 -52.5 6.5t-21.5 28.5q-8 29 -14 66.5t-6 76.5q0 33 29 33q6 0 20 -1t31 -1q16 0 35.5 2t37 10.5t29.5 21.5t12 38q0 33 -21.5 59.5t-76.5 69.5q-98 78 -147.5 166t-49.5 205zM903 748q0 82 30 154.5t94.5 125.5t169 84t255.5 31q41 0 69 -6 t32 -29q12 -49 21 -105.5t15.5 -111.5t10.5 -103.5t4 -82.5q0 -29 -29 -29q-16 0 -24.5 1t-16.5 1q-55 0 -78.5 -21.5t-23.5 -52.5q0 -29 24 -61q43 -61 73 -122t30 -126q0 -86 -34 -148.5t-95.5 -102.5t-146.5 -58.5t-185 -18.5q-35 0 -52.5 6.5t-21.5 28.5q-8 29 -14 66.5 t-6 76.5q0 33 29 33q6 0 20 -1t31 -1q16 0 35.5 2t37 10.5t29.5 21.5t12 38q0 33 -21.5 59.5t-76.5 69.5q-98 78 -147.5 166t-49.5 205z" />
<glyph unicode="&#xe0;" horiz-adv-x="1052" d="M20 10v10.5t3 16.5q59 258 128.5 513t147.5 509q4 12 14.5 18t33 9.5t61 4.5t100.5 1q86 0 142.5 -2.5t88 -7.5t45 -12t17.5 -17q61 -270 115.5 -533.5t101.5 -531.5q0 -33 -31 -33q-92 0 -177 1t-177 11q-12 4 -20.5 10.5t-12.5 30.5q-4 18 -5 32.5t-3 41.5 q-25 -16 -51.5 -27.5t-32.5 -11.5q-10 0 -24.5 7t-20.5 18l-8 -43q-2 -18 -6.5 -28.5t-21.5 -16t-55 -6.5t-106 -1q-80 0 -128 1t-74.5 5.5t-35 11.5t-8.5 19zM250 1303q0 104 6 158.5t43 54.5q20 0 33.5 -8.5t56.5 -28.5q76 -35 152.5 -66t148.5 -53q31 -10 31 -35 q0 -27 -2 -54.5t-8.5 -50t-15.5 -37t-21 -14.5q-18 0 -39 5q-98 16 -187.5 39.5t-173.5 60.5q-10 4 -17 11t-7 18zM467 276q47 29 62.5 35t33.5 6q12 0 35 -10q-10 63 -24.5 116.5t-36.5 133.5q-20 -66 -37 -136.5t-33 -144.5z" />
<glyph unicode="&#xe1;" horiz-adv-x="1052" d="M20 10v10.5t3 16.5q59 258 128.5 513t147.5 509q4 12 14.5 18t33 9.5t61 4.5t100.5 1q86 0 142.5 -2.5t88 -7.5t45 -12t17.5 -17q61 -270 115.5 -533.5t101.5 -531.5q0 -33 -31 -33q-92 0 -177 1t-177 11q-12 4 -20.5 10.5t-12.5 30.5q-4 18 -5 32.5t-3 41.5 q-25 -16 -51.5 -27.5t-32.5 -11.5q-10 0 -24.5 7t-20.5 18l-8 -43q-2 -18 -6.5 -28.5t-21.5 -16t-55 -6.5t-106 -1q-80 0 -128 1t-74.5 5.5t-35 11.5t-8.5 19zM373 1325q0 23 32 35q72 23 149 53.5t153 65.5q20 10 33.5 17t22.5 11t16 6.5t18 2.5q35 0 41 -54.5t6 -158.5 q0 -20 -23 -29q-86 -37 -174 -60.5t-186 -39.5q-10 -2 -21.5 -3.5t-19.5 -1.5q-12 0 -21.5 14.5t-15.5 37t-8 50t-2 54.5zM467 276q47 29 62.5 35t33.5 6q12 0 35 -10q-10 63 -24.5 116.5t-36.5 133.5q-20 -66 -37 -136.5t-33 -144.5z" />
<glyph unicode="&#xe2;" horiz-adv-x="1052" d="M20 10v10.5t3 16.5q59 258 128.5 513t147.5 509q4 12 14.5 18t33 9.5t61 4.5t100.5 1q86 0 142.5 -2.5t88 -7.5t45 -12t17.5 -17q61 -270 115.5 -533.5t101.5 -531.5q0 -33 -31 -33q-92 0 -177 1t-177 11q-12 4 -20.5 10.5t-12.5 30.5q-4 18 -5 32.5t-3 41.5 q-25 -16 -51.5 -27.5t-32.5 -11.5q-10 0 -24.5 7t-20.5 18l-8 -43q-2 -18 -6.5 -28.5t-21.5 -16t-55 -6.5t-106 -1q-80 0 -128 1t-74.5 5.5t-35 11.5t-8.5 19zM219 1323q0 8 5 16.5t11 18.5q45 63 93 111.5t112 95.5q4 2 13 7t28 5q12 0 37.5 -1t54.5 -4t54.5 -9.5 t35.5 -16.5q41 -57 92 -106t107 -94q10 -10 10 -23q0 -8 -13.5 -28.5t-31.5 -42t-38.5 -38t-35.5 -16.5h-12t-14 4q-51 31 -97.5 69t-85.5 91q-53 -23 -99 -64t-89 -94q-4 -4 -10 -5t-11 -1q-6 0 -25.5 11.5t-40 29.5t-35.5 41t-15 43zM467 276q47 29 62.5 35t33.5 6 q12 0 35 -10q-10 63 -24.5 116.5t-36.5 133.5q-20 -66 -37 -136.5t-33 -144.5z" />
<glyph unicode="&#xe3;" horiz-adv-x="1052" d="M20 10v10.5t3 16.5q59 258 128.5 513t147.5 509q4 12 14.5 18t33 9.5t61 4.5t100.5 1q86 0 142.5 -2.5t88 -7.5t45 -12t17.5 -17q61 -270 115.5 -533.5t101.5 -531.5q0 -33 -31 -33q-92 0 -177 1t-177 11q-12 4 -20.5 10.5t-12.5 30.5q-4 18 -5 32.5t-3 41.5 q-25 -16 -51.5 -27.5t-32.5 -11.5q-10 0 -24.5 7t-20.5 18l-8 -43q-2 -18 -6.5 -28.5t-21.5 -16t-55 -6.5t-106 -1q-80 0 -128 1t-74.5 5.5t-35 11.5t-8.5 19zM219 1260q0 31 1 78.5t9 76.5q29 37 70 65.5t102 28.5q45 0 84 -10t71.5 -21.5t61.5 -21.5t53 -10q45 0 85 17.5 t71 60.5q10 10 20 10q8 0 16.5 -7.5t8.5 -17.5q0 -41 -3 -94t-9 -88q-43 -47 -90.5 -68.5t-108.5 -21.5q-39 0 -73.5 9t-65.5 21.5t-59.5 21.5t-55.5 9q-41 0 -74.5 -19t-68.5 -62q-8 -8 -19 -9q-16 0 -21 15.5t-5 36.5zM467 276q47 29 62.5 35t33.5 6q12 0 35 -10 q-10 63 -24.5 116.5t-36.5 133.5q-20 -66 -37 -136.5t-33 -144.5z" />
<glyph unicode="&#xe4;" horiz-adv-x="1052" d="M20 10v10.5t3 16.5q59 258 128.5 513t147.5 509q4 12 14.5 18t33 9.5t61 4.5t100.5 1q86 0 142.5 -2.5t88 -7.5t45 -12t17.5 -17q61 -270 115.5 -533.5t101.5 -531.5q0 -33 -31 -33q-92 0 -177 1t-177 11q-12 4 -20.5 10.5t-12.5 30.5q-4 18 -5 32.5t-3 41.5 q-25 -16 -51.5 -27.5t-32.5 -11.5q-10 0 -24.5 7t-20.5 18l-8 -43q-2 -18 -6.5 -28.5t-21.5 -16t-55 -6.5t-106 -1q-80 0 -128 1t-74.5 5.5t-35 11.5t-8.5 19zM185 1497q0 29 30.5 35t100.5 6q55 0 87 -1t48 -8t20 -22.5t4 -46.5q0 -53 -3 -113.5t-9 -95.5q-4 -18 -22.5 -23 t-73.5 -5q-31 0 -62.5 1t-58.5 6t-43 12t-16 20q0 33 2 66.5t2 68.5q0 25 -3 50t-3 50zM467 276q47 29 62.5 35t33.5 6q12 0 35 -10q-10 63 -24.5 116.5t-36.5 133.5q-20 -66 -37 -136.5t-33 -144.5zM619 1497q0 29 29.5 35t99.5 6q55 0 88 -1t49 -8t20.5 -22.5t4.5 -46.5 q0 -53 -3 -113.5t-10 -95.5q-4 -18 -23.5 -23t-72.5 -5q-31 0 -63.5 1t-58 6t-42 12t-16.5 20q0 33 2 66.5t2 68.5q0 25 -3 50t-3 50z" />
<glyph unicode="&#xe5;" horiz-adv-x="1052" d="M20 10v10.5t3 16.5q59 258 128.5 513t147.5 509q4 12 14.5 18t33 9.5t61 4.5t100.5 1q86 0 142.5 -2.5t88 -7.5t45 -12t17.5 -17q61 -270 115.5 -533.5t101.5 -531.5q0 -33 -31 -33q-92 0 -177 1t-177 11q-12 4 -20.5 10.5t-12.5 30.5q-4 18 -5 32.5t-3 41.5 q-25 -16 -51.5 -27.5t-32.5 -11.5q-10 0 -24.5 7t-20.5 18l-8 -43q-2 -18 -6.5 -28.5t-21.5 -16t-55 -6.5t-106 -1q-80 0 -128 1t-74.5 5.5t-35 11.5t-8.5 19zM332 1372q0 86 49 142.5t160 56.5q109 0 156.5 -56.5t47.5 -142.5q0 -49 -17 -90t-46 -69.5t-65.5 -45 t-75.5 -16.5t-77 15.5t-66.5 45t-47 70.5t-18.5 90zM463 1337q0 -41 22.5 -69.5t57.5 -28.5q31 0 53 28.5t22 69.5t-14 71t-61 30t-63.5 -30t-16.5 -71zM467 276q47 29 62.5 35t33.5 6q12 0 35 -10q-10 63 -24.5 116.5t-36.5 133.5q-20 -66 -37 -136.5t-33 -144.5z" />
<glyph unicode="&#xe6;" horiz-adv-x="1419" d="M23 -4q88 285 197.5 542t230.5 513q6 12 37.5 20t103.5 13.5t188.5 7.5t288.5 2h229q31 0 31 -31q0 -90 -6 -176t-16.5 -153.5t-22.5 -108.5t-24 -41t-30 1t-45.5 3t-67.5 3t-99 1q-2 -18 -2 -45v-43q55 4 115.5 8t97.5 4q35 0 48 -10t13 -31q-4 -33 -13 -59.5t-24 -65.5 q-12 -29 -161 -28h-82q-4 -18 -4 -44v-49q27 -4 53 -4h51q33 0 65.5 3t69.5 3q20 0 24.5 -12t4.5 -29q0 -55 -1 -96t-7 -82q-2 -8 -19.5 -16t-56.5 -15.5t-103.5 -12.5t-160.5 -5q-59 0 -102.5 1t-75 3t-56 4t-47.5 4q-6 0 -12 3.5t-11.5 13.5t-8.5 28.5t-5 51.5 q-27 -16 -53.5 -26.5t-32.5 -10.5q-12 0 -26.5 6t-18.5 16l-12 -41q-6 -16 -11 -26t-23.5 -16.5t-55.5 -8.5t-105 -2q-139 0 -193 7t-54 26zM516 281q35 23 53.5 29.5t30.5 6.5q18 0 35 -16q-2 59 -7 117.5t-14 118.5q-57 -125 -98 -256z" />
<glyph unicode="&#xe7;" horiz-adv-x="1024" d="M66 551q0 121 43 226.5t120.5 184t184 123.5t235.5 45q55 0 93 -2t66 -6t47 -9t38 -13q14 -6 25.5 -48t18.5 -105.5t10 -141.5t3 -156q0 -31 -30 -31q-12 0 -39 7.5t-95 7.5q-106 0 -163.5 -60.5t-57.5 -152.5q0 -43 14.5 -81t41 -67.5t66.5 -47t89 -17.5q27 0 44.5 3 t28.5 6t18 6t16 3q12 0 24.5 -12t12.5 -31q0 -10 -1 -52t-6 -83q-2 -16 -23.5 -30.5t-57 -25.5t-79.5 -18.5t-91 -7.5q-115 0 -221.5 32t-190.5 102.5t-134 182t-50 269.5zM360 -248q0 6 12.5 15.5t16.5 13.5q53 47 117.5 85t136.5 38q18 -2 35.5 -37t32 -80t23.5 -87t9 -58 q0 -12 -12 -29q-20 -31 -35.5 -52.5t-33 -41t-37 -39l-47.5 -47.5q-10 -8 -20.5 -14.5t-18.5 -6.5q-16 0 -37 19.5t-21 36.5q0 6 6 12q76 76 76 100q0 14 -16 14q-23 0 -50.5 -14t-35.5 -14t-24.5 23.5t-34 54t-30 61.5t-12.5 47z" />
<glyph unicode="&#xe8;" horiz-adv-x="935" d="M70 1018q0 18 22.5 31.5t83 23.5t163.5 15.5t267 5.5h230q30 0 30 -31q0 -90 -7 -176t-17.5 -153.5t-21.5 -108.5t-21 -41t-27.5 1t-46.5 3t-70 3t-100 1q-2 -16 -2 -43v-43q59 2 97 4t62.5 4t40 3t33.5 1q43 0 43 -43q-4 -31 -16 -72t-22 -57q-20 -27 -160 -27h-84 q-2 -18 -3 -42.5t-1 -47.5q29 -4 54.5 -4h51.5q33 0 64.5 3t70.5 3q20 0 25.5 -12t5.5 -29q0 -57 -2 -99t-8 -83q-2 -8 -17.5 -16t-54.5 -14.5t-105.5 -9.5t-170.5 -3q-96 0 -156.5 1t-95.5 6t-50.5 17.5t-17.5 35.5q-8 59 -16 152t-16.5 198.5t-14.5 214t-10 199t-7 153 t-3 76.5zM170 1303q0 104 6 158.5t43 54.5q20 0 33.5 -8.5t56.5 -28.5q76 -35 152.5 -66t148.5 -53q31 -10 31 -35q0 -27 -2 -54.5t-8.5 -50t-15.5 -37t-21 -14.5q-18 0 -39 5q-98 16 -187.5 39.5t-173.5 60.5q-10 4 -17 11t-7 18z" />
<glyph unicode="&#xe9;" horiz-adv-x="935" d="M70 1018q0 18 22.5 31.5t83 23.5t163.5 15.5t267 5.5h230q30 0 30 -31q0 -90 -7 -176t-17.5 -153.5t-21.5 -108.5t-21 -41t-27.5 1t-46.5 3t-70 3t-100 1q-2 -16 -2 -43v-43q59 2 97 4t62.5 4t40 3t33.5 1q43 0 43 -43q-4 -31 -16 -72t-22 -57q-20 -27 -160 -27h-84 q-2 -18 -3 -42.5t-1 -47.5q29 -4 54.5 -4h51.5q33 0 64.5 3t70.5 3q20 0 25.5 -12t5.5 -29q0 -57 -2 -99t-8 -83q-2 -8 -17.5 -16t-54.5 -14.5t-105.5 -9.5t-170.5 -3q-96 0 -156.5 1t-95.5 6t-50.5 17.5t-17.5 35.5q-8 59 -16 152t-16.5 198.5t-14.5 214t-10 199t-7 153 t-3 76.5zM293 1325q0 23 32 35q72 23 149 53.5t153 65.5q20 10 33.5 17t22.5 11t16 6.5t18 2.5q35 0 41 -54.5t6 -158.5q0 -20 -23 -29q-86 -37 -174 -60.5t-186 -39.5q-10 -2 -21.5 -3.5t-19.5 -1.5q-12 0 -21.5 14.5t-15.5 37t-8 50t-2 54.5z" />
<glyph unicode="&#xea;" horiz-adv-x="935" d="M70 1018q0 18 22.5 31.5t83 23.5t163.5 15.5t267 5.5h230q30 0 30 -31q0 -90 -7 -176t-17.5 -153.5t-21.5 -108.5t-21 -41t-27.5 1t-46.5 3t-70 3t-100 1q-2 -16 -2 -43v-43q59 2 97 4t62.5 4t40 3t33.5 1q43 0 43 -43q-4 -31 -16 -72t-22 -57q-20 -27 -160 -27h-84 q-2 -18 -3 -42.5t-1 -47.5q29 -4 54.5 -4h51.5q33 0 64.5 3t70.5 3q20 0 25.5 -12t5.5 -29q0 -57 -2 -99t-8 -83q-2 -8 -17.5 -16t-54.5 -14.5t-105.5 -9.5t-170.5 -3q-96 0 -156.5 1t-95.5 6t-50.5 17.5t-17.5 35.5q-8 59 -16 152t-16.5 198.5t-14.5 214t-10 199t-7 153 t-3 76.5zM142 1323q0 8 5 16.5t11 18.5q45 63 93 111.5t112 95.5q4 2 13 7t28 5q12 0 37.5 -1t54.5 -4t54.5 -9.5t35.5 -16.5q41 -57 92 -106t107 -94q10 -10 10 -23q0 -8 -13.5 -28.5t-31.5 -42t-38.5 -38t-35.5 -16.5h-12t-14 4q-51 31 -97.5 69t-85.5 91q-53 -23 -99 -64 t-89 -94q-4 -4 -10 -5t-11 -1q-6 0 -25.5 11.5t-40 29.5t-35.5 41t-15 43z" />
<glyph unicode="&#xeb;" horiz-adv-x="935" d="M70 1018q0 18 22.5 31.5t83 23.5t163.5 15.5t267 5.5h230q30 0 30 -31q0 -90 -7 -176t-17.5 -153.5t-21.5 -108.5t-21 -41t-27.5 1t-46.5 3t-70 3t-100 1q-2 -16 -2 -43v-43q59 2 97 4t62.5 4t40 3t33.5 1q43 0 43 -43q-4 -31 -16 -72t-22 -57q-20 -27 -160 -27h-84 q-2 -18 -3 -42.5t-1 -47.5q29 -4 54.5 -4h51.5q33 0 64.5 3t70.5 3q20 0 25.5 -12t5.5 -29q0 -57 -2 -99t-8 -83q-2 -8 -17.5 -16t-54.5 -14.5t-105.5 -9.5t-170.5 -3q-96 0 -156.5 1t-95.5 6t-50.5 17.5t-17.5 35.5q-8 59 -16 152t-16.5 198.5t-14.5 214t-10 199t-7 153 t-3 76.5zM105 1497q0 29 30.5 35t100.5 6q55 0 87 -1t48 -8t20 -22.5t4 -46.5q0 -53 -3 -113.5t-9 -95.5q-4 -18 -22.5 -23t-73.5 -5q-31 0 -62.5 1t-58.5 6t-43 12t-16 20q0 33 2 66.5t2 68.5q0 25 -3 50t-3 50zM539 1497q0 29 29.5 35t99.5 6q55 0 88 -1t49 -8t20.5 -22.5 t4.5 -46.5q0 -53 -3 -113.5t-10 -95.5q-4 -18 -23.5 -23t-72.5 -5q-31 0 -63.5 1t-58 6t-42 12t-16.5 20q0 33 2 66.5t2 68.5q0 25 -3 50t-3 50z" />
<glyph unicode="&#xec;" horiz-adv-x="677" d="M45 1303q0 104 6 158.5t43 54.5q20 0 33.5 -8.5t56.5 -28.5q76 -35 152.5 -66t148.5 -53q31 -10 31 -35q0 -27 -2 -54.5t-8.5 -50t-15.5 -37t-21 -14.5q-18 0 -39 5q-98 16 -187.5 39.5t-173.5 60.5q-10 4 -17 11t-7 18zM80 1047q0 16 7 28t42 17q23 4 68 6t90 2 q72 0 140.5 -3t129.5 -10q23 -4 31 -11t8 -27q0 -8 -5 -172t-13 -498q-4 -119 -5.5 -216t-1.5 -151q0 -29 -16 -37t-29 -8q-29 -2 -64.5 -2h-62.5q-59 0 -122.5 3t-110.5 7q-23 2 -34 15.5t-15 48.5q-16 227 -26.5 484t-10.5 524z" />
<glyph unicode="&#xed;" horiz-adv-x="677" d="M80 1047q0 16 7 28t42 17q23 4 68 6t90 2q72 0 140.5 -3t129.5 -10q23 -4 31 -11t8 -27q0 -8 -5 -172t-13 -498q-4 -119 -5.5 -216t-1.5 -151q0 -29 -16 -37t-29 -8q-29 -2 -64.5 -2h-62.5q-59 0 -122.5 3t-110.5 7q-23 2 -34 15.5t-15 48.5q-16 227 -26.5 484t-10.5 524 zM164 1325q0 23 32 35q72 23 149 53.5t153 65.5q20 10 33.5 17t22.5 11t16 6.5t18 2.5q35 0 41 -54.5t6 -158.5q0 -20 -23 -29q-86 -37 -174 -60.5t-186 -39.5q-10 -2 -21.5 -3.5t-19.5 -1.5q-12 0 -21.5 14.5t-15.5 37t-8 50t-2 54.5z" />
<glyph unicode="&#xee;" horiz-adv-x="677" d="M33 1323q0 8 5 16.5t11 18.5q45 63 93 111.5t112 95.5q4 2 13 7t28 5q12 0 37.5 -1t54.5 -4t54.5 -9.5t35.5 -16.5q41 -57 92 -106t107 -94q10 -10 10 -23q0 -8 -13.5 -28.5t-31.5 -42t-38.5 -38t-35.5 -16.5h-12t-14 4q-51 31 -97.5 69t-85.5 91q-53 -23 -99 -64 t-89 -94q-4 -4 -10 -5t-11 -1q-6 0 -25.5 11.5t-40 29.5t-35.5 41t-15 43zM80 1047q0 16 7 28t42 17q23 4 68 6t90 2q72 0 140.5 -3t129.5 -10q23 -4 31 -11t8 -27q0 -8 -5 -172t-13 -498q-4 -119 -5.5 -216t-1.5 -151q0 -29 -16 -37t-29 -8q-29 -2 -64.5 -2h-62.5 q-59 0 -122.5 3t-110.5 7q-23 2 -34 15.5t-15 48.5q-16 227 -26.5 484t-10.5 524z" />
<glyph unicode="&#xef;" horiz-adv-x="753" d="M13 1497q0 29 30.5 35t100.5 6q55 0 87 -1t48 -8t20 -22.5t4 -46.5q0 -53 -3 -113.5t-9 -95.5q-4 -18 -22.5 -23t-73.5 -5q-31 0 -62.5 1t-58.5 6t-43 12t-16 20q0 33 2 66.5t2 68.5q0 25 -3 50t-3 50zM113 1047q0 16 7 28t42 17q23 4 68 6t90 2q72 0 140.5 -3t129.5 -10 q23 -4 31 -11t8 -27q0 -8 -5 -172t-13 -498q-4 -119 -5.5 -216t-1.5 -151q0 -29 -16 -37t-29 -8q-29 -2 -64.5 -2h-62.5q-59 0 -122.5 3t-110.5 7q-23 2 -34 15.5t-15 48.5q-16 227 -26.5 484t-10.5 524zM447 1497q0 29 29.5 35t99.5 6q55 0 88 -1t49 -8t20.5 -22.5 t4.5 -46.5q0 -53 -3 -113.5t-10 -95.5q-4 -18 -23.5 -23t-72.5 -5q-31 0 -63.5 1t-58 6t-42 12t-16.5 20q0 33 2 66.5t2 68.5q0 25 -3 50t-3 50z" />
<glyph unicode="&#xf0;" horiz-adv-x="1073" d="M8 358q6 35 14.5 69t22.5 69q8 20 57 26v217q0 78 1 167t8 149q2 25 13 38t40 19t80 7t131 1q143 0 259 -40t196.5 -112.5t124.5 -175t44 -225.5q0 -162 -53 -277.5t-141 -190t-199.5 -109.5t-230.5 -35q-37 0 -78 5t-77 15.5t-60.5 24.5t-30.5 31q-4 74 -8 142.5 t-6 141.5h-43q-37 0 -50.5 11.5t-13.5 31.5zM510 205q76 18 127 71.5t51 145.5q0 86 -37 142.5t-137 60.5q-2 -27 -3 -44.5t-1 -43.5q18 4 29.5 5t21.5 1q37 0 50.5 -11.5t13.5 -31.5q-4 -35 -13.5 -69t-23.5 -75q-10 -20 -78 -26v-125z" />
<glyph unicode="&#xf1;" horiz-adv-x="1050" d="M80 754.5v273.5q0 41 12 51.5t53 12.5q68 4 111 6t68 2q45 0 64.5 -7.5t35.5 -23.5q66 -63 126 -144t107 -155q0 59 -3 126t-3 132q0 29 5.5 41t13.5 18l9 4.5t16.5 4.5t33 2h55.5q55 0 86 -1t47.5 -4t21.5 -9.5t9 -14.5q2 -8 3 -19.5t2 -38t1 -71.5v-121v-710v-61.5 t-2 -36t-7 -20.5t-13 -14q-6 -4 -12.5 -7t-21.5 -5t-43 -3t-77 -1q-68 0 -104.5 1t-58 6t-32 15.5t-22.5 30.5q-47 76 -97 145.5t-104 137.5q4 -90 9.5 -149.5t5.5 -116.5q0 -20 -4 -33.5t-17.5 -22t-39 -11.5t-68.5 -3q-76 0 -102.5 5t-41.5 16q-16 12 -18 42.5t-2 59.5 v144.5t-1 241.5t-1 284.5zM199 1260q0 31 1 78.5t9 76.5q29 37 70 65.5t102 28.5q45 0 84 -10t71.5 -21.5t61.5 -21.5t53 -10q45 0 85 17.5t71 60.5q10 10 20 10q8 0 16.5 -7.5t8.5 -17.5q0 -41 -3 -94t-9 -88q-43 -47 -90.5 -68.5t-108.5 -21.5q-39 0 -73.5 9t-65.5 21.5 t-59.5 21.5t-55.5 9q-41 0 -74.5 -19t-68.5 -62q-8 -8 -19 -9q-16 0 -21 15.5t-5 36.5z" />
<glyph unicode="&#xf2;" horiz-adv-x="1110" d="M59 575q0 119 34 220.5t98.5 175t156.5 115.5t207 42q117 0 206 -43t149.5 -116.5t91 -172t30.5 -208.5q0 -119 -30.5 -231.5t-90 -200.5t-150.5 -141.5t-210 -53.5q-111 0 -202 43t-155.5 123t-99.5 193.5t-35 254.5zM258 1303q0 104 6 158.5t43 54.5q20 0 33.5 -8.5 t56.5 -28.5q76 -35 152.5 -66t148.5 -53q31 -10 31 -35q0 -27 -2 -54.5t-8.5 -50t-15.5 -37t-21 -14.5q-18 0 -39 5q-98 16 -187.5 39.5t-173.5 60.5q-10 4 -17 11t-7 18zM459 449q0 -80 24.5 -133.5t59.5 -53.5q39 0 62.5 54.5t23.5 132.5q0 72 -19.5 99t-60.5 27 q-53 0 -71.5 -27.5t-18.5 -98.5z" />
<glyph unicode="&#xf3;" horiz-adv-x="1110" d="M59 575q0 119 34 220.5t98.5 175t156.5 115.5t207 42q117 0 206 -43t149.5 -116.5t91 -172t30.5 -208.5q0 -119 -30.5 -231.5t-90 -200.5t-150.5 -141.5t-210 -53.5q-111 0 -202 43t-155.5 123t-99.5 193.5t-35 254.5zM381 1325q0 23 32 35q72 23 149 53.5t153 65.5 q20 10 33.5 17t22.5 11t16 6.5t18 2.5q35 0 41 -54.5t6 -158.5q0 -20 -23 -29q-86 -37 -174 -60.5t-186 -39.5q-10 -2 -21.5 -3.5t-19.5 -1.5q-12 0 -21.5 14.5t-15.5 37t-8 50t-2 54.5zM459 449q0 -80 24.5 -133.5t59.5 -53.5q39 0 62.5 54.5t23.5 132.5q0 72 -19.5 99 t-60.5 27q-53 0 -71.5 -27.5t-18.5 -98.5z" />
<glyph unicode="&#xf4;" horiz-adv-x="1110" d="M59 575q0 119 34 220.5t98.5 175t156.5 115.5t207 42q117 0 206 -43t149.5 -116.5t91 -172t30.5 -208.5q0 -119 -30.5 -231.5t-90 -200.5t-150.5 -141.5t-210 -53.5q-111 0 -202 43t-155.5 123t-99.5 193.5t-35 254.5zM228 1323q0 8 5 16.5t11 18.5q45 63 93 111.5 t112 95.5q4 2 13 7t28 5q12 0 37.5 -1t54.5 -4t54.5 -9.5t35.5 -16.5q41 -57 92 -106t107 -94q10 -10 10 -23q0 -8 -13.5 -28.5t-31.5 -42t-38.5 -38t-35.5 -16.5h-12t-14 4q-51 31 -97.5 69t-85.5 91q-53 -23 -99 -64t-89 -94q-4 -4 -10 -5t-11 -1q-6 0 -25.5 11.5 t-40 29.5t-35.5 41t-15 43zM459 449q0 -80 24.5 -133.5t59.5 -53.5q39 0 62.5 54.5t23.5 132.5q0 72 -19.5 99t-60.5 27q-53 0 -71.5 -27.5t-18.5 -98.5z" />
<glyph unicode="&#xf5;" horiz-adv-x="1110" d="M59 575q0 119 34 220.5t98.5 175t156.5 115.5t207 42q117 0 206 -43t149.5 -116.5t91 -172t30.5 -208.5q0 -119 -30.5 -231.5t-90 -200.5t-150.5 -141.5t-210 -53.5q-111 0 -202 43t-155.5 123t-99.5 193.5t-35 254.5zM228 1260q0 31 1 78.5t9 76.5q29 37 70 65.5 t102 28.5q45 0 84 -10t71.5 -21.5t61.5 -21.5t53 -10q45 0 85 17.5t71 60.5q10 10 20 10q8 0 16.5 -7.5t8.5 -17.5q0 -41 -3 -94t-9 -88q-43 -47 -90.5 -68.5t-108.5 -21.5q-39 0 -73.5 9t-65.5 21.5t-59.5 21.5t-55.5 9q-41 0 -74.5 -19t-68.5 -62q-8 -8 -19 -9 q-16 0 -21 15.5t-5 36.5zM459 449q0 -80 24.5 -133.5t59.5 -53.5q39 0 62.5 54.5t23.5 132.5q0 72 -19.5 99t-60.5 27q-53 0 -71.5 -27.5t-18.5 -98.5z" />
<glyph unicode="&#xf6;" horiz-adv-x="1110" d="M59 575q0 119 34 220.5t98.5 175t156.5 115.5t207 42q117 0 206 -43t149.5 -116.5t91 -172t30.5 -208.5q0 -119 -30.5 -231.5t-90 -200.5t-150.5 -141.5t-210 -53.5q-111 0 -202 43t-155.5 123t-99.5 193.5t-35 254.5zM193 1497q0 29 30.5 35t100.5 6q55 0 87 -1t48 -8 t20 -22.5t4 -46.5q0 -53 -3 -113.5t-9 -95.5q-4 -18 -22.5 -23t-73.5 -5q-31 0 -62.5 1t-58.5 6t-43 12t-16 20q0 33 2 66.5t2 68.5q0 25 -3 50t-3 50zM459 449q0 -80 24.5 -133.5t59.5 -53.5q39 0 62.5 54.5t23.5 132.5q0 72 -19.5 99t-60.5 27q-53 0 -71.5 -27.5 t-18.5 -98.5zM627 1497q0 29 29.5 35t99.5 6q55 0 88 -1t49 -8t20.5 -22.5t4.5 -46.5q0 -53 -3 -113.5t-10 -95.5q-4 -18 -23.5 -23t-72.5 -5q-31 0 -63.5 1t-58 6t-42 12t-16.5 20q0 33 2 66.5t2 68.5q0 25 -3 50t-3 50z" />
<glyph unicode="&#xf7;" d="M72 725q0 14 12 14h858q14 0 14 -12q0 -6 -2 -8l-36 -162q-4 -12 -15 -12h-797q-10 0 -14 14zM246 260q0 18 30 33q76 35 152 71.5t145 81.5q8 4 22.5 10.5t20.5 6.5q18 0 47 -42t55.5 -95.5t46 -101.5t19.5 -58q0 -12 -17.5 -26.5t-27.5 -18.5q-80 -47 -159.5 -83 t-165.5 -69q-16 -6 -23 -6q-16 0 -40.5 36t-47.5 85t-40 98t-17 78zM246 1118q0 18 30 33q76 35 152 71.5t145 81.5q8 4 22.5 10.5t20.5 6.5q18 0 47 -42t55.5 -95.5t46 -101.5t19.5 -58q0 -12 -17.5 -26.5t-27.5 -18.5q-80 -47 -159.5 -83t-165.5 -69q-16 -6 -23 -6 q-16 0 -40.5 36t-47.5 85t-40 98t-17 78z" />
<glyph unicode="&#xf8;" horiz-adv-x="1110" d="M59 575q0 119 34 220.5t98.5 175t156.5 115.5t207 42q88 0 162 -25.5t131 -68.5q41 53 63.5 80t32.5 27t17 -4q8 -6 23 -23.5t30.5 -38t28 -42t12.5 -36.5q0 -8 -14.5 -29.5t-69.5 -88.5q35 -66 48 -138.5t13 -152.5q0 -119 -30.5 -231.5t-90 -200.5t-150.5 -141.5 t-210 -53.5q-127 0 -223 57l-37 -55q-18 -29 -31.5 -46t-30.5 -17q-10 0 -33.5 10t-50 25.5t-46 30t-19.5 24.5q0 12 18.5 37.5t46.5 62.5l39 53q-59 78 -92 188.5t-33 243.5zM418 478.5q0 -7.5 2 -17.5q96 109 166 221q-29 6 -49 6q-66 0 -92.5 -49t-26.5 -143v-17.5z M498 252q22 -16 45 -16q55 0 88 70.5t37 174.5q-47 -57 -89 -113.5t-81 -115.5z" />
<glyph unicode="&#xf9;" d="M66 1004q0 37 10 51t39 20q84 12 149.5 14.5t128.5 2.5h61t89 -5q31 -4 43 -14t12 -57q0 -174 -5 -355.5t-5 -355.5q0 -16 7 -34.5t30 -18.5q33 0 40 33.5t7 68.5q0 160 -3 331t-3 349q0 43 20.5 54.5t99.5 11.5q47 0 78 -1t49.5 -5t27.5 -10.5t13 -16.5q2 -6 2 -14.5 v-16.5q0 -55 -3 -139t-6 -176t-6 -180t-3 -150q0 -96 -17.5 -174t-65.5 -135t-131 -88t-214 -31q-233 0 -336.5 105.5t-103.5 320.5q0 82 -1 170t-1 171t-1 153.5t-1 120.5zM217 1303q0 104 6 158.5t43 54.5q20 0 33.5 -8.5t56.5 -28.5q76 -35 152.5 -66t148.5 -53 q31 -10 31 -35q0 -27 -2 -54.5t-8.5 -50t-15.5 -37t-21 -14.5q-18 0 -39 5q-98 16 -187.5 39.5t-173.5 60.5q-10 4 -17 11t-7 18z" />
<glyph unicode="&#xfa;" d="M66 1004q0 37 10 51t39 20q84 12 149.5 14.5t128.5 2.5h61t89 -5q31 -4 43 -14t12 -57q0 -174 -5 -355.5t-5 -355.5q0 -16 7 -34.5t30 -18.5q33 0 40 33.5t7 68.5q0 160 -3 331t-3 349q0 43 20.5 54.5t99.5 11.5q47 0 78 -1t49.5 -5t27.5 -10.5t13 -16.5q2 -6 2 -14.5 v-16.5q0 -55 -3 -139t-6 -176t-6 -180t-3 -150q0 -96 -17.5 -174t-65.5 -135t-131 -88t-214 -31q-233 0 -336.5 105.5t-103.5 320.5q0 82 -1 170t-1 171t-1 153.5t-1 120.5zM340 1325q0 23 32 35q72 23 149 53.5t153 65.5q20 10 33.5 17t22.5 11t16 6.5t18 2.5 q35 0 41 -54.5t6 -158.5q0 -20 -23 -29q-86 -37 -174 -60.5t-186 -39.5q-10 -2 -21.5 -3.5t-19.5 -1.5q-12 0 -21.5 14.5t-15.5 37t-8 50t-2 54.5z" />
<glyph unicode="&#xfb;" d="M66 1004q0 37 10 51t39 20q84 12 149.5 14.5t128.5 2.5h61t89 -5q31 -4 43 -14t12 -57q0 -174 -5 -355.5t-5 -355.5q0 -16 7 -34.5t30 -18.5q33 0 40 33.5t7 68.5q0 160 -3 331t-3 349q0 43 20.5 54.5t99.5 11.5q47 0 78 -1t49.5 -5t27.5 -10.5t13 -16.5q2 -6 2 -14.5 v-16.5q0 -55 -3 -139t-6 -176t-6 -180t-3 -150q0 -96 -17.5 -174t-65.5 -135t-131 -88t-214 -31q-233 0 -336.5 105.5t-103.5 320.5q0 82 -1 170t-1 171t-1 153.5t-1 120.5zM230 1323q0 8 5 16.5t11 18.5q45 63 93 111.5t112 95.5q4 2 13 7t28 5q12 0 37.5 -1t54.5 -4 t54.5 -9.5t35.5 -16.5q41 -57 92 -106t107 -94q10 -10 10 -23q0 -8 -13.5 -28.5t-31.5 -42t-38.5 -38t-35.5 -16.5h-12t-14 4q-51 31 -97.5 69t-85.5 91q-53 -23 -99 -64t-89 -94q-4 -4 -10 -5t-11 -1q-6 0 -25.5 11.5t-40 29.5t-35.5 41t-15 43z" />
<glyph unicode="&#xfc;" d="M66 1004q0 37 10 51t39 20q84 12 149.5 14.5t128.5 2.5h61t89 -5q31 -4 43 -14t12 -57q0 -174 -5 -355.5t-5 -355.5q0 -16 7 -34.5t30 -18.5q33 0 40 33.5t7 68.5q0 160 -3 331t-3 349q0 43 20.5 54.5t99.5 11.5q47 0 78 -1t49.5 -5t27.5 -10.5t13 -16.5q2 -6 2 -14.5 v-16.5q0 -55 -3 -139t-6 -176t-6 -180t-3 -150q0 -96 -17.5 -174t-65.5 -135t-131 -88t-214 -31q-233 0 -336.5 105.5t-103.5 320.5q0 82 -1 170t-1 171t-1 153.5t-1 120.5zM172 1497q0 29 30.5 35t100.5 6q55 0 87 -1t48 -8t20 -22.5t4 -46.5q0 -53 -3 -113.5t-9 -95.5 q-4 -18 -22.5 -23t-73.5 -5q-31 0 -62.5 1t-58.5 6t-43 12t-16 20q0 33 2 66.5t2 68.5q0 25 -3 50t-3 50zM606 1497q0 29 29.5 35t99.5 6q55 0 88 -1t49 -8t20.5 -22.5t4.5 -46.5q0 -53 -3 -113.5t-10 -95.5q-4 -18 -23.5 -23t-72.5 -5q-31 0 -63.5 1t-58 6t-42 12t-16.5 20 q0 33 2 66.5t2 68.5q0 25 -3 50t-3 50z" />
<glyph unicode="&#xfd;" horiz-adv-x="1013" d="M12 1044q0 23 8.5 30t28.5 11q25 2 67 5.5t91 6.5t99 5t91 2q16 0 31.5 -5t20.5 -22q16 -63 36.5 -118.5t42.5 -108.5q27 55 46.5 107.5t41.5 115.5q4 16 25 24.5t86 8.5q20 0 51 -2t65 -5t64.5 -7.5t48.5 -8.5q29 -8 29 -36q0 -8 -5 -21.5t-11 -30.5 q-59 -129 -122 -245.5t-128 -229.5q4 -59 5 -123.5t1 -124.5q0 -68 -1 -135t-5 -133q-2 -27 -31 -31q-92 -6 -190 -6q-49 0 -100.5 1t-92.5 5q-12 2 -18 6.5t-6 26.5q2 66 3 132.5t1 131.5v126t-4 126q-72 115 -139.5 235t-118.5 242q-4 10 -7.5 20.5t-3.5 24.5zM353 1325 q0 23 32 35q72 23 149 53.5t153 65.5q20 10 33.5 17t22.5 11t16 6.5t18 2.5q35 0 41 -54.5t6 -158.5q0 -20 -23 -29q-86 -37 -174 -60.5t-186 -39.5q-10 -2 -21.5 -3.5t-19.5 -1.5q-12 0 -21.5 14.5t-15.5 37t-8 50t-2 54.5z" />
<glyph unicode="&#xfe;" horiz-adv-x="1198" d="M80 1010q0 39 10 56t39 21q37 4 106.5 5.5t137.5 1.5h95t83 -4q16 -4 27.5 -10t15.5 -29q2 -10 2 -27.5v-34.5q0 -49 -2 -99t-6 -97h39q154 0 253 -35t156.5 -86t80 -111.5t22.5 -109.5q0 -100 -45 -171t-116 -116t-157 -66.5t-168 -21.5h-22.5t-20.5 2l-8 -45 q-4 -35 -24.5 -47.5t-75.5 -14.5q-39 -2 -77 -3t-79 -1q-96 0 -184 6q-29 2 -37 15.5t-8 48.5q0 117 -5.5 231.5t-13.5 231.5q-6 123 -12 250t-6 260zM629 229q72 4 109.5 28t37.5 71q0 25 -29.5 39t-66.5 14h-13.5t-17.5 -2z" />
<glyph unicode="&#xff;" horiz-adv-x="1013" d="M12 1044q0 23 8.5 30t28.5 11q25 2 67 5.5t91 6.5t99 5t91 2q16 0 31.5 -5t20.5 -22q16 -63 36.5 -118.5t42.5 -108.5q27 55 46.5 107.5t41.5 115.5q4 16 25 24.5t86 8.5q20 0 51 -2t65 -5t64.5 -7.5t48.5 -8.5q29 -8 29 -36q0 -8 -5 -21.5t-11 -30.5 q-59 -129 -122 -245.5t-128 -229.5q4 -59 5 -123.5t1 -124.5q0 -68 -1 -135t-5 -133q-2 -27 -31 -31q-92 -6 -190 -6q-49 0 -100.5 1t-92.5 5q-12 2 -18 6.5t-6 26.5q2 66 3 132.5t1 131.5v126t-4 126q-72 115 -139.5 235t-118.5 242q-4 10 -7.5 20.5t-3.5 24.5zM164 1497 q0 29 30.5 35t100.5 6q55 0 87 -1t48 -8t20 -22.5t4 -46.5q0 -53 -3 -113.5t-9 -95.5q-4 -18 -22.5 -23t-73.5 -5q-31 0 -62.5 1t-58.5 6t-43 12t-16 20q0 33 2 66.5t2 68.5q0 25 -3 50t-3 50zM598 1497q0 29 29.5 35t99.5 6q55 0 88 -1t49 -8t20.5 -22.5t4.5 -46.5 q0 -53 -3 -113.5t-10 -95.5q-4 -18 -23.5 -23t-72.5 -5q-31 0 -63.5 1t-58 6t-42 12t-16.5 20q0 33 2 66.5t2 68.5q0 25 -3 50t-3 50z" />
<glyph unicode="&#x152;" horiz-adv-x="1736" d="M66 723q0 150 42 275.5t121.5 218t193.5 144.5t259 52t264 -57q76 6 184.5 8t260.5 2h297q14 0 14 -16q0 -113 -6 -219.5t-15.5 -190.5t-21.5 -135t-23 -51q-20 0 -95 6t-236 6q-4 -35 -5.5 -74t-1.5 -74q82 0 166 8.5t131 8.5q35 0 47.5 -7t12.5 -22q-8 -47 -19.5 -88 t-27.5 -88q-10 -23 -187 -22h-60.5t-66.5 2q-4 -29 -6 -73t-2 -85q76 -6 158 -6q45 0 88 3t86 3q16 0 16 -29q0 -72 -2 -123t-8 -104q-2 -8 -20.5 -15.5t-65.5 -13.5t-129 -9t-211 -3q-164 0 -247 2t-115 18q-37 -10 -77 -17t-81 -7q-139 0 -252 54t-192.5 154.5t-123.5 244 t-44 319.5zM535 557q0 -115 38 -188.5t95 -73.5q59 0 96 74.5t37 187.5q0 104 -30 146t-95 42q-82 0 -111.5 -41.5t-29.5 -146.5z" />
<glyph unicode="&#x153;" horiz-adv-x="1427" d="M63 575q0 119 34 220.5t97.5 175t155.5 115.5t207 42q57 0 110.5 -10t96.5 -33q29 2 67.5 4.5t103 3.5t161 1h239.5q31 0 31 -31q0 -90 -6 -176t-16.5 -153.5t-22.5 -108.5t-25 -41q-14 0 -31.5 1t-45 3t-67.5 3t-97 1q0 -18 -1 -43t-1 -41q59 4 118.5 8t94.5 4 q37 0 49 -10t12 -31q-4 -35 -13 -61.5t-24 -65.5q-12 -29 -160 -28h-83q-2 -20 -2.5 -46t-0.5 -49q25 -4 51.5 -4h53.5q31 0 62.5 3t70.5 3q20 0 25.5 -12t5.5 -29q-2 -55 -2 -96t-6 -82q-2 -10 -18.5 -18t-55.5 -14.5t-106.5 -10.5t-170.5 -4q-119 0 -184 1t-96 11 q-61 -16 -119 -16q-111 0 -202 43t-155.5 123t-99.5 193.5t-35 254.5zM461 449q0 -80 24.5 -133.5t61.5 -53.5q39 0 61.5 54.5t22.5 132.5q0 72 -18.5 99t-59.5 27q-53 0 -72.5 -27.5t-19.5 -98.5z" />
<glyph unicode="&#x178;" horiz-adv-x="1220" d="M6 1317q0 29 25 33q33 2 87 6t117.5 7t128 5t115.5 2q12 0 24.5 -2t16.5 -8q25 -92 59.5 -178t71.5 -170q35 80 67 161.5t62 172.5q2 8 8.5 13t19.5 8t36.5 4t62.5 1q25 0 65 -1t83 -4t81.5 -8t61.5 -11q16 -6 16 -27q0 -16 -4 -23q-78 -170 -162.5 -330.5t-177.5 -320.5 q6 -78 8.5 -158.5t2.5 -158.5q0 -88 -2 -174t-9 -172q0 -18 -18 -19q-61 -4 -120.5 -6t-121.5 -2q-61 0 -121.5 2t-119.5 6q-18 2 -19 19q4 86 6 172t2 172q0 78 -2 159.5t-6 159.5q-96 154 -188 312.5t-152 330.5q-2 8 -3 14.5t-1 12.5zM269 1769q0 29 30.5 35t100.5 6 q55 0 87 -1t48 -8t20 -22.5t4 -46.5q0 -53 -3 -113.5t-9 -95.5q-4 -18 -22.5 -23t-73.5 -5q-31 0 -62.5 1t-58.5 6t-43 12t-16 20q0 33 2 66.5t2 68.5q0 25 -3 50t-3 50zM703 1769q0 29 29.5 35t99.5 6q55 0 88 -1t49 -8t20.5 -22.5t4.5 -46.5q0 -53 -3 -113.5t-10 -95.5 q-4 -18 -23.5 -23t-72.5 -5q-31 0 -63.5 1t-58 6t-42 12t-16.5 20q0 33 2 66.5t2 68.5q0 25 -3 50t-3 50z" />
<glyph unicode="&#x2c6;" horiz-adv-x="796" d="M72 1323q0 8 5 16.5t11 18.5q45 63 93 111.5t112 95.5q4 2 13 7t28 5q12 0 37.5 -1t54.5 -4t54.5 -9.5t35.5 -16.5q41 -57 92 -106t107 -94q10 -10 10 -23q0 -8 -13.5 -28.5t-31.5 -42t-38.5 -38t-35.5 -16.5h-12t-14 4q-51 31 -97.5 69t-85.5 91q-53 -23 -99 -64 t-89 -94q-4 -4 -10 -5t-11 -1q-6 0 -25.5 11.5t-40 29.5t-35.5 41t-15 43z" />
<glyph unicode="&#x2dc;" horiz-adv-x="786" d="M72 1260q0 31 1 78.5t9 76.5q29 37 70 65.5t102 28.5q45 0 84 -10t71.5 -21.5t61.5 -21.5t53 -10q45 0 85 17.5t71 60.5q10 10 20 10q8 0 16.5 -7.5t8.5 -17.5q0 -41 -3 -94t-9 -88q-43 -47 -90.5 -68.5t-108.5 -21.5q-39 0 -73.5 9t-65.5 21.5t-59.5 21.5t-55.5 9 q-41 0 -74.5 -19t-68.5 -62q-8 -8 -19 -9q-16 0 -21 15.5t-5 36.5z" />
<glyph unicode="&#x2000;" horiz-adv-x="924" />
<glyph unicode="&#x2001;" horiz-adv-x="1849" />
<glyph unicode="&#x2002;" horiz-adv-x="924" />
<glyph unicode="&#x2003;" horiz-adv-x="1849" />
<glyph unicode="&#x2004;" horiz-adv-x="616" />
<glyph unicode="&#x2005;" horiz-adv-x="462" />
<glyph unicode="&#x2006;" horiz-adv-x="308" />
<glyph unicode="&#x2007;" horiz-adv-x="308" />
<glyph unicode="&#x2008;" horiz-adv-x="231" />
<glyph unicode="&#x2009;" horiz-adv-x="369" />
<glyph unicode="&#x200a;" horiz-adv-x="102" />
<glyph unicode="&#x2010;" horiz-adv-x="651" d="M25 694q0 16 18 17q74 4 146.5 6t144.5 2q68 0 135.5 -2t134.5 -6q21 -1 21 -15q0 -12 -5.5 -41.5t-14.5 -61.5t-22.5 -57.5t-27.5 -29.5q-55 4 -108.5 6t-106.5 2q-68 0 -135.5 -2t-134.5 -6q-12 0 -20.5 20.5t-13.5 50t-8 62.5t-3 55z" />
<glyph unicode="&#x2011;" horiz-adv-x="651" d="M25 694q0 16 18 17q74 4 146.5 6t144.5 2q68 0 135.5 -2t134.5 -6q21 -1 21 -15q0 -12 -5.5 -41.5t-14.5 -61.5t-22.5 -57.5t-27.5 -29.5q-55 4 -108.5 6t-106.5 2q-68 0 -135.5 -2t-134.5 -6q-12 0 -20.5 20.5t-13.5 50t-8 62.5t-3 55z" />
<glyph unicode="&#x2012;" horiz-adv-x="651" d="M25 694q0 16 18 17q74 4 146.5 6t144.5 2q68 0 135.5 -2t134.5 -6q21 -1 21 -15q0 -12 -5.5 -41.5t-14.5 -61.5t-22.5 -57.5t-27.5 -29.5q-55 4 -108.5 6t-106.5 2q-68 0 -135.5 -2t-134.5 -6q-12 0 -20.5 20.5t-13.5 50t-8 62.5t-3 55z" />
<glyph unicode="&#x2013;" horiz-adv-x="1021" d="M25 694q0 16 18 17q37 2 93.5 3t125 2t145 2t152.5 1q154 0 251 -2t165 -6q20 -1 20 -15q0 -12 -5 -41.5t-15 -61.5t-23.5 -57.5t-27.5 -29.5q-53 4 -134 6t-225 2h-145.5t-140 -1t-122 -3t-87.5 -4q-12 0 -20.5 20.5t-13.5 50t-8 62.5t-3 55z" />
<glyph unicode="&#x2014;" horiz-adv-x="1548" d="M25 694q0 16 18 17q74 2 262.5 5t452.5 3q131 0 251.5 -1t218 -2t168 -2t105.5 -3q19 -1 19 -15q0 -12 -5.5 -41.5t-14.5 -61.5t-22.5 -57.5t-27.5 -29.5q-27 2 -91.5 4t-155.5 3t-203.5 1h-235.5h-234.5t-202.5 -1t-158 -3t-99 -4q-12 0 -20.5 20.5t-13.5 50t-8 62.5 t-3 55z" />
<glyph unicode="&#x2018;" horiz-adv-x="632" d="M72 1071q0 18 10 66.5t27.5 99.5t37.5 92t43 43q41 0 86.5 -15.5t90.5 -39t87 -52t74 -55.5q6 -4 19.5 -16t13.5 -18q0 -18 -15.5 -61.5t-36 -88.5t-42 -79t-31.5 -34t-32.5 19.5t-45.5 19.5q-20 0 -20 -16t20.5 -44t67.5 -75q8 -6 8 -12q0 -18 -25.5 -42t-43.5 -24 q-8 0 -20.5 7.5t-22.5 17.5q-66 66 -127.5 132.5t-108.5 139.5q-4 8 -9 17.5t-5 17.5z" />
<glyph unicode="&#x2019;" horiz-adv-x="632" d="M72 1176q0 6 14 18t18 16q33 27 75 55.5t87 52t91 39t87 15.5q20 -2 41 -43t38.5 -92t27.5 -99t10 -67q0 -8 -5 -17.5t-9 -17.5q-47 -74 -107.5 -140.5t-126.5 -131.5q-10 -10 -22 -17.5t-23 -7.5q-8 0 -19 7.5t-22.5 16.5t-18.5 20.5t-7 21.5q0 6 6 12q47 47 68.5 75 t21.5 44t-21 16q-12 0 -24 -6t-22.5 -13t-19.5 -13.5t-13 -6.5q-10 0 -31 34t-42.5 79t-36.5 88t-15 62z" />
<glyph unicode="&#x201a;" horiz-adv-x="632" d="M72 145q0 8 14 19.5t18 15.5q33 27 75 55.5t87 53t91 40t87 15.5q20 -4 41 -45t38.5 -92t27.5 -99.5t10 -66.5q0 -6 -5 -16.5t-9 -16.5q-47 -74 -107.5 -141.5t-126.5 -132.5q-10 -10 -22 -16.5t-23 -6.5q-8 0 -19 6.5t-22.5 16.5t-18.5 21.5t-7 21.5q0 2 6 12 q47 47 68.5 73.5t21.5 43.5q0 16 -21 16q-23 0 -46 -18.5t-33 -18.5t-31 34t-42.5 79t-36.5 87t-15 60z" />
<glyph unicode="&#x201c;" horiz-adv-x="1265" d="M72 1071q0 18 10 66.5t27.5 99.5t37.5 92t43 43q41 0 86.5 -15.5t90.5 -39t87 -52t74 -55.5q6 -4 19.5 -16t13.5 -18q0 -18 -15.5 -61.5t-36 -88.5t-42 -79t-31.5 -34t-32.5 19.5t-45.5 19.5q-20 0 -20 -16t20.5 -44t67.5 -75q8 -6 8 -12q0 -18 -25.5 -42t-43.5 -24 q-8 0 -20.5 7.5t-22.5 17.5q-66 66 -127.5 132.5t-108.5 139.5q-4 8 -9 17.5t-5 17.5zM705 1071q0 18 10 66.5t27.5 99.5t37.5 92t43 43q41 0 86.5 -15.5t90.5 -39t87 -52t74 -55.5q6 -4 19.5 -16t13.5 -18q0 -18 -15.5 -61.5t-36 -88.5t-42 -79t-31.5 -34t-32.5 19.5 t-45.5 19.5q-20 0 -20 -16t20.5 -44t67.5 -75q8 -6 8 -12q0 -18 -25.5 -42t-43.5 -24q-8 0 -20.5 7.5t-22.5 17.5q-66 66 -127.5 132.5t-108.5 139.5q-4 8 -9 17.5t-5 17.5z" />
<glyph unicode="&#x201d;" horiz-adv-x="1265" d="M72 1176q0 6 14 18t18 16q33 27 75 55.5t87 52t91 39t87 15.5q20 -2 41 -43t38.5 -92t27.5 -99t10 -67q0 -8 -5 -17.5t-9 -17.5q-47 -74 -107.5 -140.5t-126.5 -131.5q-10 -10 -22 -17.5t-23 -7.5q-8 0 -19 7.5t-22.5 16.5t-18.5 20.5t-7 21.5q0 6 6 12q47 47 68.5 75 t21.5 44t-21 16q-12 0 -24 -6t-22.5 -13t-19.5 -13.5t-13 -6.5q-10 0 -31 34t-42.5 79t-36.5 88t-15 62zM705 1176q0 6 14 18t18 16q33 27 75 55.5t87 52t91 39t87 15.5q20 -2 41 -43t38.5 -92t27.5 -99t10 -67q0 -8 -5 -17.5t-9 -17.5q-47 -74 -107.5 -140.5t-126.5 -131.5 q-10 -10 -22 -17.5t-23 -7.5q-8 0 -19 7.5t-22.5 16.5t-18.5 20.5t-7 21.5q0 6 6 12q47 47 68.5 75t21.5 44t-21 16q-12 0 -24 -6t-22.5 -13t-19.5 -13.5t-13 -6.5q-10 0 -31 34t-42.5 79t-36.5 88t-15 62z" />
<glyph unicode="&#x201e;" horiz-adv-x="1265" d="M72 145q0 8 14 19.5t18 15.5q33 27 75 55.5t87 53t91 40t87 15.5q20 -4 41 -45t38.5 -92t27.5 -99.5t10 -66.5q0 -6 -5 -16.5t-9 -16.5q-47 -74 -107.5 -141.5t-126.5 -132.5q-10 -10 -22 -16.5t-23 -6.5q-8 0 -19 6.5t-22.5 16.5t-18.5 21.5t-7 21.5q0 2 6 12 q47 47 68.5 73.5t21.5 43.5q0 16 -21 16q-23 0 -46 -18.5t-33 -18.5t-31 34t-42.5 79t-36.5 87t-15 60zM705 145q0 8 14 19.5t18 15.5q33 27 75 55.5t87 53t91 40t87 15.5q20 -4 41 -45t38.5 -92t27.5 -99.5t10 -66.5q0 -6 -5 -16.5t-9 -16.5q-47 -74 -107.5 -141.5 t-126.5 -132.5q-10 -10 -22 -16.5t-23 -6.5q-8 0 -19 6.5t-22.5 16.5t-18.5 21.5t-7 21.5q0 2 6 12q47 47 68.5 73.5t21.5 43.5q0 16 -21 16q-23 0 -46 -18.5t-33 -18.5t-31 34t-42.5 79t-36.5 87t-15 60z" />
<glyph unicode="&#x2022;" horiz-adv-x="833" d="M72 700q0 70 24.5 129.5t69.5 102.5t109.5 67.5t146.5 24.5q84 0 147.5 -25.5t106.5 -68.5t64.5 -100.5t21.5 -120.5q0 -70 -21.5 -136.5t-64.5 -118t-106.5 -83t-149.5 -31.5q-158 0 -253 97.5t-95 262.5z" />
<glyph unicode="&#x2026;" horiz-adv-x="2390" d="M121 127q0 18 30 33q76 35 152 71.5t145 81.5q8 4 22.5 10.5t20.5 6.5q18 0 47 -42t55.5 -95.5t46 -101.5t19.5 -58q0 -12 -17.5 -26.5t-27.5 -18.5q-80 -47 -159.5 -83t-165.5 -69q-16 -6 -23 -6q-16 0 -40.5 36t-47.5 85t-40 98t-17 78zM903 137q0 18 30 33 q76 35 152 71.5t145 81.5q8 4 22.5 10.5t20.5 6.5q18 0 47 -42t55.5 -95.5t46 -101.5t19.5 -58q0 -12 -17.5 -26.5t-27.5 -18.5q-80 -47 -159.5 -83t-165.5 -69q-16 -6 -23 -6q-16 0 -40.5 36t-47.5 85t-40 98t-17 78zM1698 121q0 18 30 33q76 35 152 71.5t145 81.5 q8 4 22.5 10.5t20.5 6.5q18 0 47 -42t55.5 -95.5t46 -101.5t19.5 -58q0 -12 -17.5 -26.5t-27.5 -18.5q-80 -47 -159.5 -83t-165.5 -69q-16 -6 -23 -6q-16 0 -40.5 36t-47.5 85t-40 98t-17 78z" />
<glyph unicode="&#x202f;" horiz-adv-x="369" />
<glyph unicode="&#x2039;" horiz-adv-x="536" d="M25 676q0 14 20 33q80 59 163 111t167 81q18 6 26.5 8t12.5 2q14 0 28.5 -23.5t25.5 -56t17.5 -64.5t6.5 -46t-13 -19q-55 -16 -105 -40.5t-91 -59.5q43 -49 100 -82t117 -61q10 -4 10 -15q0 -4 -15.5 -22.5t-35 -40t-40 -38.5t-30.5 -17q-23 0 -68 21.5t-96 52t-98 65.5 t-70 61q-18 23 -25 52.5t-7 97.5z" />
<glyph unicode="&#x203a;" horiz-adv-x="536" d="M25 793q0 2 14 21.5t34.5 41t41 38.5t30.5 17q20 0 66.5 -21.5t97.5 -52t98.5 -65.5t69.5 -61q18 -23 25.5 -52.5t7.5 -97.5q0 -14 -21 -33q-80 -59 -162.5 -111t-166.5 -81q-18 -6 -26.5 -8t-12.5 -2q-16 0 -29.5 23.5t-25 56t-17.5 63.5t-6 47q0 14 12 19 q55 16 105.5 40.5t91.5 59.5q-43 49 -100.5 82t-116.5 61q-10 4 -10 15z" />
<glyph unicode="&#x205f;" horiz-adv-x="462" />
<glyph unicode="&#x20ac;" horiz-adv-x="1249" d="M20 705q0 10 2.5 15t16.5 5h78q0 137 50 262t147.5 220.5t241.5 151.5t333 56q45 0 81 -1t65.5 -3t58 -7t59.5 -11q10 -2 20.5 -39t17.5 -93.5t12 -124t8 -130t5.5 -113.5t2.5 -76q0 -16 -19 -16q-12 0 -63.5 9t-118.5 9q-98 0 -149.5 -25.5t-77.5 -68.5h294q19 0 19 -8 q0 -14 -7 -36t-17.5 -43.5t-23 -36.5t-22.5 -15h-323q-10 -27 -12.5 -49.5t-2.5 -44.5h291q20 0 21 -11q0 -14 -7.5 -36.5t-17.5 -43t-22.5 -35t-22.5 -14.5h-193q23 -53 90.5 -87t196.5 -34q59 0 81 7.5t36 7.5q16 0 23.5 -29t7.5 -67q0 -31 -4.5 -62t-8.5 -47 q-8 -33 -92 -59.5t-223 -26.5q-96 0 -188.5 23.5t-174 72.5t-150.5 124t-114 177h-149q-12 0 -20.5 13.5t-13.5 34t-8 42t-3 37.5q0 12 18 13h109q-10 20 -17.5 45.5t-11.5 48.5h-63q-12 0 -20.5 12t-13.5 30.5t-8.5 39t-3.5 37.5z" />
<glyph unicode="&#x2122;" horiz-adv-x="1619" d="M39 1140v89q0 41 1 72.5t1 50.5q0 41 35 41q31 2 81 2h103h56t83 -1t93.5 -2t87 -3.5t63.5 -6.5t25 -8q4 -41 4 -74.5v-72.5q0 -47 -2 -88t-2 -70q0 -37 -41 -37h-47t-70 -2q-2 -39 -6 -91t-8 -108.5t-10.5 -116t-14.5 -110.5q-4 -25 -24.5 -30t-61.5 -5q-43 0 -76 1 t-49 5q-10 2 -17 7.5t-10 21.5q-10 115 -14 223.5t-14 206.5q-39 2 -74 2h-55q-33 0 -35 33q-2 29 -2 71zM770 1042q0 80 2 158t6 156q0 12 28 15t54 3q43 0 79 -5t46 -21q35 -63 71 -128t79 -124q39 57 76.5 122.5t66.5 133.5q4 8 20.5 13t39 7t46 3t41.5 1q66 0 92.5 -5 t26.5 -15q4 -72 4 -142.5v-142.5q0 -121 -3 -241.5t-7 -241.5q0 -16 -11 -21.5t-36 -5.5q-86 0 -136 2t-76 7t-33 12.5t-7 19.5q0 70 1 115t3 86q-20 -61 -44.5 -119.5t-53.5 -108.5q-4 -8 -10.5 -11t-32.5 -3q-23 0 -29 3t-14 14q-35 53 -66.5 110t-54.5 123q2 -25 3 -63.5 t1 -108.5q0 -39 -3 -53.5t-9 -14.5q-10 -4 -35 -5t-84 -1q-33 0 -33 35q0 100 -4 214t-4 228z" />
<glyph unicode="&#x25fc;" horiz-adv-x="1095" d="M0 0v1096h1096v-1096h-1096z" />
</font>
</defs>
</svg>
